%TF.GenerationSoftware,KiCad,Pcbnew,8.0.2*%
%TF.CreationDate,2024-05-31T22:34:32-04:00*%
%TF.ProjectId,EL Driver,454c2044-7269-4766-9572-2e6b69636164,rev?*%
%TF.SameCoordinates,Original*%
%TF.FileFunction,Soldermask,Top*%
%TF.FilePolarity,Negative*%
%FSLAX46Y46*%
G04 Gerber Fmt 4.6, Leading zero omitted, Abs format (unit mm)*
G04 Created by KiCad (PCBNEW 8.0.2) date 2024-05-31 22:34:32*
%MOMM*%
%LPD*%
G01*
G04 APERTURE LIST*
G04 Aperture macros list*
%AMRoundRect*
0 Rectangle with rounded corners*
0 $1 Rounding radius*
0 $2 $3 $4 $5 $6 $7 $8 $9 X,Y pos of 4 corners*
0 Add a 4 corners polygon primitive as box body*
4,1,4,$2,$3,$4,$5,$6,$7,$8,$9,$2,$3,0*
0 Add four circle primitives for the rounded corners*
1,1,$1+$1,$2,$3*
1,1,$1+$1,$4,$5*
1,1,$1+$1,$6,$7*
1,1,$1+$1,$8,$9*
0 Add four rect primitives between the rounded corners*
20,1,$1+$1,$2,$3,$4,$5,0*
20,1,$1+$1,$4,$5,$6,$7,0*
20,1,$1+$1,$6,$7,$8,$9,0*
20,1,$1+$1,$8,$9,$2,$3,0*%
G04 Aperture macros list end*
%ADD10C,2.200000*%
%ADD11R,1.600000X1.600000*%
%ADD12O,1.600000X1.600000*%
%ADD13C,1.426000*%
%ADD14RoundRect,0.102000X0.611000X-0.611000X0.611000X0.611000X-0.611000X0.611000X-0.611000X-0.611000X0*%
%ADD15C,1.600000*%
%ADD16R,1.500000X1.050000*%
%ADD17O,1.500000X1.050000*%
%ADD18C,2.600000*%
%ADD19C,1.752600*%
%ADD20O,1.700000X1.700000*%
%ADD21R,1.700000X1.700000*%
%ADD22O,2.200000X2.200000*%
%ADD23R,2.200000X2.200000*%
%ADD24C,2.400000*%
G04 APERTURE END LIST*
D10*
%TO.C,REF\u002A\u002A*%
X61000000Y-96000000D03*
%TD*%
%TO.C,REF\u002A\u002A*%
X61000000Y-52000000D03*
%TD*%
%TO.C,REF\u002A\u002A*%
X137000000Y-52000000D03*
%TD*%
%TO.C,REF\u002A\u002A*%
X137000000Y-96000000D03*
%TD*%
D11*
%TO.C,U2*%
X89800000Y-93800000D03*
D12*
X89800000Y-91260000D03*
X89800000Y-88720000D03*
X89800000Y-86180000D03*
X82180000Y-86180000D03*
X82180000Y-88720000D03*
X82180000Y-91260000D03*
X82180000Y-93800000D03*
%TD*%
D11*
%TO.C,U1*%
X85300000Y-73800000D03*
D12*
X85300000Y-71260000D03*
X85300000Y-68720000D03*
X85300000Y-66180000D03*
X77680000Y-66180000D03*
X77680000Y-68720000D03*
X77680000Y-71260000D03*
X77680000Y-73800000D03*
%TD*%
D13*
%TO.C,RV2*%
X69000000Y-90960000D03*
X66460000Y-93500000D03*
D14*
X69000000Y-96040000D03*
%TD*%
%TO.C,RV1*%
X69000000Y-85500000D03*
D13*
X66460000Y-82960000D03*
X69000000Y-80420000D03*
%TD*%
D12*
%TO.C,R5*%
X99500000Y-93810000D03*
D15*
X99500000Y-86190000D03*
%TD*%
D12*
%TO.C,R4*%
X78690000Y-79500000D03*
D15*
X86310000Y-79500000D03*
%TD*%
D12*
%TO.C,R3*%
X97310000Y-69000000D03*
D15*
X89690000Y-69000000D03*
%TD*%
%TO.C,R2*%
X72000000Y-67190000D03*
D12*
X72000000Y-74810000D03*
%TD*%
D15*
%TO.C,R1*%
X126500000Y-75500000D03*
D12*
X118880000Y-75500000D03*
%TD*%
D16*
%TO.C,Q4*%
X118500000Y-90540000D03*
D17*
X118500000Y-89270000D03*
X118500000Y-88000000D03*
%TD*%
D16*
%TO.C,Q3*%
X127000000Y-90540000D03*
D17*
X127000000Y-89270000D03*
X127000000Y-88000000D03*
%TD*%
D16*
%TO.C,Q2*%
X127000000Y-83770000D03*
D17*
X127000000Y-82500000D03*
X127000000Y-81230000D03*
%TD*%
D16*
%TO.C,Q1*%
X118500000Y-83540000D03*
D17*
X118500000Y-82270000D03*
X118500000Y-81000000D03*
%TD*%
D18*
%TO.C,L1*%
X95500000Y-58000000D03*
X90500000Y-58000000D03*
%TD*%
D19*
%TO.C,J4*%
X135500000Y-70920000D03*
X135500000Y-76000000D03*
%TD*%
%TO.C,J3*%
X135500000Y-59420000D03*
X135500000Y-64500000D03*
%TD*%
D20*
%TO.C,J2*%
X108000000Y-88235000D03*
D21*
X108000000Y-90775000D03*
%TD*%
D19*
%TO.C,J1*%
X61597301Y-75073400D03*
X61597301Y-69993400D03*
%TD*%
D22*
%TO.C,D4*%
X102190000Y-66500000D03*
D23*
X109810000Y-66500000D03*
%TD*%
%TO.C,D3*%
X64500000Y-56690000D03*
D22*
X64500000Y-64310000D03*
%TD*%
D23*
%TO.C,D2*%
X102000000Y-61000000D03*
D22*
X109620000Y-61000000D03*
%TD*%
%TO.C,D1*%
X109810000Y-54500000D03*
D23*
X102190000Y-54500000D03*
%TD*%
D15*
%TO.C,C10*%
X77500000Y-91500000D03*
X77500000Y-96500000D03*
%TD*%
%TO.C,C9*%
X94500000Y-93000000D03*
X94500000Y-88000000D03*
%TD*%
%TO.C,C8*%
X77500000Y-88500000D03*
X77500000Y-83500000D03*
%TD*%
D24*
%TO.C,C7*%
X120000000Y-68000000D03*
X120000000Y-53000000D03*
%TD*%
D15*
%TO.C,C6*%
X135500000Y-86500000D03*
X135500000Y-84000000D03*
%TD*%
%TO.C,C5*%
X113500000Y-75500000D03*
X108500000Y-75500000D03*
%TD*%
%TO.C,C4*%
X83500000Y-56000000D03*
X83500000Y-61000000D03*
%TD*%
%TO.C,C3*%
X78000000Y-56000000D03*
X78000000Y-61000000D03*
%TD*%
%TO.C,C2*%
X71000000Y-56750000D03*
X71000000Y-60250000D03*
%TD*%
%TO.C,C1*%
X99000000Y-76000000D03*
X104000000Y-76000000D03*
%TD*%
M02*
