%TF.GenerationSoftware,KiCad,Pcbnew,8.0.2*%
%TF.CreationDate,2024-05-31T22:34:32-04:00*%
%TF.ProjectId,EL Driver,454c2044-7269-4766-9572-2e6b69636164,rev?*%
%TF.SameCoordinates,Original*%
%TF.FileFunction,Legend,Bot*%
%TF.FilePolarity,Positive*%
%FSLAX46Y46*%
G04 Gerber Fmt 4.6, Leading zero omitted, Abs format (unit mm)*
G04 Created by KiCad (PCBNEW 8.0.2) date 2024-05-31 22:34:32*
%MOMM*%
%LPD*%
G01*
G04 APERTURE LIST*
%ADD10C,0.508000*%
%ADD11C,0.350000*%
G04 APERTURE END LIST*
D10*
%TO.C,J4*%
X135881000Y-67618000D02*
G75*
G02*
X135119000Y-67618000I-381000J0D01*
G01*
X135119000Y-67618000D02*
G75*
G02*
X135881000Y-67618000I381000J0D01*
G01*
%TO.C,J3*%
X135881000Y-56118000D02*
G75*
G02*
X135119000Y-56118000I-381000J0D01*
G01*
X135119000Y-56118000D02*
G75*
G02*
X135881000Y-56118000I381000J0D01*
G01*
%TO.C,J1*%
X61978301Y-66691400D02*
G75*
G02*
X61216301Y-66691400I-381000J0D01*
G01*
X61216301Y-66691400D02*
G75*
G02*
X61978301Y-66691400I381000J0D01*
G01*
%TD*%
D11*
X61000000Y-96000000D03*
X61000000Y-52000000D03*
X137000000Y-52000000D03*
X137000000Y-96000000D03*
X89800000Y-93800000D03*
X89800000Y-91260000D03*
X89800000Y-88720000D03*
X89800000Y-86180000D03*
X82180000Y-86180000D03*
X82180000Y-88720000D03*
X82180000Y-91260000D03*
X82180000Y-93800000D03*
X85300000Y-73800000D03*
X85300000Y-71260000D03*
X85300000Y-68720000D03*
X85300000Y-66180000D03*
X77680000Y-66180000D03*
X77680000Y-68720000D03*
X77680000Y-71260000D03*
X77680000Y-73800000D03*
X69000000Y-90960000D03*
X66460000Y-93500000D03*
X69000000Y-96040000D03*
X69000000Y-85500000D03*
X66460000Y-82960000D03*
X69000000Y-80420000D03*
X99500000Y-93810000D03*
X99500000Y-86190000D03*
X78690000Y-79500000D03*
X86310000Y-79500000D03*
X97310000Y-69000000D03*
X89690000Y-69000000D03*
X72000000Y-67190000D03*
X72000000Y-74810000D03*
X126500000Y-75500000D03*
X118880000Y-75500000D03*
X118500000Y-90540000D03*
X118500000Y-89270000D03*
X118500000Y-88000000D03*
X127000000Y-90540000D03*
X127000000Y-89270000D03*
X127000000Y-88000000D03*
X127000000Y-83770000D03*
X127000000Y-82500000D03*
X127000000Y-81230000D03*
X118500000Y-83540000D03*
X118500000Y-82270000D03*
X118500000Y-81000000D03*
X95500000Y-58000000D03*
X90500000Y-58000000D03*
X135500000Y-70920000D03*
X135500000Y-76000000D03*
X135500000Y-59420000D03*
X135500000Y-64500000D03*
X108000000Y-88235000D03*
X108000000Y-90775000D03*
X61597301Y-75073400D03*
X61597301Y-69993400D03*
X102190000Y-66500000D03*
X109810000Y-66500000D03*
X64500000Y-56690000D03*
X64500000Y-64310000D03*
X102000000Y-61000000D03*
X109620000Y-61000000D03*
X109810000Y-54500000D03*
X102190000Y-54500000D03*
X77500000Y-91500000D03*
X77500000Y-96500000D03*
X94500000Y-93000000D03*
X94500000Y-88000000D03*
X77500000Y-88500000D03*
X77500000Y-83500000D03*
X120000000Y-68000000D03*
X120000000Y-53000000D03*
X135500000Y-86500000D03*
X135500000Y-84000000D03*
X113500000Y-75500000D03*
X108500000Y-75500000D03*
X83500000Y-56000000D03*
X83500000Y-61000000D03*
X78000000Y-56000000D03*
X78000000Y-61000000D03*
X71000000Y-56750000D03*
X71000000Y-60250000D03*
X99000000Y-76000000D03*
X104000000Y-76000000D03*
M02*
