M48
; DRILL file {KiCad 8.0.2} date 2024-05-31T22:34:32-0400
; FORMAT={-:-/ absolute / metric / decimal}
; #@! TF.CreationDate,2024-05-31T22:34:32-04:00
; #@! TF.GenerationSoftware,Kicad,Pcbnew,8.0.2
; #@! TF.FileFunction,Plated,1,2,PTH
FMAT,2
METRIC
; #@! TA.AperFunction,Plated,PTH,ComponentDrill
T1C0.714
; #@! TA.AperFunction,Plated,PTH,ComponentDrill
T2C0.750
; #@! TA.AperFunction,Plated,PTH,ComponentDrill
T3C0.800
; #@! TA.AperFunction,Plated,PTH,ComponentDrill
T4C1.000
; #@! TA.AperFunction,Plated,PTH,ComponentDrill
T5C1.100
; #@! TA.AperFunction,Plated,PTH,ComponentDrill
T6C1.200
; #@! TA.AperFunction,Plated,PTH,ComponentDrill
T7C1.245
; #@! TA.AperFunction,Plated,PTH,ComponentDrill
T8C1.300
%
G90
G05
T1
X66.46Y-82.96
X66.46Y-93.5
X69.0Y-80.42
X69.0Y-85.5
X69.0Y-90.96
X69.0Y-96.04
T2
X118.5Y-81.0
X118.5Y-82.27
X118.5Y-83.54
X118.5Y-88.0
X118.5Y-89.27
X118.5Y-90.54
X127.0Y-81.23
X127.0Y-82.5
X127.0Y-83.77
X127.0Y-88.0
X127.0Y-89.27
X127.0Y-90.54
T3
X71.0Y-56.75
X71.0Y-60.25
X72.0Y-67.19
X72.0Y-74.81
X77.5Y-83.5
X77.5Y-88.5
X77.5Y-91.5
X77.5Y-96.5
X77.68Y-66.18
X77.68Y-68.72
X77.68Y-71.26
X77.68Y-73.8
X78.0Y-56.0
X78.0Y-61.0
X78.69Y-79.5
X82.18Y-86.18
X82.18Y-88.72
X82.18Y-91.26
X82.18Y-93.8
X83.5Y-56.0
X83.5Y-61.0
X85.3Y-66.18
X85.3Y-68.72
X85.3Y-71.26
X85.3Y-73.8
X86.31Y-79.5
X89.69Y-69.0
X89.8Y-86.18
X89.8Y-88.72
X89.8Y-91.26
X89.8Y-93.8
X94.5Y-88.0
X94.5Y-93.0
X97.31Y-69.0
X99.0Y-76.0
X99.5Y-86.19
X99.5Y-93.81
X104.0Y-76.0
X108.5Y-75.5
X113.5Y-75.5
X118.88Y-75.5
X126.5Y-75.5
X135.5Y-84.0
X135.5Y-86.5
T4
X108.0Y-88.235
X108.0Y-90.775
T5
X64.5Y-56.69
X64.5Y-64.31
X102.0Y-61.0
X102.19Y-54.5
X102.19Y-66.5
X109.62Y-61.0
X109.81Y-54.5
X109.81Y-66.5
T6
X120.0Y-53.0
X120.0Y-68.0
T7
X61.597Y-69.993
X61.597Y-75.073
X135.5Y-59.42
X135.5Y-64.5
X135.5Y-70.92
X135.5Y-76.0
T8
X90.5Y-58.0
X95.5Y-58.0
M30
