M48
METRIC,TZ
T1C0.714
T2C0.750
T3C0.800
T4C1.000
T5C1.100
T6C1.200
T7C1.245
T8C1.300
%
G90
G05
T1
X66460Y-82960
X66460Y-93500
X69000Y-80420
X69000Y-85500
X69000Y-90960
X69000Y-96040
T2
X118500Y-81000
X118500Y-82270
X118500Y-83540
X118500Y-88000
X118500Y-89270
X118500Y-90540
X127000Y-81230
X127000Y-82500
X127000Y-83770
X127000Y-88000
X127000Y-89270
X127000Y-90540
T3
X71000Y-56750
X71000Y-60250
X72000Y-67190
X72000Y-74810
X77500Y-83500
X77500Y-88500
X77500Y-91500
X77500Y-96500
X77680Y-66180
X77680Y-68720
X77680Y-71260
X77680Y-73800
X78000Y-56000
X78000Y-61000
X78690Y-79500
X82180Y-86180
X82180Y-88720
X82180Y-91260
X82180Y-93800
X83500Y-56000
X83500Y-61000
X85300Y-66180
X85300Y-68720
X85300Y-71260
X85300Y-73800
X86310Y-79500
X89690Y-69000
X89800Y-86180
X89800Y-88720
X89800Y-91260
X89800Y-93800
X94500Y-88000
X94500Y-93000
X97310Y-69000
X99000Y-76000
X99500Y-86190
X99500Y-93810
X104000Y-76000
X108500Y-75500
X113500Y-75500
X118880Y-75500
X126500Y-75500
X135500Y-84000
X135500Y-86500
T4
X108000Y-88235
X108000Y-90775
T5
X64500Y-56690
X64500Y-64310
X102000Y-61000
X102190Y-54500
X102190Y-66500
X109620Y-61000
X109810Y-54500
X109810Y-66500
T6
X120000Y-53000
X120000Y-68000
T7
X61597Y-69993
X61597Y-75073
X135500Y-59420
X135500Y-64500
X135500Y-70920
X135500Y-76000
T8
X90500Y-58000
X95500Y-58000
M30
