%TF.GenerationSoftware,KiCad,Pcbnew,8.0.2*%
%TF.CreationDate,2024-05-31T22:34:32-04:00*%
%TF.ProjectId,EL Driver,454c2044-7269-4766-9572-2e6b69636164,rev?*%
%TF.SameCoordinates,Original*%
%TF.FileFunction,Copper,L2,Bot*%
%TF.FilePolarity,Positive*%
%FSLAX46Y46*%
G04 Gerber Fmt 4.6, Leading zero omitted, Abs format (unit mm)*
G04 Created by KiCad (PCBNEW 8.0.2) date 2024-05-31 22:34:32*
%MOMM*%
%LPD*%
G01*
G04 APERTURE LIST*
%TA.AperFunction,ComponentPad*%
%ADD10R,1.600000X1.600000*%
%TD*%
%TA.AperFunction,ComponentPad*%
%ADD11O,1.600000X1.600000*%
%TD*%
%TA.AperFunction,ComponentPad*%
%ADD12C,1.222000*%
%TD*%
%TA.AperFunction,ComponentPad*%
%ADD13R,1.222000X1.222000*%
%TD*%
%TA.AperFunction,ComponentPad*%
%ADD14C,1.600000*%
%TD*%
%TA.AperFunction,ComponentPad*%
%ADD15R,1.500000X1.050000*%
%TD*%
%TA.AperFunction,ComponentPad*%
%ADD16O,1.500000X1.050000*%
%TD*%
%TA.AperFunction,ComponentPad*%
%ADD17C,2.600000*%
%TD*%
%TA.AperFunction,ComponentPad*%
%ADD18C,1.752600*%
%TD*%
%TA.AperFunction,ComponentPad*%
%ADD19O,1.700000X1.700000*%
%TD*%
%TA.AperFunction,ComponentPad*%
%ADD20R,1.700000X1.700000*%
%TD*%
%TA.AperFunction,ComponentPad*%
%ADD21O,2.200000X2.200000*%
%TD*%
%TA.AperFunction,ComponentPad*%
%ADD22R,2.200000X2.200000*%
%TD*%
%TA.AperFunction,ComponentPad*%
%ADD23C,2.400000*%
%TD*%
%TA.AperFunction,Conductor*%
%ADD24C,0.300000*%
%TD*%
%ADD25C,0.350000*%
G04 APERTURE END LIST*
D10*
%TO.P,U2,1,GND*%
%TO.N,GND*%
X89800000Y-93800000D03*
D11*
%TO.P,U2,2,TR*%
%TO.N,Net-(U2-THR)*%
X89800000Y-91260000D03*
%TO.P,U2,3,Q*%
%TO.N,/CLK*%
X89800000Y-88720000D03*
%TO.P,U2,4,R*%
%TO.N,+12V*%
X89800000Y-86180000D03*
%TO.P,U2,5,CV*%
%TO.N,Net-(U2-CV)*%
X82180000Y-86180000D03*
%TO.P,U2,6,THR*%
%TO.N,Net-(U2-THR)*%
X82180000Y-88720000D03*
%TO.P,U2,7,DIS*%
%TO.N,Net-(U2-DIS)*%
X82180000Y-91260000D03*
%TO.P,U2,8,VCC*%
%TO.N,+12V*%
X82180000Y-93800000D03*
%TD*%
D10*
%TO.P,U1,1,Ilim*%
%TO.N,Net-(U1-Ilim)*%
X85300000Y-73800000D03*
D11*
%TO.P,U1,2,Vin*%
%TO.N,+12V*%
X85300000Y-71260000D03*
%TO.P,U1,3,SW1*%
%TO.N,Net-(D4-A)*%
X85300000Y-68720000D03*
%TO.P,U1,4,SW2*%
%TO.N,GND*%
X85300000Y-66180000D03*
%TO.P,U1,5,GND*%
X77680000Y-66180000D03*
%TO.P,U1,6,A0*%
X77680000Y-68720000D03*
%TO.P,U1,7,SET*%
%TO.N,unconnected-(U1-SET-Pad7)*%
X77680000Y-71260000D03*
%TO.P,U1,8,FB*%
%TO.N,Net-(U1-FB)*%
X77680000Y-73800000D03*
%TD*%
D12*
%TO.P,RV2,3,3*%
%TO.N,Net-(U2-DIS)*%
X69000000Y-90960000D03*
%TO.P,RV2,2,2*%
%TO.N,Net-(U2-THR)*%
X66460000Y-93500000D03*
D13*
%TO.P,RV2,1,1*%
X69000000Y-96040000D03*
%TD*%
%TO.P,RV1,1,1*%
%TO.N,Net-(R4-Pad2)*%
X69000000Y-85500000D03*
D12*
%TO.P,RV1,2,2*%
%TO.N,GND*%
X66460000Y-82960000D03*
%TO.P,RV1,3,3*%
X69000000Y-80420000D03*
%TD*%
D11*
%TO.P,R5,2*%
%TO.N,Net-(U2-DIS)*%
X99500000Y-93810000D03*
D14*
%TO.P,R5,1*%
%TO.N,+12V*%
X99500000Y-86190000D03*
%TD*%
D11*
%TO.P,R4,2*%
%TO.N,Net-(R4-Pad2)*%
X78690000Y-79500000D03*
D14*
%TO.P,R4,1*%
%TO.N,Net-(U1-FB)*%
X86310000Y-79500000D03*
%TD*%
D11*
%TO.P,R3,2*%
%TO.N,Net-(D1-K)*%
X97310000Y-69000000D03*
D14*
%TO.P,R3,1*%
%TO.N,Net-(U1-FB)*%
X89690000Y-69000000D03*
%TD*%
%TO.P,R2,1*%
%TO.N,+12V*%
X72000000Y-67190000D03*
D11*
%TO.P,R2,2*%
%TO.N,Net-(U1-Ilim)*%
X72000000Y-74810000D03*
%TD*%
D14*
%TO.P,R1,1*%
%TO.N,Net-(D1-K)*%
X126500000Y-75500000D03*
D11*
%TO.P,R1,2*%
%TO.N,Net-(Q1-B)*%
X118880000Y-75500000D03*
%TD*%
D15*
%TO.P,Q4,1,E*%
%TO.N,GND*%
X118500000Y-90540000D03*
D16*
%TO.P,Q4,2,B*%
%TO.N,/CLK*%
X118500000Y-89270000D03*
%TO.P,Q4,3,C*%
%TO.N,Net-(Q1-B)*%
X118500000Y-88000000D03*
%TD*%
D15*
%TO.P,Q3,1,E*%
%TO.N,Net-(Q2-E)*%
X127000000Y-90540000D03*
D16*
%TO.P,Q3,2,B*%
%TO.N,Net-(Q1-B)*%
X127000000Y-89270000D03*
%TO.P,Q3,3,C*%
%TO.N,GND*%
X127000000Y-88000000D03*
%TD*%
D15*
%TO.P,Q2,1,E*%
%TO.N,Net-(Q2-E)*%
X127000000Y-83770000D03*
D16*
%TO.P,Q2,2,B*%
%TO.N,Net-(Q1-E)*%
X127000000Y-82500000D03*
%TO.P,Q2,3,C*%
%TO.N,Net-(D1-K)*%
X127000000Y-81230000D03*
%TD*%
D15*
%TO.P,Q1,1,E*%
%TO.N,Net-(Q1-E)*%
X118500000Y-83540000D03*
D16*
%TO.P,Q1,2,B*%
%TO.N,Net-(Q1-B)*%
X118500000Y-82270000D03*
%TO.P,Q1,3,C*%
%TO.N,Net-(D1-K)*%
X118500000Y-81000000D03*
%TD*%
D17*
%TO.P,L1,2,2*%
%TO.N,Net-(D4-A)*%
X95500000Y-58000000D03*
%TO.P,L1,1,1*%
%TO.N,+12V*%
X90500000Y-58000000D03*
%TD*%
D18*
%TO.P,J4,1,1*%
%TO.N,Vdrive*%
X135500000Y-70920000D03*
%TO.P,J4,2,2*%
X135500000Y-76000000D03*
%TD*%
%TO.P,J3,1,1*%
%TO.N,Vdrive*%
X135500000Y-59420000D03*
%TO.P,J3,2,2*%
X135500000Y-64500000D03*
%TD*%
D19*
%TO.P,J2,2,Pin_2*%
%TO.N,GND*%
X108000000Y-88235000D03*
D20*
%TO.P,J2,1,Pin_1*%
%TO.N,/CLK*%
X108000000Y-90775000D03*
%TD*%
D18*
%TO.P,J1,2,2*%
%TO.N,GND*%
X61597301Y-75073400D03*
%TO.P,J1,1,1*%
%TO.N,+VDC*%
X61597301Y-69993400D03*
%TD*%
D21*
%TO.P,D4,2,A*%
%TO.N,Net-(D4-A)*%
X102190000Y-66500000D03*
D22*
%TO.P,D4,1,K*%
%TO.N,Net-(D2-A)*%
X109810000Y-66500000D03*
%TD*%
%TO.P,D3,1,K*%
%TO.N,+12V*%
X64500000Y-56690000D03*
D21*
%TO.P,D3,2,A*%
%TO.N,+VDC*%
X64500000Y-64310000D03*
%TD*%
D22*
%TO.P,D2,1,K*%
%TO.N,Net-(D1-A)*%
X102000000Y-61000000D03*
D21*
%TO.P,D2,2,A*%
%TO.N,Net-(D2-A)*%
X109620000Y-61000000D03*
%TD*%
%TO.P,D1,2,A*%
%TO.N,Net-(D1-A)*%
X109810000Y-54500000D03*
D22*
%TO.P,D1,1,K*%
%TO.N,Net-(D1-K)*%
X102190000Y-54500000D03*
%TD*%
D14*
%TO.P,C10,2*%
%TO.N,GND*%
X77500000Y-91500000D03*
%TO.P,C10,1*%
%TO.N,Net-(U2-THR)*%
X77500000Y-96500000D03*
%TD*%
%TO.P,C9,2*%
%TO.N,GND*%
X94500000Y-93000000D03*
%TO.P,C9,1*%
%TO.N,Net-(U2-CV)*%
X94500000Y-88000000D03*
%TD*%
%TO.P,C8,2*%
%TO.N,GND*%
X77500000Y-88500000D03*
%TO.P,C8,1*%
%TO.N,+12V*%
X77500000Y-83500000D03*
%TD*%
D23*
%TO.P,C7,2*%
%TO.N,GND*%
X120000000Y-68000000D03*
%TO.P,C7,1*%
%TO.N,Net-(D1-K)*%
X120000000Y-53000000D03*
%TD*%
D14*
%TO.P,C6,1*%
%TO.N,Net-(Q2-E)*%
X135500000Y-86500000D03*
%TO.P,C6,2*%
%TO.N,Vdrive*%
X135500000Y-84000000D03*
%TD*%
%TO.P,C5,2*%
%TO.N,GND*%
X113500000Y-75500000D03*
%TO.P,C5,1*%
%TO.N,Net-(D2-A)*%
X108500000Y-75500000D03*
%TD*%
%TO.P,C4,1*%
%TO.N,+12V*%
X83500000Y-56000000D03*
%TO.P,C4,2*%
%TO.N,GND*%
X83500000Y-61000000D03*
%TD*%
%TO.P,C3,1*%
%TO.N,+12V*%
X78000000Y-56000000D03*
%TO.P,C3,2*%
%TO.N,GND*%
X78000000Y-61000000D03*
%TD*%
%TO.P,C2,1*%
%TO.N,+12V*%
X71000000Y-56750000D03*
%TO.P,C2,2*%
%TO.N,GND*%
X71000000Y-60250000D03*
%TD*%
%TO.P,C1,2*%
%TO.N,Net-(D1-A)*%
X99000000Y-76000000D03*
%TO.P,C1,1*%
%TO.N,Net-(D4-A)*%
X104000000Y-76000000D03*
%TD*%
D24*
%TO.N,Net-(R4-Pad2)*%
X76500000Y-79500000D02*
X78690000Y-79500000D01*
X69000000Y-85500000D02*
X70500000Y-85500000D01*
X70500000Y-85500000D02*
X76500000Y-79500000D01*
%TO.N,Net-(U1-Ilim)*%
X83490001Y-75609999D02*
X85300000Y-73800000D01*
X72799999Y-75609999D02*
X83490001Y-75609999D01*
X72000000Y-74810000D02*
X72799999Y-75609999D01*
%TO.N,Net-(U2-DIS)*%
X86920000Y-96000000D02*
X82180000Y-91260000D01*
X97310000Y-96000000D02*
X86920000Y-96000000D01*
X99500000Y-93810000D02*
X97310000Y-96000000D01*
%TO.N,Net-(D1-A)*%
X100000000Y-75000000D02*
X99000000Y-76000000D01*
X100000000Y-63000000D02*
X100000000Y-75000000D01*
X102000000Y-61000000D02*
X100000000Y-63000000D01*
%TO.N,Net-(D1-K)*%
X98000000Y-68310000D02*
X97310000Y-69000000D01*
X98000000Y-58690000D02*
X98000000Y-68310000D01*
X102190000Y-54500000D02*
X98000000Y-58690000D01*
%TD*%
%TA.AperFunction,Conductor*%
%TO.N,GND*%
G36*
X77930000Y-68404314D02*
G01*
X77925606Y-68399920D01*
X77834394Y-68347259D01*
X77732661Y-68320000D01*
X77627339Y-68320000D01*
X77525606Y-68347259D01*
X77434394Y-68399920D01*
X77430000Y-68404314D01*
X77430000Y-66495686D01*
X77434394Y-66500080D01*
X77525606Y-66552741D01*
X77627339Y-66580000D01*
X77732661Y-66580000D01*
X77834394Y-66552741D01*
X77925606Y-66500080D01*
X77930000Y-66495686D01*
X77930000Y-68404314D01*
G37*
%TD.AperFunction*%
%TA.AperFunction,Conductor*%
G36*
X139742539Y-49220185D02*
G01*
X139788294Y-49272989D01*
X139799500Y-49324500D01*
X139799500Y-98675500D01*
X139779815Y-98742539D01*
X139727011Y-98788294D01*
X139675500Y-98799500D01*
X58324500Y-98799500D01*
X58257461Y-98779815D01*
X58211706Y-98727011D01*
X58200500Y-98675500D01*
X58200500Y-95893399D01*
X59645500Y-95893399D01*
X59645500Y-96106600D01*
X59678853Y-96317180D01*
X59678853Y-96317183D01*
X59744734Y-96519944D01*
X59744736Y-96519947D01*
X59841528Y-96709913D01*
X59966846Y-96882397D01*
X60117603Y-97033154D01*
X60290087Y-97158472D01*
X60480053Y-97255264D01*
X60480055Y-97255265D01*
X60669182Y-97316715D01*
X60682821Y-97321147D01*
X60893399Y-97354500D01*
X60893400Y-97354500D01*
X61106600Y-97354500D01*
X61106601Y-97354500D01*
X61317179Y-97321147D01*
X61317182Y-97321146D01*
X61317183Y-97321146D01*
X61519944Y-97255265D01*
X61519944Y-97255264D01*
X61519947Y-97255264D01*
X61709913Y-97158472D01*
X61882397Y-97033154D01*
X62033154Y-96882397D01*
X62158472Y-96709913D01*
X62255264Y-96519947D01*
X62321147Y-96317179D01*
X62354500Y-96106601D01*
X62354500Y-95893399D01*
X62321147Y-95682821D01*
X62321146Y-95682817D01*
X62321146Y-95682816D01*
X62255265Y-95480055D01*
X62255263Y-95480052D01*
X62210532Y-95392261D01*
X62200405Y-95372386D01*
X67688500Y-95372386D01*
X67688500Y-96707613D01*
X67694913Y-96778192D01*
X67694913Y-96778194D01*
X67694914Y-96778196D01*
X67745522Y-96940606D01*
X67801469Y-97033154D01*
X67833530Y-97086188D01*
X67953811Y-97206469D01*
X67953813Y-97206470D01*
X67953815Y-97206472D01*
X68099394Y-97294478D01*
X68261804Y-97345086D01*
X68332384Y-97351500D01*
X68332387Y-97351500D01*
X69667613Y-97351500D01*
X69667616Y-97351500D01*
X69738196Y-97345086D01*
X69900606Y-97294478D01*
X70046185Y-97206472D01*
X70166472Y-97086185D01*
X70254478Y-96940606D01*
X70305086Y-96778196D01*
X70311500Y-96707616D01*
X70311500Y-96499994D01*
X75994357Y-96499994D01*
X75994357Y-96500005D01*
X76014890Y-96747812D01*
X76014892Y-96747824D01*
X76075936Y-96988881D01*
X76175826Y-97216606D01*
X76311833Y-97424782D01*
X76311836Y-97424785D01*
X76480256Y-97607738D01*
X76676491Y-97760474D01*
X76895190Y-97878828D01*
X77130386Y-97959571D01*
X77375665Y-98000500D01*
X77624335Y-98000500D01*
X77869614Y-97959571D01*
X78104810Y-97878828D01*
X78323509Y-97760474D01*
X78519744Y-97607738D01*
X78688164Y-97424785D01*
X78824173Y-97216607D01*
X78924063Y-96988881D01*
X78985108Y-96747821D01*
X78988249Y-96709913D01*
X79005643Y-96500005D01*
X79005643Y-96499994D01*
X78985109Y-96252187D01*
X78985107Y-96252175D01*
X78924063Y-96011118D01*
X78824173Y-95783393D01*
X78688166Y-95575217D01*
X78600560Y-95480052D01*
X78519744Y-95392262D01*
X78323509Y-95239526D01*
X78323507Y-95239525D01*
X78323506Y-95239524D01*
X78104811Y-95121172D01*
X78104802Y-95121169D01*
X77869616Y-95040429D01*
X77624335Y-94999500D01*
X77375665Y-94999500D01*
X77130383Y-95040429D01*
X76895197Y-95121169D01*
X76895188Y-95121172D01*
X76676493Y-95239524D01*
X76480257Y-95392261D01*
X76311833Y-95575217D01*
X76175826Y-95783393D01*
X76075936Y-96011118D01*
X76014892Y-96252175D01*
X76014890Y-96252187D01*
X75994357Y-96499994D01*
X70311500Y-96499994D01*
X70311500Y-95372384D01*
X70305086Y-95301804D01*
X70254478Y-95139394D01*
X70166472Y-94993815D01*
X70166470Y-94993813D01*
X70166469Y-94993811D01*
X70046188Y-94873530D01*
X69900606Y-94785522D01*
X69738196Y-94734914D01*
X69738194Y-94734913D01*
X69738192Y-94734913D01*
X69688778Y-94730423D01*
X69667616Y-94728500D01*
X68332384Y-94728500D01*
X68313145Y-94730248D01*
X68261807Y-94734913D01*
X68099393Y-94785522D01*
X67953811Y-94873530D01*
X67833530Y-94993811D01*
X67745522Y-95139393D01*
X67694913Y-95301807D01*
X67688500Y-95372386D01*
X62200405Y-95372386D01*
X62158472Y-95290087D01*
X62033154Y-95117603D01*
X61882397Y-94966846D01*
X61709913Y-94841528D01*
X61519947Y-94744736D01*
X61519944Y-94744734D01*
X61317181Y-94678853D01*
X61176793Y-94656617D01*
X61106601Y-94645500D01*
X60893399Y-94645500D01*
X60823206Y-94656617D01*
X60682819Y-94678853D01*
X60682816Y-94678853D01*
X60480055Y-94744734D01*
X60480052Y-94744736D01*
X60290086Y-94841528D01*
X60117601Y-94966847D01*
X59966847Y-95117601D01*
X59841528Y-95290086D01*
X59744736Y-95480052D01*
X59744734Y-95480055D01*
X59678853Y-95682816D01*
X59678853Y-95682819D01*
X59645500Y-95893399D01*
X58200500Y-95893399D01*
X58200500Y-93499999D01*
X65143490Y-93499999D01*
X65143490Y-93500000D01*
X65163490Y-93728605D01*
X65163492Y-93728615D01*
X65222882Y-93950265D01*
X65222884Y-93950269D01*
X65222885Y-93950273D01*
X65224807Y-93954394D01*
X65319867Y-94158252D01*
X65319868Y-94158254D01*
X65319869Y-94158255D01*
X65451495Y-94346236D01*
X65613764Y-94508505D01*
X65801745Y-94640131D01*
X66009727Y-94737115D01*
X66009733Y-94737116D01*
X66009734Y-94737117D01*
X66038169Y-94744736D01*
X66231390Y-94796509D01*
X66414278Y-94812509D01*
X66459999Y-94816510D01*
X66460000Y-94816510D01*
X66460001Y-94816510D01*
X66498101Y-94813176D01*
X66688610Y-94796509D01*
X66910273Y-94737115D01*
X67118255Y-94640131D01*
X67306236Y-94508505D01*
X67468505Y-94346236D01*
X67600131Y-94158255D01*
X67697115Y-93950273D01*
X67756509Y-93728610D01*
X67776510Y-93500000D01*
X67756509Y-93271390D01*
X67697115Y-93049727D01*
X67600131Y-92841745D01*
X67468505Y-92653764D01*
X67306236Y-92491495D01*
X67118255Y-92359869D01*
X67118254Y-92359868D01*
X67118252Y-92359867D01*
X67008088Y-92308497D01*
X66910273Y-92262885D01*
X66910269Y-92262884D01*
X66910265Y-92262882D01*
X66688615Y-92203492D01*
X66688605Y-92203490D01*
X66460001Y-92183490D01*
X66459999Y-92183490D01*
X66231394Y-92203490D01*
X66231384Y-92203492D01*
X66009734Y-92262882D01*
X66009725Y-92262886D01*
X65801747Y-92359867D01*
X65789157Y-92368683D01*
X65613764Y-92491495D01*
X65613762Y-92491496D01*
X65613759Y-92491499D01*
X65451499Y-92653759D01*
X65451496Y-92653762D01*
X65451495Y-92653764D01*
X65417537Y-92702261D01*
X65319867Y-92841747D01*
X65222886Y-93049725D01*
X65222882Y-93049734D01*
X65163492Y-93271384D01*
X65163490Y-93271394D01*
X65143490Y-93499999D01*
X58200500Y-93499999D01*
X58200500Y-90959999D01*
X67683490Y-90959999D01*
X67683490Y-90960000D01*
X67703490Y-91188605D01*
X67703492Y-91188615D01*
X67762882Y-91410265D01*
X67762884Y-91410269D01*
X67762885Y-91410273D01*
X67804812Y-91500185D01*
X67859867Y-91618252D01*
X67859868Y-91618254D01*
X67859869Y-91618255D01*
X67991495Y-91806236D01*
X68153764Y-91968505D01*
X68341745Y-92100131D01*
X68549727Y-92197115D01*
X68549733Y-92197116D01*
X68549734Y-92197117D01*
X68573526Y-92203492D01*
X68771390Y-92256509D01*
X68954278Y-92272509D01*
X68999999Y-92276510D01*
X69000000Y-92276510D01*
X69000001Y-92276510D01*
X69038101Y-92273176D01*
X69228610Y-92256509D01*
X69450273Y-92197115D01*
X69658255Y-92100131D01*
X69846236Y-91968505D01*
X70008505Y-91806236D01*
X70140131Y-91618255D01*
X70195276Y-91499997D01*
X76195034Y-91499997D01*
X76195034Y-91500002D01*
X76214858Y-91726599D01*
X76214860Y-91726610D01*
X76273730Y-91946317D01*
X76273735Y-91946331D01*
X76369863Y-92152478D01*
X76420974Y-92225472D01*
X77100000Y-91546446D01*
X77100000Y-91552661D01*
X77127259Y-91654394D01*
X77179920Y-91745606D01*
X77254394Y-91820080D01*
X77345606Y-91872741D01*
X77447339Y-91900000D01*
X77453553Y-91900000D01*
X76774526Y-92579025D01*
X76847513Y-92630132D01*
X76847521Y-92630136D01*
X77053668Y-92726264D01*
X77053682Y-92726269D01*
X77273389Y-92785139D01*
X77273400Y-92785141D01*
X77499998Y-92804966D01*
X77500002Y-92804966D01*
X77726599Y-92785141D01*
X77726610Y-92785139D01*
X77946317Y-92726269D01*
X77946331Y-92726264D01*
X78152478Y-92630136D01*
X78225471Y-92579024D01*
X77546447Y-91900000D01*
X77552661Y-91900000D01*
X77654394Y-91872741D01*
X77745606Y-91820080D01*
X77820080Y-91745606D01*
X77872741Y-91654394D01*
X77900000Y-91552661D01*
X77900000Y-91546447D01*
X78579024Y-92225471D01*
X78630136Y-92152478D01*
X78726264Y-91946331D01*
X78726269Y-91946317D01*
X78785139Y-91726610D01*
X78785141Y-91726599D01*
X78804966Y-91500002D01*
X78804966Y-91499997D01*
X78785141Y-91273400D01*
X78785139Y-91273389D01*
X78726269Y-91053682D01*
X78726264Y-91053668D01*
X78630136Y-90847521D01*
X78630132Y-90847513D01*
X78579025Y-90774526D01*
X77900000Y-91453551D01*
X77900000Y-91447339D01*
X77872741Y-91345606D01*
X77820080Y-91254394D01*
X77745606Y-91179920D01*
X77654394Y-91127259D01*
X77552661Y-91100000D01*
X77546448Y-91100000D01*
X78225472Y-90420974D01*
X78152478Y-90369863D01*
X77946331Y-90273735D01*
X77946317Y-90273730D01*
X77726610Y-90214860D01*
X77726599Y-90214858D01*
X77500002Y-90195034D01*
X77499998Y-90195034D01*
X77273400Y-90214858D01*
X77273389Y-90214860D01*
X77053682Y-90273730D01*
X77053673Y-90273734D01*
X76847516Y-90369866D01*
X76847512Y-90369868D01*
X76774526Y-90420973D01*
X76774526Y-90420974D01*
X77453553Y-91100000D01*
X77447339Y-91100000D01*
X77345606Y-91127259D01*
X77254394Y-91179920D01*
X77179920Y-91254394D01*
X77127259Y-91345606D01*
X77100000Y-91447339D01*
X77100000Y-91453552D01*
X76420974Y-90774526D01*
X76420973Y-90774526D01*
X76369868Y-90847512D01*
X76369866Y-90847516D01*
X76273734Y-91053673D01*
X76273730Y-91053682D01*
X76214860Y-91273389D01*
X76214858Y-91273400D01*
X76195034Y-91499997D01*
X70195276Y-91499997D01*
X70237115Y-91410273D01*
X70296509Y-91188610D01*
X70316510Y-90960000D01*
X70296509Y-90731390D01*
X70237115Y-90509727D01*
X70145698Y-90313683D01*
X70140132Y-90301747D01*
X70120517Y-90273734D01*
X70008505Y-90113764D01*
X69846236Y-89951495D01*
X69658255Y-89819869D01*
X69658254Y-89819868D01*
X69658252Y-89819867D01*
X69487900Y-89740431D01*
X69450273Y-89722885D01*
X69450269Y-89722884D01*
X69450265Y-89722882D01*
X69228615Y-89663492D01*
X69228605Y-89663490D01*
X69000001Y-89643490D01*
X68999999Y-89643490D01*
X68771394Y-89663490D01*
X68771384Y-89663492D01*
X68549734Y-89722882D01*
X68549727Y-89722884D01*
X68549727Y-89722885D01*
X68542481Y-89726264D01*
X68341747Y-89819867D01*
X68244724Y-89887804D01*
X68153764Y-89951495D01*
X68153762Y-89951496D01*
X68153759Y-89951499D01*
X67991499Y-90113759D01*
X67991496Y-90113762D01*
X67991495Y-90113764D01*
X67955619Y-90165000D01*
X67859867Y-90301747D01*
X67762886Y-90509725D01*
X67762882Y-90509734D01*
X67703492Y-90731384D01*
X67703490Y-90731394D01*
X67683490Y-90959999D01*
X58200500Y-90959999D01*
X58200500Y-88499997D01*
X76195034Y-88499997D01*
X76195034Y-88500002D01*
X76214858Y-88726599D01*
X76214860Y-88726610D01*
X76273730Y-88946317D01*
X76273735Y-88946331D01*
X76369863Y-89152478D01*
X76420974Y-89225472D01*
X77100000Y-88546446D01*
X77100000Y-88552661D01*
X77127259Y-88654394D01*
X77179920Y-88745606D01*
X77254394Y-88820080D01*
X77345606Y-88872741D01*
X77447339Y-88900000D01*
X77453553Y-88900000D01*
X76774526Y-89579025D01*
X76847513Y-89630132D01*
X76847521Y-89630136D01*
X77053668Y-89726264D01*
X77053682Y-89726269D01*
X77273389Y-89785139D01*
X77273400Y-89785141D01*
X77499998Y-89804966D01*
X77500002Y-89804966D01*
X77726599Y-89785141D01*
X77726610Y-89785139D01*
X77946317Y-89726269D01*
X77946331Y-89726264D01*
X78152478Y-89630136D01*
X78225471Y-89579024D01*
X77546447Y-88900000D01*
X77552661Y-88900000D01*
X77654394Y-88872741D01*
X77745606Y-88820080D01*
X77820080Y-88745606D01*
X77872741Y-88654394D01*
X77900000Y-88552661D01*
X77900000Y-88546447D01*
X78579024Y-89225471D01*
X78630136Y-89152478D01*
X78726264Y-88946331D01*
X78726269Y-88946317D01*
X78785139Y-88726610D01*
X78785141Y-88726599D01*
X78804966Y-88500002D01*
X78804966Y-88499997D01*
X78785141Y-88273400D01*
X78785139Y-88273389D01*
X78726269Y-88053682D01*
X78726264Y-88053668D01*
X78630136Y-87847521D01*
X78630132Y-87847513D01*
X78579025Y-87774526D01*
X77900000Y-88453551D01*
X77900000Y-88447339D01*
X77872741Y-88345606D01*
X77820080Y-88254394D01*
X77745606Y-88179920D01*
X77654394Y-88127259D01*
X77552661Y-88100000D01*
X77546448Y-88100000D01*
X78225472Y-87420974D01*
X78152478Y-87369863D01*
X77946331Y-87273735D01*
X77946317Y-87273730D01*
X77726610Y-87214860D01*
X77726599Y-87214858D01*
X77500002Y-87195034D01*
X77499998Y-87195034D01*
X77273400Y-87214858D01*
X77273389Y-87214860D01*
X77053682Y-87273730D01*
X77053673Y-87273734D01*
X76847516Y-87369866D01*
X76847512Y-87369868D01*
X76774526Y-87420973D01*
X76774526Y-87420974D01*
X77453553Y-88100000D01*
X77447339Y-88100000D01*
X77345606Y-88127259D01*
X77254394Y-88179920D01*
X77179920Y-88254394D01*
X77127259Y-88345606D01*
X77100000Y-88447339D01*
X77100000Y-88453552D01*
X76420974Y-87774526D01*
X76420973Y-87774526D01*
X76369868Y-87847512D01*
X76369866Y-87847516D01*
X76273734Y-88053673D01*
X76273730Y-88053682D01*
X76214860Y-88273389D01*
X76214858Y-88273400D01*
X76195034Y-88499997D01*
X58200500Y-88499997D01*
X58200500Y-84832384D01*
X67688500Y-84832384D01*
X67688500Y-86167616D01*
X67689626Y-86180005D01*
X67694913Y-86238192D01*
X67694913Y-86238194D01*
X67694914Y-86238196D01*
X67745522Y-86400606D01*
X67830048Y-86540429D01*
X67833530Y-86546188D01*
X67953811Y-86666469D01*
X67953813Y-86666470D01*
X67953815Y-86666472D01*
X68099394Y-86754478D01*
X68261804Y-86805086D01*
X68332384Y-86811500D01*
X68332387Y-86811500D01*
X69667613Y-86811500D01*
X69667616Y-86811500D01*
X69738196Y-86805086D01*
X69900606Y-86754478D01*
X70046185Y-86666472D01*
X70166472Y-86546185D01*
X70248588Y-86410348D01*
X70300115Y-86363162D01*
X70354704Y-86350500D01*
X70583768Y-86350500D01*
X70583769Y-86350499D01*
X70638538Y-86339605D01*
X70748074Y-86317818D01*
X70748078Y-86317816D01*
X70748082Y-86317816D01*
X70793415Y-86299037D01*
X70902863Y-86253704D01*
X71013177Y-86179994D01*
X80674357Y-86179994D01*
X80674357Y-86180005D01*
X80694890Y-86427812D01*
X80694892Y-86427824D01*
X80755936Y-86668881D01*
X80855826Y-86896606D01*
X80991833Y-87104782D01*
X81024245Y-87139991D01*
X81160256Y-87287738D01*
X81243008Y-87352147D01*
X81283821Y-87408857D01*
X81287496Y-87478630D01*
X81252864Y-87539313D01*
X81243014Y-87547848D01*
X81184400Y-87593469D01*
X81160257Y-87612261D01*
X80991833Y-87795217D01*
X80855826Y-88003393D01*
X80755936Y-88231118D01*
X80694892Y-88472175D01*
X80694890Y-88472187D01*
X80674357Y-88719994D01*
X80674357Y-88720005D01*
X80694890Y-88967812D01*
X80694892Y-88967824D01*
X80755936Y-89208881D01*
X80855826Y-89436606D01*
X80991833Y-89644782D01*
X81009055Y-89663490D01*
X81160256Y-89827738D01*
X81243008Y-89892147D01*
X81283821Y-89948857D01*
X81287496Y-90018630D01*
X81252864Y-90079313D01*
X81243014Y-90087848D01*
X81209725Y-90113759D01*
X81160257Y-90152261D01*
X80991833Y-90335217D01*
X80855826Y-90543393D01*
X80755936Y-90771118D01*
X80694892Y-91012175D01*
X80694890Y-91012187D01*
X80674357Y-91259994D01*
X80674357Y-91260005D01*
X80694890Y-91507812D01*
X80694892Y-91507824D01*
X80755936Y-91748881D01*
X80855826Y-91976606D01*
X80991833Y-92184782D01*
X81003188Y-92197117D01*
X81160256Y-92367738D01*
X81243008Y-92432147D01*
X81283821Y-92488857D01*
X81287496Y-92558630D01*
X81252864Y-92619313D01*
X81243014Y-92627848D01*
X81219119Y-92646447D01*
X81160257Y-92692261D01*
X80991833Y-92875217D01*
X80855826Y-93083393D01*
X80755936Y-93311118D01*
X80694892Y-93552175D01*
X80694890Y-93552187D01*
X80674357Y-93799994D01*
X80674357Y-93800005D01*
X80694890Y-94047812D01*
X80694892Y-94047824D01*
X80755936Y-94288881D01*
X80855826Y-94516606D01*
X80991833Y-94724782D01*
X81003188Y-94737117D01*
X81160256Y-94907738D01*
X81356491Y-95060474D01*
X81374971Y-95070475D01*
X81502320Y-95139393D01*
X81575190Y-95178828D01*
X81810386Y-95259571D01*
X82055665Y-95300500D01*
X82304335Y-95300500D01*
X82549614Y-95259571D01*
X82784810Y-95178828D01*
X83003509Y-95060474D01*
X83199744Y-94907738D01*
X83368164Y-94724785D01*
X83504173Y-94516607D01*
X83604063Y-94288881D01*
X83631726Y-94179641D01*
X83667266Y-94119486D01*
X83729686Y-94088094D01*
X83799169Y-94095432D01*
X83839613Y-94122401D01*
X86377831Y-96660620D01*
X86377834Y-96660622D01*
X86377838Y-96660626D01*
X86517137Y-96753704D01*
X86594525Y-96785758D01*
X86594526Y-96785759D01*
X86626575Y-96799034D01*
X86671918Y-96817816D01*
X86836228Y-96850499D01*
X86836232Y-96850500D01*
X86836233Y-96850500D01*
X97393768Y-96850500D01*
X97393769Y-96850499D01*
X97448538Y-96839605D01*
X97558074Y-96817818D01*
X97558078Y-96817816D01*
X97558082Y-96817816D01*
X97603415Y-96799037D01*
X97712863Y-96753704D01*
X97852162Y-96660627D01*
X98619389Y-95893399D01*
X135645500Y-95893399D01*
X135645500Y-96106600D01*
X135678853Y-96317180D01*
X135678853Y-96317183D01*
X135744734Y-96519944D01*
X135744736Y-96519947D01*
X135841528Y-96709913D01*
X135966846Y-96882397D01*
X136117603Y-97033154D01*
X136290087Y-97158472D01*
X136480053Y-97255264D01*
X136480055Y-97255265D01*
X136669182Y-97316715D01*
X136682821Y-97321147D01*
X136893399Y-97354500D01*
X136893400Y-97354500D01*
X137106600Y-97354500D01*
X137106601Y-97354500D01*
X137317179Y-97321147D01*
X137317182Y-97321146D01*
X137317183Y-97321146D01*
X137519944Y-97255265D01*
X137519944Y-97255264D01*
X137519947Y-97255264D01*
X137709913Y-97158472D01*
X137882397Y-97033154D01*
X138033154Y-96882397D01*
X138158472Y-96709913D01*
X138255264Y-96519947D01*
X138321147Y-96317179D01*
X138354500Y-96106601D01*
X138354500Y-95893399D01*
X138321147Y-95682821D01*
X138321146Y-95682817D01*
X138321146Y-95682816D01*
X138255265Y-95480055D01*
X138255263Y-95480052D01*
X138210532Y-95392261D01*
X138158472Y-95290087D01*
X138033154Y-95117603D01*
X137882397Y-94966846D01*
X137709913Y-94841528D01*
X137519947Y-94744736D01*
X137519944Y-94744734D01*
X137317181Y-94678853D01*
X137176793Y-94656617D01*
X137106601Y-94645500D01*
X136893399Y-94645500D01*
X136823206Y-94656617D01*
X136682819Y-94678853D01*
X136682816Y-94678853D01*
X136480055Y-94744734D01*
X136480052Y-94744736D01*
X136290086Y-94841528D01*
X136117601Y-94966847D01*
X135966847Y-95117601D01*
X135841528Y-95290086D01*
X135744736Y-95480052D01*
X135744734Y-95480055D01*
X135678853Y-95682816D01*
X135678853Y-95682819D01*
X135645500Y-95893399D01*
X98619389Y-95893399D01*
X99181950Y-95330837D01*
X99243271Y-95297354D01*
X99290035Y-95296211D01*
X99375665Y-95310500D01*
X99375666Y-95310500D01*
X99624335Y-95310500D01*
X99869614Y-95269571D01*
X100104810Y-95188828D01*
X100323509Y-95070474D01*
X100519744Y-94917738D01*
X100688164Y-94734785D01*
X100824173Y-94526607D01*
X100924063Y-94298881D01*
X100985108Y-94057821D01*
X100985756Y-94050000D01*
X101005643Y-93810005D01*
X101005643Y-93809994D01*
X100985109Y-93562187D01*
X100985107Y-93562175D01*
X100924063Y-93321118D01*
X100824173Y-93093393D01*
X100688166Y-92885217D01*
X100648147Y-92841745D01*
X100519744Y-92702262D01*
X100323509Y-92549526D01*
X100323507Y-92549525D01*
X100323506Y-92549524D01*
X100104811Y-92431172D01*
X100104802Y-92431169D01*
X99869616Y-92350429D01*
X99624335Y-92309500D01*
X99375665Y-92309500D01*
X99130383Y-92350429D01*
X98895197Y-92431169D01*
X98895188Y-92431172D01*
X98676493Y-92549524D01*
X98480257Y-92702261D01*
X98311833Y-92885217D01*
X98175826Y-93093393D01*
X98075936Y-93321118D01*
X98014892Y-93562175D01*
X98014890Y-93562187D01*
X97994357Y-93809994D01*
X97994357Y-93810005D01*
X98012785Y-94032398D01*
X97998704Y-94100834D01*
X97976890Y-94130319D01*
X96994030Y-95113181D01*
X96932707Y-95146666D01*
X96906349Y-95149500D01*
X91060947Y-95149500D01*
X90993908Y-95129815D01*
X90948153Y-95077011D01*
X90938209Y-95007853D01*
X90961681Y-94951189D01*
X91043350Y-94842093D01*
X91043354Y-94842086D01*
X91093596Y-94707379D01*
X91093598Y-94707372D01*
X91099999Y-94647844D01*
X91100000Y-94647827D01*
X91100000Y-94050000D01*
X90115686Y-94050000D01*
X90120080Y-94045606D01*
X90172741Y-93954394D01*
X90200000Y-93852661D01*
X90200000Y-93747339D01*
X90172741Y-93645606D01*
X90120080Y-93554394D01*
X90115686Y-93550000D01*
X91100000Y-93550000D01*
X91100000Y-92999997D01*
X93195034Y-92999997D01*
X93195034Y-93000002D01*
X93214858Y-93226599D01*
X93214860Y-93226610D01*
X93273730Y-93446317D01*
X93273735Y-93446331D01*
X93369863Y-93652478D01*
X93420974Y-93725472D01*
X94100000Y-93046446D01*
X94100000Y-93052661D01*
X94127259Y-93154394D01*
X94179920Y-93245606D01*
X94254394Y-93320080D01*
X94345606Y-93372741D01*
X94447339Y-93400000D01*
X94453553Y-93400000D01*
X93774526Y-94079025D01*
X93847513Y-94130132D01*
X93847521Y-94130136D01*
X94053668Y-94226264D01*
X94053682Y-94226269D01*
X94273389Y-94285139D01*
X94273400Y-94285141D01*
X94499998Y-94304966D01*
X94500002Y-94304966D01*
X94726599Y-94285141D01*
X94726610Y-94285139D01*
X94946317Y-94226269D01*
X94946331Y-94226264D01*
X95152478Y-94130136D01*
X95225471Y-94079024D01*
X94546447Y-93400000D01*
X94552661Y-93400000D01*
X94654394Y-93372741D01*
X94745606Y-93320080D01*
X94820080Y-93245606D01*
X94872741Y-93154394D01*
X94900000Y-93052661D01*
X94900000Y-93046447D01*
X95579024Y-93725471D01*
X95630136Y-93652478D01*
X95726264Y-93446331D01*
X95726269Y-93446317D01*
X95785139Y-93226610D01*
X95785141Y-93226599D01*
X95804966Y-93000002D01*
X95804966Y-92999997D01*
X95785141Y-92773400D01*
X95785139Y-92773389D01*
X95726269Y-92553682D01*
X95726264Y-92553668D01*
X95630136Y-92347521D01*
X95630132Y-92347513D01*
X95579025Y-92274526D01*
X94900000Y-92953551D01*
X94900000Y-92947339D01*
X94872741Y-92845606D01*
X94820080Y-92754394D01*
X94745606Y-92679920D01*
X94654394Y-92627259D01*
X94552661Y-92600000D01*
X94546448Y-92600000D01*
X95225472Y-91920974D01*
X95152478Y-91869863D01*
X94946331Y-91773735D01*
X94946317Y-91773730D01*
X94726610Y-91714860D01*
X94726599Y-91714858D01*
X94500002Y-91695034D01*
X94499998Y-91695034D01*
X94273400Y-91714858D01*
X94273389Y-91714860D01*
X94053682Y-91773730D01*
X94053673Y-91773734D01*
X93847516Y-91869866D01*
X93847512Y-91869868D01*
X93774526Y-91920973D01*
X93774526Y-91920974D01*
X94453553Y-92600000D01*
X94447339Y-92600000D01*
X94345606Y-92627259D01*
X94254394Y-92679920D01*
X94179920Y-92754394D01*
X94127259Y-92845606D01*
X94100000Y-92947339D01*
X94100000Y-92953552D01*
X93420974Y-92274526D01*
X93420973Y-92274526D01*
X93369868Y-92347512D01*
X93369866Y-92347516D01*
X93273734Y-92553673D01*
X93273730Y-92553682D01*
X93214860Y-92773389D01*
X93214858Y-92773400D01*
X93195034Y-92999997D01*
X91100000Y-92999997D01*
X91100000Y-92952172D01*
X91099999Y-92952155D01*
X91093598Y-92892627D01*
X91093596Y-92892620D01*
X91043354Y-92757913D01*
X91043350Y-92757906D01*
X90957190Y-92642812D01*
X90957187Y-92642809D01*
X90835792Y-92551932D01*
X90793921Y-92495998D01*
X90788937Y-92426307D01*
X90818873Y-92368683D01*
X90819740Y-92367740D01*
X90819744Y-92367738D01*
X90988164Y-92184785D01*
X91124173Y-91976607D01*
X91224063Y-91748881D01*
X91285108Y-91507821D01*
X91285109Y-91507812D01*
X91305643Y-91260005D01*
X91305643Y-91259994D01*
X91285109Y-91012187D01*
X91285107Y-91012175D01*
X91224063Y-90771118D01*
X91124173Y-90543393D01*
X90988166Y-90335217D01*
X90964662Y-90309685D01*
X90819744Y-90152262D01*
X90736991Y-90087852D01*
X90696179Y-90031143D01*
X90692504Y-89961370D01*
X90727136Y-89900687D01*
X90736985Y-89892151D01*
X90767519Y-89868386D01*
X106449500Y-89868386D01*
X106449500Y-91681613D01*
X106455913Y-91752192D01*
X106455913Y-91752194D01*
X106455914Y-91752196D01*
X106506522Y-91914606D01*
X106544002Y-91976606D01*
X106594530Y-92060188D01*
X106714811Y-92180469D01*
X106714813Y-92180470D01*
X106714815Y-92180472D01*
X106860394Y-92268478D01*
X107022804Y-92319086D01*
X107093384Y-92325500D01*
X107093387Y-92325500D01*
X108906613Y-92325500D01*
X108906616Y-92325500D01*
X108977196Y-92319086D01*
X109139606Y-92268478D01*
X109285185Y-92180472D01*
X109405472Y-92060185D01*
X109493478Y-91914606D01*
X109544086Y-91752196D01*
X109550500Y-91681616D01*
X109550500Y-89868384D01*
X109544086Y-89797804D01*
X109493478Y-89635394D01*
X109405472Y-89489815D01*
X109405470Y-89489813D01*
X109405469Y-89489811D01*
X109285188Y-89369530D01*
X109285185Y-89369528D01*
X109139606Y-89281522D01*
X109139605Y-89281521D01*
X109139604Y-89281521D01*
X109117470Y-89274624D01*
X109059323Y-89235886D01*
X109031350Y-89171860D01*
X109042432Y-89102875D01*
X109052788Y-89085115D01*
X109173595Y-88912585D01*
X109173599Y-88912579D01*
X109273429Y-88698492D01*
X109273432Y-88698486D01*
X109330636Y-88485000D01*
X108433012Y-88485000D01*
X108465925Y-88427993D01*
X108500000Y-88300826D01*
X108500000Y-88169174D01*
X108465925Y-88042007D01*
X108433012Y-87985000D01*
X109330636Y-87985000D01*
X109330635Y-87984999D01*
X109308811Y-87903551D01*
X117049500Y-87903551D01*
X117049500Y-88096449D01*
X117054380Y-88127259D01*
X117079675Y-88286969D01*
X117079676Y-88286972D01*
X117099974Y-88349444D01*
X117139286Y-88470431D01*
X117194454Y-88578705D01*
X117207350Y-88647375D01*
X117194454Y-88691295D01*
X117139286Y-88799568D01*
X117079675Y-88983030D01*
X117063507Y-89085115D01*
X117049500Y-89173551D01*
X117049500Y-89366449D01*
X117051461Y-89378828D01*
X117079675Y-89556969D01*
X117079676Y-89556972D01*
X117134682Y-89726264D01*
X117139286Y-89740431D01*
X117226858Y-89912300D01*
X117229402Y-89916451D01*
X117228302Y-89917124D01*
X117249797Y-89977357D01*
X117250000Y-89984442D01*
X117250000Y-90290000D01*
X117553675Y-90290000D01*
X117620714Y-90309685D01*
X117626562Y-90313683D01*
X117632696Y-90318140D01*
X117632698Y-90318141D01*
X117804571Y-90405715D01*
X117988028Y-90465324D01*
X118125928Y-90487165D01*
X118125000Y-90490630D01*
X118125000Y-90589370D01*
X118150556Y-90684745D01*
X118199925Y-90770255D01*
X118219670Y-90790000D01*
X117250000Y-90790000D01*
X117250000Y-91112844D01*
X117256401Y-91172372D01*
X117256403Y-91172379D01*
X117306645Y-91307086D01*
X117306649Y-91307093D01*
X117392809Y-91422187D01*
X117392812Y-91422190D01*
X117507906Y-91508350D01*
X117507913Y-91508354D01*
X117642620Y-91558596D01*
X117642627Y-91558598D01*
X117702155Y-91564999D01*
X117702172Y-91565000D01*
X118250000Y-91565000D01*
X118250000Y-90820330D01*
X118269745Y-90840075D01*
X118355255Y-90889444D01*
X118450630Y-90915000D01*
X118549370Y-90915000D01*
X118644745Y-90889444D01*
X118730255Y-90840075D01*
X118750000Y-90820330D01*
X118750000Y-91565000D01*
X119297828Y-91565000D01*
X119297844Y-91564999D01*
X119357372Y-91558598D01*
X119357379Y-91558596D01*
X119492086Y-91508354D01*
X119492093Y-91508350D01*
X119607187Y-91422190D01*
X119607190Y-91422187D01*
X119693350Y-91307093D01*
X119693354Y-91307086D01*
X119743596Y-91172379D01*
X119743598Y-91172372D01*
X119749999Y-91112844D01*
X119750000Y-91112827D01*
X119750000Y-90790000D01*
X118780330Y-90790000D01*
X118800075Y-90770255D01*
X118849444Y-90684745D01*
X118875000Y-90589370D01*
X118875000Y-90490630D01*
X118874071Y-90487165D01*
X119011972Y-90465324D01*
X119195429Y-90405715D01*
X119367302Y-90318141D01*
X119373438Y-90313683D01*
X119439245Y-90290202D01*
X119446325Y-90290000D01*
X119750000Y-90290000D01*
X119750000Y-89984443D01*
X119769685Y-89917404D01*
X119772864Y-89912753D01*
X119773136Y-89912310D01*
X119773137Y-89912306D01*
X119773141Y-89912302D01*
X119860715Y-89740429D01*
X119920324Y-89556972D01*
X119950500Y-89366449D01*
X119950500Y-89173551D01*
X125549500Y-89173551D01*
X125549500Y-89366449D01*
X125551461Y-89378828D01*
X125579675Y-89556969D01*
X125579676Y-89556973D01*
X125607974Y-89644067D01*
X125609969Y-89713908D01*
X125608429Y-89719273D01*
X125606522Y-89725394D01*
X125555914Y-89887804D01*
X125555520Y-89892146D01*
X125549500Y-89958386D01*
X125549500Y-91121613D01*
X125555913Y-91192192D01*
X125555913Y-91192194D01*
X125555914Y-91192196D01*
X125606522Y-91354606D01*
X125694417Y-91500002D01*
X125694530Y-91500188D01*
X125814811Y-91620469D01*
X125814813Y-91620470D01*
X125814815Y-91620472D01*
X125960394Y-91708478D01*
X126122804Y-91759086D01*
X126193384Y-91765500D01*
X126193387Y-91765500D01*
X127806613Y-91765500D01*
X127806616Y-91765500D01*
X127877196Y-91759086D01*
X128039606Y-91708478D01*
X128185185Y-91620472D01*
X128305472Y-91500185D01*
X128393478Y-91354606D01*
X128444086Y-91192196D01*
X128450500Y-91121616D01*
X128450500Y-89958384D01*
X128444086Y-89887804D01*
X128393478Y-89725394D01*
X128393477Y-89725393D01*
X128391570Y-89719271D01*
X128390420Y-89649411D01*
X128392024Y-89644067D01*
X128420324Y-89556972D01*
X128450500Y-89366449D01*
X128450500Y-89173551D01*
X128420324Y-88983028D01*
X128360715Y-88799571D01*
X128273141Y-88627698D01*
X128237546Y-88578705D01*
X128187414Y-88509704D01*
X128163934Y-88443898D01*
X128173171Y-88389366D01*
X128210609Y-88298982D01*
X128210611Y-88298974D01*
X128220353Y-88250000D01*
X127946325Y-88250000D01*
X127879286Y-88230315D01*
X127873438Y-88226317D01*
X127867303Y-88221859D01*
X127695431Y-88134286D01*
X127695430Y-88134285D01*
X127695429Y-88134285D01*
X127511972Y-88074676D01*
X127511970Y-88074675D01*
X127511969Y-88074675D01*
X127374071Y-88052834D01*
X127375000Y-88049370D01*
X127375000Y-87950630D01*
X127349444Y-87855255D01*
X127300075Y-87769745D01*
X127280330Y-87750000D01*
X128220353Y-87750000D01*
X128210612Y-87701025D01*
X128210609Y-87701016D01*
X128133347Y-87514486D01*
X128133340Y-87514473D01*
X128021170Y-87346600D01*
X128021167Y-87346596D01*
X127878403Y-87203832D01*
X127878399Y-87203829D01*
X127710526Y-87091659D01*
X127710513Y-87091652D01*
X127523983Y-87014390D01*
X127523974Y-87014387D01*
X127325958Y-86975000D01*
X127250000Y-86975000D01*
X127250000Y-87719670D01*
X127230255Y-87699925D01*
X127144745Y-87650556D01*
X127049370Y-87625000D01*
X126950630Y-87625000D01*
X126855255Y-87650556D01*
X126769745Y-87699925D01*
X126750000Y-87719670D01*
X126750000Y-86975000D01*
X126674041Y-86975000D01*
X126476025Y-87014387D01*
X126476016Y-87014390D01*
X126289486Y-87091652D01*
X126289473Y-87091659D01*
X126121600Y-87203829D01*
X126121596Y-87203832D01*
X125978832Y-87346596D01*
X125978829Y-87346600D01*
X125866659Y-87514473D01*
X125866652Y-87514486D01*
X125789390Y-87701016D01*
X125789387Y-87701025D01*
X125779647Y-87750000D01*
X126719670Y-87750000D01*
X126699925Y-87769745D01*
X126650556Y-87855255D01*
X126625000Y-87950630D01*
X126625000Y-88049370D01*
X126625928Y-88052834D01*
X126488030Y-88074675D01*
X126304568Y-88134286D01*
X126132696Y-88221859D01*
X126126562Y-88226317D01*
X126060755Y-88249798D01*
X126053675Y-88250000D01*
X125779647Y-88250000D01*
X125789387Y-88298974D01*
X125789390Y-88298983D01*
X125826828Y-88389367D01*
X125834297Y-88458837D01*
X125812585Y-88509704D01*
X125726861Y-88627694D01*
X125639286Y-88799568D01*
X125579675Y-88983030D01*
X125563507Y-89085115D01*
X125549500Y-89173551D01*
X119950500Y-89173551D01*
X119920324Y-88983028D01*
X119860715Y-88799571D01*
X119805543Y-88691291D01*
X119792648Y-88622626D01*
X119805542Y-88578709D01*
X119860715Y-88470429D01*
X119920324Y-88286972D01*
X119950500Y-88096449D01*
X119950500Y-87903551D01*
X119920324Y-87713028D01*
X119860715Y-87529571D01*
X119773141Y-87357698D01*
X119659759Y-87201641D01*
X119523359Y-87065241D01*
X119367302Y-86951859D01*
X119195429Y-86864285D01*
X119011972Y-86804676D01*
X119011970Y-86804675D01*
X119011969Y-86804675D01*
X118865614Y-86781495D01*
X118821449Y-86774500D01*
X118178551Y-86774500D01*
X118142697Y-86780178D01*
X117988030Y-86804675D01*
X117804568Y-86864286D01*
X117632697Y-86951859D01*
X117546636Y-87014387D01*
X117476641Y-87065241D01*
X117476639Y-87065243D01*
X117476638Y-87065243D01*
X117340243Y-87201638D01*
X117340243Y-87201639D01*
X117340241Y-87201641D01*
X117329368Y-87216607D01*
X117226859Y-87357697D01*
X117139286Y-87529568D01*
X117079675Y-87713030D01*
X117058375Y-87847516D01*
X117049500Y-87903551D01*
X109308811Y-87903551D01*
X109273432Y-87771513D01*
X109273429Y-87771507D01*
X109173600Y-87557422D01*
X109173599Y-87557420D01*
X109038113Y-87363926D01*
X109038108Y-87363920D01*
X108871082Y-87196894D01*
X108677578Y-87061399D01*
X108463492Y-86961570D01*
X108463486Y-86961567D01*
X108250000Y-86904364D01*
X108250000Y-87801988D01*
X108192993Y-87769075D01*
X108065826Y-87735000D01*
X107934174Y-87735000D01*
X107807007Y-87769075D01*
X107750000Y-87801988D01*
X107750000Y-86904364D01*
X107749999Y-86904364D01*
X107536513Y-86961567D01*
X107536507Y-86961570D01*
X107322422Y-87061399D01*
X107322420Y-87061400D01*
X107128926Y-87196886D01*
X107128920Y-87196891D01*
X106961891Y-87363920D01*
X106961886Y-87363926D01*
X106826400Y-87557420D01*
X106826399Y-87557422D01*
X106726570Y-87771507D01*
X106726567Y-87771513D01*
X106669364Y-87984999D01*
X106669364Y-87985000D01*
X107566988Y-87985000D01*
X107534075Y-88042007D01*
X107500000Y-88169174D01*
X107500000Y-88300826D01*
X107534075Y-88427993D01*
X107566988Y-88485000D01*
X106669364Y-88485000D01*
X106726567Y-88698486D01*
X106726570Y-88698492D01*
X106826400Y-88912579D01*
X106826404Y-88912585D01*
X106947212Y-89085115D01*
X106969540Y-89151321D01*
X106952530Y-89219088D01*
X106901583Y-89266902D01*
X106882530Y-89274624D01*
X106860395Y-89281521D01*
X106714811Y-89369530D01*
X106594530Y-89489811D01*
X106506522Y-89635393D01*
X106455913Y-89797807D01*
X106449500Y-89868386D01*
X90767519Y-89868386D01*
X90819744Y-89827738D01*
X90988164Y-89644785D01*
X91124173Y-89436607D01*
X91224063Y-89208881D01*
X91285108Y-88967821D01*
X91288674Y-88924785D01*
X91305643Y-88720005D01*
X91305643Y-88719994D01*
X91285109Y-88472187D01*
X91285107Y-88472175D01*
X91224063Y-88231118D01*
X91124173Y-88003393D01*
X91121952Y-87999994D01*
X92994357Y-87999994D01*
X92994357Y-88000005D01*
X93014890Y-88247812D01*
X93014892Y-88247824D01*
X93075936Y-88488881D01*
X93175826Y-88716606D01*
X93311833Y-88924782D01*
X93331670Y-88946331D01*
X93480256Y-89107738D01*
X93676491Y-89260474D01*
X93715384Y-89281522D01*
X93872315Y-89366449D01*
X93895190Y-89378828D01*
X94130386Y-89459571D01*
X94375665Y-89500500D01*
X94624335Y-89500500D01*
X94869614Y-89459571D01*
X95104810Y-89378828D01*
X95323509Y-89260474D01*
X95519744Y-89107738D01*
X95688164Y-88924785D01*
X95824173Y-88716607D01*
X95924063Y-88488881D01*
X95985108Y-88247821D01*
X95986890Y-88226317D01*
X96005643Y-88000005D01*
X96005643Y-87999994D01*
X95985109Y-87752187D01*
X95985107Y-87752175D01*
X95924063Y-87511118D01*
X95824173Y-87283393D01*
X95688166Y-87075217D01*
X95666557Y-87051744D01*
X95519744Y-86892262D01*
X95323509Y-86739526D01*
X95323507Y-86739525D01*
X95323506Y-86739524D01*
X95104811Y-86621172D01*
X95104802Y-86621169D01*
X94869616Y-86540429D01*
X94624335Y-86499500D01*
X94375665Y-86499500D01*
X94130383Y-86540429D01*
X93895197Y-86621169D01*
X93895188Y-86621172D01*
X93676493Y-86739524D01*
X93480257Y-86892261D01*
X93311833Y-87075217D01*
X93175826Y-87283393D01*
X93075936Y-87511118D01*
X93014892Y-87752175D01*
X93014890Y-87752187D01*
X92994357Y-87999994D01*
X91121952Y-87999994D01*
X90988166Y-87795217D01*
X90948554Y-87752187D01*
X90819744Y-87612262D01*
X90736991Y-87547852D01*
X90696179Y-87491143D01*
X90692504Y-87421370D01*
X90727136Y-87360687D01*
X90736985Y-87352151D01*
X90819744Y-87287738D01*
X90988164Y-87104785D01*
X91124173Y-86896607D01*
X91224063Y-86668881D01*
X91285108Y-86427821D01*
X91294223Y-86317818D01*
X91304815Y-86189994D01*
X97994357Y-86189994D01*
X97994357Y-86190005D01*
X98014890Y-86437812D01*
X98014892Y-86437824D01*
X98075936Y-86678881D01*
X98175826Y-86906606D01*
X98311833Y-87114782D01*
X98311836Y-87114785D01*
X98480256Y-87297738D01*
X98676491Y-87450474D01*
X98676493Y-87450475D01*
X98874113Y-87557422D01*
X98895190Y-87568828D01*
X99130386Y-87649571D01*
X99375665Y-87690500D01*
X99624335Y-87690500D01*
X99869614Y-87649571D01*
X100104810Y-87568828D01*
X100323509Y-87450474D01*
X100519744Y-87297738D01*
X100688164Y-87114785D01*
X100824173Y-86906607D01*
X100924063Y-86678881D01*
X100985108Y-86437821D01*
X100985109Y-86437812D01*
X101005643Y-86190005D01*
X101005643Y-86189994D01*
X100985109Y-85942187D01*
X100985107Y-85942175D01*
X100924063Y-85701118D01*
X100824173Y-85473393D01*
X100688166Y-85265217D01*
X100591939Y-85160687D01*
X100519744Y-85082262D01*
X100323509Y-84929526D01*
X100323507Y-84929525D01*
X100323506Y-84929524D01*
X100104811Y-84811172D01*
X100104802Y-84811169D01*
X99869616Y-84730429D01*
X99624335Y-84689500D01*
X99375665Y-84689500D01*
X99130383Y-84730429D01*
X98895197Y-84811169D01*
X98895188Y-84811172D01*
X98676493Y-84929524D01*
X98480257Y-85082261D01*
X98311833Y-85265217D01*
X98175826Y-85473393D01*
X98075936Y-85701118D01*
X98014892Y-85942175D01*
X98014890Y-85942187D01*
X97994357Y-86189994D01*
X91304815Y-86189994D01*
X91305643Y-86180005D01*
X91305643Y-86179994D01*
X91285109Y-85932187D01*
X91285107Y-85932175D01*
X91224063Y-85691118D01*
X91124173Y-85463393D01*
X90988166Y-85255217D01*
X90966557Y-85231744D01*
X90819744Y-85072262D01*
X90623509Y-84919526D01*
X90623507Y-84919525D01*
X90623506Y-84919524D01*
X90404811Y-84801172D01*
X90404802Y-84801169D01*
X90169616Y-84720429D01*
X89924335Y-84679500D01*
X89675665Y-84679500D01*
X89430383Y-84720429D01*
X89195197Y-84801169D01*
X89195188Y-84801172D01*
X88976493Y-84919524D01*
X88780257Y-85072261D01*
X88611833Y-85255217D01*
X88475826Y-85463393D01*
X88375936Y-85691118D01*
X88314892Y-85932175D01*
X88314890Y-85932187D01*
X88294357Y-86179994D01*
X88294357Y-86180005D01*
X88314890Y-86427812D01*
X88314892Y-86427824D01*
X88375936Y-86668881D01*
X88475826Y-86896606D01*
X88611833Y-87104782D01*
X88644245Y-87139991D01*
X88780256Y-87287738D01*
X88863008Y-87352147D01*
X88903821Y-87408857D01*
X88907496Y-87478630D01*
X88872864Y-87539313D01*
X88863014Y-87547848D01*
X88804400Y-87593469D01*
X88780257Y-87612261D01*
X88611833Y-87795217D01*
X88475826Y-88003393D01*
X88375936Y-88231118D01*
X88314892Y-88472175D01*
X88314890Y-88472187D01*
X88294357Y-88719994D01*
X88294357Y-88720005D01*
X88314890Y-88967812D01*
X88314892Y-88967824D01*
X88375936Y-89208881D01*
X88475826Y-89436606D01*
X88611833Y-89644782D01*
X88629055Y-89663490D01*
X88780256Y-89827738D01*
X88863008Y-89892147D01*
X88903821Y-89948857D01*
X88907496Y-90018630D01*
X88872864Y-90079313D01*
X88863014Y-90087848D01*
X88829725Y-90113759D01*
X88780257Y-90152261D01*
X88611833Y-90335217D01*
X88475826Y-90543393D01*
X88375936Y-90771118D01*
X88314892Y-91012175D01*
X88314890Y-91012187D01*
X88294357Y-91259994D01*
X88294357Y-91260005D01*
X88314890Y-91507812D01*
X88314892Y-91507824D01*
X88375936Y-91748881D01*
X88475826Y-91976606D01*
X88611833Y-92184782D01*
X88781126Y-92368683D01*
X88812048Y-92431338D01*
X88804188Y-92500764D01*
X88764208Y-92551932D01*
X88642809Y-92642812D01*
X88556649Y-92757906D01*
X88556645Y-92757913D01*
X88506403Y-92892620D01*
X88506401Y-92892627D01*
X88500000Y-92952155D01*
X88500000Y-93550000D01*
X89484314Y-93550000D01*
X89479920Y-93554394D01*
X89427259Y-93645606D01*
X89400000Y-93747339D01*
X89400000Y-93852661D01*
X89427259Y-93954394D01*
X89479920Y-94045606D01*
X89484314Y-94050000D01*
X88500000Y-94050000D01*
X88500000Y-94647844D01*
X88506401Y-94707372D01*
X88506403Y-94707379D01*
X88556645Y-94842086D01*
X88556649Y-94842093D01*
X88638319Y-94951189D01*
X88662737Y-95016653D01*
X88647886Y-95084926D01*
X88598481Y-95134332D01*
X88539053Y-95149500D01*
X87323650Y-95149500D01*
X87256611Y-95129815D01*
X87235969Y-95113181D01*
X83703109Y-91580320D01*
X83669624Y-91518997D01*
X83667214Y-91482402D01*
X83677804Y-91354606D01*
X83685643Y-91260005D01*
X83685643Y-91259994D01*
X83665109Y-91012187D01*
X83665107Y-91012175D01*
X83604063Y-90771118D01*
X83504173Y-90543393D01*
X83368166Y-90335217D01*
X83344662Y-90309685D01*
X83199744Y-90152262D01*
X83116991Y-90087852D01*
X83076179Y-90031143D01*
X83072504Y-89961370D01*
X83107136Y-89900687D01*
X83116985Y-89892151D01*
X83199744Y-89827738D01*
X83368164Y-89644785D01*
X83504173Y-89436607D01*
X83604063Y-89208881D01*
X83665108Y-88967821D01*
X83668674Y-88924785D01*
X83685643Y-88720005D01*
X83685643Y-88719994D01*
X83665109Y-88472187D01*
X83665107Y-88472175D01*
X83604063Y-88231118D01*
X83504173Y-88003393D01*
X83368166Y-87795217D01*
X83328554Y-87752187D01*
X83199744Y-87612262D01*
X83116991Y-87547852D01*
X83076179Y-87491143D01*
X83072504Y-87421370D01*
X83107136Y-87360687D01*
X83116985Y-87352151D01*
X83199744Y-87287738D01*
X83368164Y-87104785D01*
X83504173Y-86896607D01*
X83604063Y-86668881D01*
X83665108Y-86427821D01*
X83674223Y-86317818D01*
X83685643Y-86180005D01*
X83685643Y-86179994D01*
X83665109Y-85932187D01*
X83665107Y-85932175D01*
X83604063Y-85691118D01*
X83504173Y-85463393D01*
X83368166Y-85255217D01*
X83346557Y-85231744D01*
X83199744Y-85072262D01*
X83003509Y-84919526D01*
X83003507Y-84919525D01*
X83003506Y-84919524D01*
X82784811Y-84801172D01*
X82784802Y-84801169D01*
X82549616Y-84720429D01*
X82304335Y-84679500D01*
X82055665Y-84679500D01*
X81810383Y-84720429D01*
X81575197Y-84801169D01*
X81575188Y-84801172D01*
X81356493Y-84919524D01*
X81160257Y-85072261D01*
X80991833Y-85255217D01*
X80855826Y-85463393D01*
X80755936Y-85691118D01*
X80694892Y-85932175D01*
X80694890Y-85932187D01*
X80674357Y-86179994D01*
X71013177Y-86179994D01*
X71042162Y-86160627D01*
X73702794Y-83499994D01*
X75994357Y-83499994D01*
X75994357Y-83500005D01*
X76014890Y-83747812D01*
X76014892Y-83747824D01*
X76075936Y-83988881D01*
X76175826Y-84216606D01*
X76311833Y-84424782D01*
X76311836Y-84424785D01*
X76480256Y-84607738D01*
X76676491Y-84760474D01*
X76895190Y-84878828D01*
X77130386Y-84959571D01*
X77375665Y-85000500D01*
X77624335Y-85000500D01*
X77869614Y-84959571D01*
X78104810Y-84878828D01*
X78323509Y-84760474D01*
X78519744Y-84607738D01*
X78688164Y-84424785D01*
X78689856Y-84422196D01*
X78734014Y-84354606D01*
X78824173Y-84216607D01*
X78924063Y-83988881D01*
X78985108Y-83747821D01*
X79005643Y-83500000D01*
X78994295Y-83363054D01*
X78985109Y-83252187D01*
X78985107Y-83252175D01*
X78924063Y-83011118D01*
X78824173Y-82783393D01*
X78688166Y-82575217D01*
X78618463Y-82499500D01*
X78519744Y-82392262D01*
X78323509Y-82239526D01*
X78323507Y-82239525D01*
X78323506Y-82239524D01*
X78104811Y-82121172D01*
X78104802Y-82121169D01*
X77869616Y-82040429D01*
X77624335Y-81999500D01*
X77375665Y-81999500D01*
X77130383Y-82040429D01*
X76895197Y-82121169D01*
X76895188Y-82121172D01*
X76676493Y-82239524D01*
X76480257Y-82392261D01*
X76311833Y-82575217D01*
X76175826Y-82783393D01*
X76075936Y-83011118D01*
X76014892Y-83252175D01*
X76014890Y-83252187D01*
X75994357Y-83499994D01*
X73702794Y-83499994D01*
X76815969Y-80386818D01*
X76877292Y-80353334D01*
X76903650Y-80350500D01*
X77386198Y-80350500D01*
X77453237Y-80370185D01*
X77490004Y-80406675D01*
X77501836Y-80424785D01*
X77670256Y-80607738D01*
X77866491Y-80760474D01*
X78085190Y-80878828D01*
X78320386Y-80959571D01*
X78565665Y-81000500D01*
X78814335Y-81000500D01*
X79059614Y-80959571D01*
X79294810Y-80878828D01*
X79513509Y-80760474D01*
X79709744Y-80607738D01*
X79878164Y-80424785D01*
X80014173Y-80216607D01*
X80114063Y-79988881D01*
X80175108Y-79747821D01*
X80195643Y-79500000D01*
X80195643Y-79499994D01*
X84804357Y-79499994D01*
X84804357Y-79500005D01*
X84824890Y-79747812D01*
X84824892Y-79747824D01*
X84885936Y-79988881D01*
X84985826Y-80216606D01*
X85121833Y-80424782D01*
X85128147Y-80431641D01*
X85290256Y-80607738D01*
X85486491Y-80760474D01*
X85705190Y-80878828D01*
X85940386Y-80959571D01*
X86185665Y-81000500D01*
X86434335Y-81000500D01*
X86679614Y-80959571D01*
X86842794Y-80903551D01*
X117049500Y-80903551D01*
X117049500Y-81096448D01*
X117079675Y-81286969D01*
X117079676Y-81286972D01*
X117122505Y-81418787D01*
X117139286Y-81470431D01*
X117194454Y-81578705D01*
X117207350Y-81647375D01*
X117194454Y-81691295D01*
X117139286Y-81799568D01*
X117079675Y-81983030D01*
X117057796Y-82121172D01*
X117049500Y-82173551D01*
X117049500Y-82366449D01*
X117050480Y-82372634D01*
X117079675Y-82556969D01*
X117079676Y-82556973D01*
X117107974Y-82644067D01*
X117109969Y-82713908D01*
X117108429Y-82719273D01*
X117106522Y-82725394D01*
X117058530Y-82879411D01*
X117055914Y-82887805D01*
X117049500Y-82958386D01*
X117049500Y-84121613D01*
X117055913Y-84192192D01*
X117055913Y-84192194D01*
X117055914Y-84192196D01*
X117106522Y-84354606D01*
X117187694Y-84488881D01*
X117194530Y-84500188D01*
X117314811Y-84620469D01*
X117314813Y-84620470D01*
X117314815Y-84620472D01*
X117460394Y-84708478D01*
X117622804Y-84759086D01*
X117693384Y-84765500D01*
X117693387Y-84765500D01*
X119306613Y-84765500D01*
X119306616Y-84765500D01*
X119377196Y-84759086D01*
X119539606Y-84708478D01*
X119685185Y-84620472D01*
X119805472Y-84500185D01*
X119893478Y-84354606D01*
X119944086Y-84192196D01*
X119950500Y-84121616D01*
X119950500Y-82958384D01*
X119944086Y-82887804D01*
X119893478Y-82725394D01*
X119893477Y-82725393D01*
X119891570Y-82719271D01*
X119890420Y-82649411D01*
X119892024Y-82644067D01*
X119920324Y-82556972D01*
X119950500Y-82366449D01*
X119950500Y-82173551D01*
X119920324Y-81983028D01*
X119860715Y-81799571D01*
X119805543Y-81691291D01*
X119792648Y-81622626D01*
X119805542Y-81578709D01*
X119860715Y-81470429D01*
X119920324Y-81286972D01*
X119944624Y-81133551D01*
X125549500Y-81133551D01*
X125549500Y-81326448D01*
X125579675Y-81516969D01*
X125579676Y-81516972D01*
X125636317Y-81691295D01*
X125639286Y-81700431D01*
X125694454Y-81808705D01*
X125707350Y-81877375D01*
X125694454Y-81921295D01*
X125639286Y-82029568D01*
X125579675Y-82213030D01*
X125549500Y-82403551D01*
X125549500Y-82596448D01*
X125579675Y-82786969D01*
X125579676Y-82786973D01*
X125607974Y-82874067D01*
X125609969Y-82943908D01*
X125608429Y-82949273D01*
X125590441Y-83007000D01*
X125562149Y-83097797D01*
X125555914Y-83117805D01*
X125549500Y-83188386D01*
X125549500Y-84351613D01*
X125555913Y-84422192D01*
X125555913Y-84422194D01*
X125555914Y-84422196D01*
X125580216Y-84500185D01*
X125606522Y-84584606D01*
X125694530Y-84730188D01*
X125814811Y-84850469D01*
X125814813Y-84850470D01*
X125814815Y-84850472D01*
X125960394Y-84938478D01*
X126122804Y-84989086D01*
X126193384Y-84995500D01*
X126193387Y-84995500D01*
X127806613Y-84995500D01*
X127806616Y-84995500D01*
X127877196Y-84989086D01*
X128039606Y-84938478D01*
X128185185Y-84850472D01*
X128305472Y-84730185D01*
X128393478Y-84584606D01*
X128444086Y-84422196D01*
X128450500Y-84351616D01*
X128450500Y-83999994D01*
X133994357Y-83999994D01*
X133994357Y-84000005D01*
X134014890Y-84247812D01*
X134014892Y-84247824D01*
X134075936Y-84488881D01*
X134175826Y-84716606D01*
X134311833Y-84924782D01*
X134316200Y-84929526D01*
X134480256Y-85107738D01*
X134537312Y-85152147D01*
X134578125Y-85208857D01*
X134581800Y-85278630D01*
X134547169Y-85339313D01*
X134537317Y-85347848D01*
X134497283Y-85379008D01*
X134480257Y-85392261D01*
X134311833Y-85575217D01*
X134175826Y-85783393D01*
X134075936Y-86011118D01*
X134014892Y-86252175D01*
X134014890Y-86252187D01*
X133994357Y-86499994D01*
X133994357Y-86500005D01*
X134014890Y-86747812D01*
X134014892Y-86747824D01*
X134075936Y-86988881D01*
X134175826Y-87216606D01*
X134311833Y-87424782D01*
X134311836Y-87424785D01*
X134480256Y-87607738D01*
X134676491Y-87760474D01*
X134676493Y-87760475D01*
X134837330Y-87847516D01*
X134895190Y-87878828D01*
X135130386Y-87959571D01*
X135375665Y-88000500D01*
X135624335Y-88000500D01*
X135869614Y-87959571D01*
X136104810Y-87878828D01*
X136323509Y-87760474D01*
X136519744Y-87607738D01*
X136688164Y-87424785D01*
X136690655Y-87420973D01*
X136731994Y-87357698D01*
X136824173Y-87216607D01*
X136924063Y-86988881D01*
X136985108Y-86747821D01*
X136985109Y-86747812D01*
X137005643Y-86500005D01*
X137005643Y-86499994D01*
X136985109Y-86252187D01*
X136985107Y-86252175D01*
X136924063Y-86011118D01*
X136824173Y-85783393D01*
X136688166Y-85575217D01*
X136594430Y-85473393D01*
X136519744Y-85392262D01*
X136462685Y-85347851D01*
X136421874Y-85291143D01*
X136418199Y-85221370D01*
X136452830Y-85160687D01*
X136462675Y-85152156D01*
X136519744Y-85107738D01*
X136688164Y-84924785D01*
X136824173Y-84716607D01*
X136924063Y-84488881D01*
X136985108Y-84247821D01*
X136985299Y-84245522D01*
X137005643Y-84000005D01*
X137005643Y-83999994D01*
X136985109Y-83752187D01*
X136985107Y-83752175D01*
X136924063Y-83511118D01*
X136824173Y-83283393D01*
X136688166Y-83075217D01*
X136666557Y-83051744D01*
X136519744Y-82892262D01*
X136323509Y-82739526D01*
X136323507Y-82739525D01*
X136323506Y-82739524D01*
X136104811Y-82621172D01*
X136104802Y-82621169D01*
X135869616Y-82540429D01*
X135624335Y-82499500D01*
X135375665Y-82499500D01*
X135130383Y-82540429D01*
X134895197Y-82621169D01*
X134895188Y-82621172D01*
X134676493Y-82739524D01*
X134480257Y-82892261D01*
X134311833Y-83075217D01*
X134175826Y-83283393D01*
X134075936Y-83511118D01*
X134014892Y-83752175D01*
X134014890Y-83752187D01*
X133994357Y-83999994D01*
X128450500Y-83999994D01*
X128450500Y-83188384D01*
X128444086Y-83117804D01*
X128393478Y-82955394D01*
X128393477Y-82955393D01*
X128391570Y-82949271D01*
X128390420Y-82879411D01*
X128392024Y-82874067D01*
X128420324Y-82786972D01*
X128450500Y-82596449D01*
X128450500Y-82403551D01*
X128420324Y-82213028D01*
X128360715Y-82029571D01*
X128305543Y-81921291D01*
X128292648Y-81852626D01*
X128305542Y-81808709D01*
X128360715Y-81700429D01*
X128420324Y-81516972D01*
X128450500Y-81326449D01*
X128450500Y-81133551D01*
X128420324Y-80943028D01*
X128360715Y-80759571D01*
X128273141Y-80587698D01*
X128159759Y-80431641D01*
X128023359Y-80295241D01*
X127867302Y-80181859D01*
X127695429Y-80094285D01*
X127511972Y-80034676D01*
X127511970Y-80034675D01*
X127511969Y-80034675D01*
X127365614Y-80011495D01*
X127321449Y-80004500D01*
X126678551Y-80004500D01*
X126642697Y-80010178D01*
X126488030Y-80034675D01*
X126304568Y-80094286D01*
X126132697Y-80181859D01*
X126084871Y-80216607D01*
X125976641Y-80295241D01*
X125976639Y-80295243D01*
X125976638Y-80295243D01*
X125840243Y-80431638D01*
X125840243Y-80431639D01*
X125840241Y-80431641D01*
X125814551Y-80467000D01*
X125726859Y-80587697D01*
X125639286Y-80759568D01*
X125579675Y-80943030D01*
X125549500Y-81133551D01*
X119944624Y-81133551D01*
X119950500Y-81096449D01*
X119950500Y-80903551D01*
X119920324Y-80713028D01*
X119860715Y-80529571D01*
X119773141Y-80357698D01*
X119659759Y-80201641D01*
X119523359Y-80065241D01*
X119367302Y-79951859D01*
X119195429Y-79864285D01*
X119011972Y-79804676D01*
X119011970Y-79804675D01*
X119011969Y-79804675D01*
X118865614Y-79781495D01*
X118821449Y-79774500D01*
X118178551Y-79774500D01*
X118142697Y-79780178D01*
X117988030Y-79804675D01*
X117804568Y-79864286D01*
X117632697Y-79951859D01*
X117560244Y-80004500D01*
X117476641Y-80065241D01*
X117476639Y-80065243D01*
X117476638Y-80065243D01*
X117340243Y-80201638D01*
X117340243Y-80201639D01*
X117340241Y-80201641D01*
X117329368Y-80216607D01*
X117226859Y-80357697D01*
X117139286Y-80529568D01*
X117079675Y-80713030D01*
X117049500Y-80903551D01*
X86842794Y-80903551D01*
X86914810Y-80878828D01*
X87133509Y-80760474D01*
X87329744Y-80607738D01*
X87498164Y-80424785D01*
X87634173Y-80216607D01*
X87734063Y-79988881D01*
X87795108Y-79747821D01*
X87815643Y-79500000D01*
X87809114Y-79421211D01*
X87795109Y-79252187D01*
X87795107Y-79252175D01*
X87734063Y-79011118D01*
X87634173Y-78783393D01*
X87498166Y-78575217D01*
X87476557Y-78551744D01*
X87329744Y-78392262D01*
X87133509Y-78239526D01*
X87133507Y-78239525D01*
X87133506Y-78239524D01*
X86914811Y-78121172D01*
X86914802Y-78121169D01*
X86679616Y-78040429D01*
X86434335Y-77999500D01*
X86185665Y-77999500D01*
X85940383Y-78040429D01*
X85705197Y-78121169D01*
X85705188Y-78121172D01*
X85486493Y-78239524D01*
X85290257Y-78392261D01*
X85121833Y-78575217D01*
X84985826Y-78783393D01*
X84885936Y-79011118D01*
X84824892Y-79252175D01*
X84824890Y-79252187D01*
X84804357Y-79499994D01*
X80195643Y-79499994D01*
X80189114Y-79421211D01*
X80175109Y-79252187D01*
X80175107Y-79252175D01*
X80114063Y-79011118D01*
X80014173Y-78783393D01*
X79878166Y-78575217D01*
X79856557Y-78551744D01*
X79709744Y-78392262D01*
X79513509Y-78239526D01*
X79513507Y-78239525D01*
X79513506Y-78239524D01*
X79294811Y-78121172D01*
X79294802Y-78121169D01*
X79059616Y-78040429D01*
X78814335Y-77999500D01*
X78565665Y-77999500D01*
X78320383Y-78040429D01*
X78085197Y-78121169D01*
X78085188Y-78121172D01*
X77866493Y-78239524D01*
X77670257Y-78392261D01*
X77670256Y-78392262D01*
X77501836Y-78575215D01*
X77490004Y-78593324D01*
X77436859Y-78638679D01*
X77386198Y-78649500D01*
X76416228Y-78649500D01*
X76251925Y-78682182D01*
X76251917Y-78682184D01*
X76097139Y-78746295D01*
X75957837Y-78839373D01*
X70342615Y-84454595D01*
X70281292Y-84488080D01*
X70211600Y-84483096D01*
X70167253Y-84454595D01*
X70046188Y-84333530D01*
X69900606Y-84245522D01*
X69738196Y-84194914D01*
X69738194Y-84194913D01*
X69738192Y-84194913D01*
X69688778Y-84190423D01*
X69667616Y-84188500D01*
X68332384Y-84188500D01*
X68313145Y-84190248D01*
X68261807Y-84194913D01*
X68099393Y-84245522D01*
X67953811Y-84333530D01*
X67833530Y-84453811D01*
X67745522Y-84599393D01*
X67694913Y-84761807D01*
X67691336Y-84801172D01*
X67688500Y-84832384D01*
X58200500Y-84832384D01*
X58200500Y-82959999D01*
X65344240Y-82959999D01*
X65344240Y-82960000D01*
X65363237Y-83165019D01*
X65363238Y-83165021D01*
X65419583Y-83363054D01*
X65419589Y-83363069D01*
X65511362Y-83547372D01*
X65514679Y-83551765D01*
X65514680Y-83551766D01*
X66103000Y-82963446D01*
X66103000Y-83007000D01*
X66127329Y-83097797D01*
X66174329Y-83179203D01*
X66240797Y-83245671D01*
X66322203Y-83292671D01*
X66413000Y-83317000D01*
X66456553Y-83317000D01*
X65871320Y-83902230D01*
X65871321Y-83902231D01*
X65962659Y-83958784D01*
X65962665Y-83958788D01*
X66154659Y-84033166D01*
X66357054Y-84071000D01*
X66562946Y-84071000D01*
X66765339Y-84033166D01*
X66765349Y-84033163D01*
X66957336Y-83958787D01*
X66957338Y-83958786D01*
X67048678Y-83902230D01*
X66463448Y-83317000D01*
X66507000Y-83317000D01*
X66597797Y-83292671D01*
X66679203Y-83245671D01*
X66745671Y-83179203D01*
X66792671Y-83097797D01*
X66817000Y-83007000D01*
X66817000Y-82963447D01*
X67405318Y-83551765D01*
X67405319Y-83551765D01*
X67408637Y-83547372D01*
X67500410Y-83363069D01*
X67500416Y-83363054D01*
X67556761Y-83165021D01*
X67556762Y-83165019D01*
X67575760Y-82960000D01*
X67575760Y-82959999D01*
X67556762Y-82754980D01*
X67556761Y-82754978D01*
X67500416Y-82556945D01*
X67500410Y-82556930D01*
X67408641Y-82372633D01*
X67408636Y-82372625D01*
X67405319Y-82368233D01*
X66817000Y-82956552D01*
X66817000Y-82913000D01*
X66792671Y-82822203D01*
X66745671Y-82740797D01*
X66679203Y-82674329D01*
X66597797Y-82627329D01*
X66507000Y-82603000D01*
X66463448Y-82603000D01*
X67048678Y-82017768D01*
X66957333Y-81961211D01*
X66765340Y-81886833D01*
X66562946Y-81849000D01*
X66357054Y-81849000D01*
X66154660Y-81886833D01*
X66154659Y-81886833D01*
X65962666Y-81961211D01*
X65871321Y-82017768D01*
X66456553Y-82603000D01*
X66413000Y-82603000D01*
X66322203Y-82627329D01*
X66240797Y-82674329D01*
X66174329Y-82740797D01*
X66127329Y-82822203D01*
X66103000Y-82913000D01*
X66103000Y-82956553D01*
X65514680Y-82368233D01*
X65511360Y-82372630D01*
X65511358Y-82372634D01*
X65419589Y-82556930D01*
X65419583Y-82556945D01*
X65363238Y-82754978D01*
X65363237Y-82754980D01*
X65344240Y-82959999D01*
X58200500Y-82959999D01*
X58200500Y-80419999D01*
X67884240Y-80419999D01*
X67884240Y-80420000D01*
X67903237Y-80625019D01*
X67903238Y-80625021D01*
X67959583Y-80823054D01*
X67959589Y-80823069D01*
X68051362Y-81007372D01*
X68054679Y-81011765D01*
X68054680Y-81011766D01*
X68643000Y-80423446D01*
X68643000Y-80467000D01*
X68667329Y-80557797D01*
X68714329Y-80639203D01*
X68780797Y-80705671D01*
X68862203Y-80752671D01*
X68953000Y-80777000D01*
X68996553Y-80777000D01*
X68411320Y-81362230D01*
X68411321Y-81362231D01*
X68502659Y-81418784D01*
X68502665Y-81418788D01*
X68694659Y-81493166D01*
X68897054Y-81531000D01*
X69102946Y-81531000D01*
X69305339Y-81493166D01*
X69305349Y-81493163D01*
X69497336Y-81418787D01*
X69497338Y-81418786D01*
X69588678Y-81362230D01*
X69003448Y-80777000D01*
X69047000Y-80777000D01*
X69137797Y-80752671D01*
X69219203Y-80705671D01*
X69285671Y-80639203D01*
X69332671Y-80557797D01*
X69357000Y-80467000D01*
X69357000Y-80423448D01*
X69945318Y-81011766D01*
X69945319Y-81011765D01*
X69948637Y-81007372D01*
X70040410Y-80823069D01*
X70040416Y-80823054D01*
X70096761Y-80625021D01*
X70096762Y-80625019D01*
X70115760Y-80420000D01*
X70115760Y-80419999D01*
X70096762Y-80214980D01*
X70096761Y-80214978D01*
X70040416Y-80016945D01*
X70040410Y-80016930D01*
X69948641Y-79832633D01*
X69948636Y-79832625D01*
X69945319Y-79828233D01*
X69357000Y-80416552D01*
X69357000Y-80373000D01*
X69332671Y-80282203D01*
X69285671Y-80200797D01*
X69219203Y-80134329D01*
X69137797Y-80087329D01*
X69047000Y-80063000D01*
X69003448Y-80063000D01*
X69588678Y-79477768D01*
X69497333Y-79421211D01*
X69305340Y-79346833D01*
X69102946Y-79309000D01*
X68897054Y-79309000D01*
X68694660Y-79346833D01*
X68694659Y-79346833D01*
X68502666Y-79421211D01*
X68411321Y-79477768D01*
X68996553Y-80063000D01*
X68953000Y-80063000D01*
X68862203Y-80087329D01*
X68780797Y-80134329D01*
X68714329Y-80200797D01*
X68667329Y-80282203D01*
X68643000Y-80373000D01*
X68643000Y-80416553D01*
X68054680Y-79828233D01*
X68051360Y-79832630D01*
X68051358Y-79832634D01*
X67959589Y-80016930D01*
X67959583Y-80016945D01*
X67903238Y-80214978D01*
X67903237Y-80214980D01*
X67884240Y-80419999D01*
X58200500Y-80419999D01*
X58200500Y-75073394D01*
X60216284Y-75073394D01*
X60216284Y-75073405D01*
X60235118Y-75300704D01*
X60291110Y-75521815D01*
X60382732Y-75730690D01*
X60463235Y-75853910D01*
X61017459Y-75299687D01*
X61045826Y-75368170D01*
X61113929Y-75470093D01*
X61200608Y-75556772D01*
X61302531Y-75624875D01*
X61371012Y-75653240D01*
X60815389Y-76208862D01*
X60815390Y-76208863D01*
X60841952Y-76229537D01*
X60841953Y-76229539D01*
X61042551Y-76338098D01*
X61042556Y-76338100D01*
X61258277Y-76412157D01*
X61483259Y-76449700D01*
X61711343Y-76449700D01*
X61936324Y-76412157D01*
X62152045Y-76338100D01*
X62152050Y-76338098D01*
X62352647Y-76229539D01*
X62352650Y-76229537D01*
X62379211Y-76208863D01*
X61823588Y-75653240D01*
X61892071Y-75624875D01*
X61993994Y-75556772D01*
X62080673Y-75470093D01*
X62148776Y-75368170D01*
X62177141Y-75299688D01*
X62731364Y-75853911D01*
X62811870Y-75730687D01*
X62903491Y-75521815D01*
X62959483Y-75300704D01*
X62978318Y-75073405D01*
X62978318Y-75073394D01*
X62959483Y-74846095D01*
X62950341Y-74809994D01*
X70494357Y-74809994D01*
X70494357Y-74810005D01*
X70514890Y-75057812D01*
X70514892Y-75057824D01*
X70575936Y-75298881D01*
X70675826Y-75526606D01*
X70811833Y-75734782D01*
X70827848Y-75752179D01*
X70980256Y-75917738D01*
X71176491Y-76070474D01*
X71395190Y-76188828D01*
X71630386Y-76269571D01*
X71875665Y-76310500D01*
X72124334Y-76310500D01*
X72124335Y-76310500D01*
X72230458Y-76292791D01*
X72299821Y-76301173D01*
X72319752Y-76311995D01*
X72397136Y-76363702D01*
X72551917Y-76427815D01*
X72716227Y-76460498D01*
X72716231Y-76460499D01*
X72716232Y-76460499D01*
X83573769Y-76460499D01*
X83573770Y-76460498D01*
X83738083Y-76427815D01*
X83798322Y-76402863D01*
X83892864Y-76363703D01*
X84032163Y-76270626D01*
X84302794Y-75999994D01*
X97494357Y-75999994D01*
X97494357Y-76000005D01*
X97514890Y-76247812D01*
X97514892Y-76247824D01*
X97575936Y-76488881D01*
X97675826Y-76716606D01*
X97811833Y-76924782D01*
X97843858Y-76959570D01*
X97980256Y-77107738D01*
X98176491Y-77260474D01*
X98395190Y-77378828D01*
X98630386Y-77459571D01*
X98875665Y-77500500D01*
X99124335Y-77500500D01*
X99369614Y-77459571D01*
X99604810Y-77378828D01*
X99823509Y-77260474D01*
X100019744Y-77107738D01*
X100188164Y-76924785D01*
X100324173Y-76716607D01*
X100424063Y-76488881D01*
X100485108Y-76247821D01*
X100485140Y-76247432D01*
X100505643Y-76000005D01*
X100505643Y-75999994D01*
X102494357Y-75999994D01*
X102494357Y-76000005D01*
X102514890Y-76247812D01*
X102514892Y-76247824D01*
X102575936Y-76488881D01*
X102675826Y-76716606D01*
X102811833Y-76924782D01*
X102843858Y-76959570D01*
X102980256Y-77107738D01*
X103176491Y-77260474D01*
X103395190Y-77378828D01*
X103630386Y-77459571D01*
X103875665Y-77500500D01*
X104124335Y-77500500D01*
X104369614Y-77459571D01*
X104604810Y-77378828D01*
X104823509Y-77260474D01*
X105019744Y-77107738D01*
X105188164Y-76924785D01*
X105324173Y-76716607D01*
X105424063Y-76488881D01*
X105485108Y-76247821D01*
X105485140Y-76247432D01*
X105505643Y-76000005D01*
X105505643Y-75999994D01*
X105485109Y-75752187D01*
X105485107Y-75752175D01*
X105424063Y-75511118D01*
X105419184Y-75499994D01*
X106994357Y-75499994D01*
X106994357Y-75500005D01*
X107014890Y-75747812D01*
X107014892Y-75747824D01*
X107075936Y-75988881D01*
X107175826Y-76216606D01*
X107311833Y-76424782D01*
X107311836Y-76424785D01*
X107480256Y-76607738D01*
X107676491Y-76760474D01*
X107895190Y-76878828D01*
X108130386Y-76959571D01*
X108375665Y-77000500D01*
X108624335Y-77000500D01*
X108869614Y-76959571D01*
X109104810Y-76878828D01*
X109323509Y-76760474D01*
X109519744Y-76607738D01*
X109688164Y-76424785D01*
X109824173Y-76216607D01*
X109924063Y-75988881D01*
X109985108Y-75747821D01*
X109986188Y-75734785D01*
X110005643Y-75500005D01*
X110005643Y-75499997D01*
X112195034Y-75499997D01*
X112195034Y-75500002D01*
X112214858Y-75726599D01*
X112214860Y-75726610D01*
X112273730Y-75946317D01*
X112273735Y-75946331D01*
X112369863Y-76152478D01*
X112420974Y-76225472D01*
X113100000Y-75546446D01*
X113100000Y-75552661D01*
X113127259Y-75654394D01*
X113179920Y-75745606D01*
X113254394Y-75820080D01*
X113345606Y-75872741D01*
X113447339Y-75900000D01*
X113453553Y-75900000D01*
X112774526Y-76579025D01*
X112847513Y-76630132D01*
X112847521Y-76630136D01*
X113053668Y-76726264D01*
X113053682Y-76726269D01*
X113273389Y-76785139D01*
X113273400Y-76785141D01*
X113499998Y-76804966D01*
X113500002Y-76804966D01*
X113726599Y-76785141D01*
X113726610Y-76785139D01*
X113946317Y-76726269D01*
X113946331Y-76726264D01*
X114152478Y-76630136D01*
X114225471Y-76579024D01*
X113546447Y-75900000D01*
X113552661Y-75900000D01*
X113654394Y-75872741D01*
X113745606Y-75820080D01*
X113820080Y-75745606D01*
X113872741Y-75654394D01*
X113900000Y-75552661D01*
X113900000Y-75546447D01*
X114579024Y-76225471D01*
X114630136Y-76152478D01*
X114726264Y-75946331D01*
X114726269Y-75946317D01*
X114785139Y-75726610D01*
X114785141Y-75726599D01*
X114804966Y-75500002D01*
X114804966Y-75499997D01*
X114804966Y-75499994D01*
X117374357Y-75499994D01*
X117374357Y-75500005D01*
X117394890Y-75747812D01*
X117394892Y-75747824D01*
X117455936Y-75988881D01*
X117555826Y-76216606D01*
X117691833Y-76424782D01*
X117691836Y-76424785D01*
X117860256Y-76607738D01*
X118056491Y-76760474D01*
X118275190Y-76878828D01*
X118510386Y-76959571D01*
X118755665Y-77000500D01*
X119004335Y-77000500D01*
X119249614Y-76959571D01*
X119484810Y-76878828D01*
X119703509Y-76760474D01*
X119899744Y-76607738D01*
X120068164Y-76424785D01*
X120204173Y-76216607D01*
X120304063Y-75988881D01*
X120365108Y-75747821D01*
X120366188Y-75734785D01*
X120385643Y-75500005D01*
X120385643Y-75499994D01*
X124994357Y-75499994D01*
X124994357Y-75500005D01*
X125014890Y-75747812D01*
X125014892Y-75747824D01*
X125075936Y-75988881D01*
X125175826Y-76216606D01*
X125311833Y-76424782D01*
X125311836Y-76424785D01*
X125480256Y-76607738D01*
X125676491Y-76760474D01*
X125895190Y-76878828D01*
X126130386Y-76959571D01*
X126375665Y-77000500D01*
X126624335Y-77000500D01*
X126869614Y-76959571D01*
X127104810Y-76878828D01*
X127323509Y-76760474D01*
X127519744Y-76607738D01*
X127688164Y-76424785D01*
X127824173Y-76216607D01*
X127919186Y-76000000D01*
X133918324Y-76000000D01*
X133937797Y-76247432D01*
X133995736Y-76488765D01*
X133995736Y-76488766D01*
X134090713Y-76718062D01*
X134090715Y-76718065D01*
X134220393Y-76929680D01*
X134220394Y-76929683D01*
X134220397Y-76929686D01*
X134381586Y-77118414D01*
X134527680Y-77243190D01*
X134570316Y-77279605D01*
X134570319Y-77279606D01*
X134781934Y-77409284D01*
X134781937Y-77409286D01*
X135011234Y-77504263D01*
X135218338Y-77553984D01*
X135252571Y-77562203D01*
X135500000Y-77581676D01*
X135747429Y-77562203D01*
X135988765Y-77504263D01*
X135988766Y-77504263D01*
X136218062Y-77409286D01*
X136218063Y-77409285D01*
X136218066Y-77409284D01*
X136429686Y-77279603D01*
X136618414Y-77118414D01*
X136779603Y-76929686D01*
X136909284Y-76718066D01*
X136909286Y-76718062D01*
X137004263Y-76488766D01*
X137004263Y-76488765D01*
X137034288Y-76363702D01*
X137062203Y-76247429D01*
X137081676Y-76000000D01*
X137062203Y-75752571D01*
X137004263Y-75511235D01*
X137004263Y-75511234D01*
X137004263Y-75511233D01*
X136909286Y-75281937D01*
X136909284Y-75281934D01*
X136885718Y-75243478D01*
X136779605Y-75070318D01*
X136779605Y-75070316D01*
X136729045Y-75011118D01*
X136618414Y-74881586D01*
X136475469Y-74759499D01*
X136429683Y-74720394D01*
X136429680Y-74720393D01*
X136218065Y-74590715D01*
X136218062Y-74590713D01*
X135988765Y-74495736D01*
X135747432Y-74437797D01*
X135500000Y-74418324D01*
X135252567Y-74437797D01*
X135011234Y-74495736D01*
X135011233Y-74495736D01*
X134781937Y-74590713D01*
X134781934Y-74590715D01*
X134570319Y-74720393D01*
X134570316Y-74720394D01*
X134381586Y-74881586D01*
X134220394Y-75070316D01*
X134220393Y-75070319D01*
X134090715Y-75281934D01*
X134090713Y-75281937D01*
X133995736Y-75511233D01*
X133995736Y-75511234D01*
X133937797Y-75752567D01*
X133918324Y-76000000D01*
X127919186Y-76000000D01*
X127924063Y-75988881D01*
X127985108Y-75747821D01*
X127986188Y-75734785D01*
X128005643Y-75500005D01*
X128005643Y-75499994D01*
X127985109Y-75252187D01*
X127985107Y-75252175D01*
X127924063Y-75011118D01*
X127824173Y-74783393D01*
X127688166Y-74575217D01*
X127639107Y-74521925D01*
X127519744Y-74392262D01*
X127323509Y-74239526D01*
X127323507Y-74239525D01*
X127323506Y-74239524D01*
X127104811Y-74121172D01*
X127104802Y-74121169D01*
X126869616Y-74040429D01*
X126624335Y-73999500D01*
X126375665Y-73999500D01*
X126130383Y-74040429D01*
X125895197Y-74121169D01*
X125895188Y-74121172D01*
X125676493Y-74239524D01*
X125480257Y-74392261D01*
X125311833Y-74575217D01*
X125175826Y-74783393D01*
X125075936Y-75011118D01*
X125014892Y-75252175D01*
X125014890Y-75252187D01*
X124994357Y-75499994D01*
X120385643Y-75499994D01*
X120365109Y-75252187D01*
X120365107Y-75252175D01*
X120304063Y-75011118D01*
X120204173Y-74783393D01*
X120068166Y-74575217D01*
X120019107Y-74521925D01*
X119899744Y-74392262D01*
X119703509Y-74239526D01*
X119703507Y-74239525D01*
X119703506Y-74239524D01*
X119484811Y-74121172D01*
X119484802Y-74121169D01*
X119249616Y-74040429D01*
X119004335Y-73999500D01*
X118755665Y-73999500D01*
X118510383Y-74040429D01*
X118275197Y-74121169D01*
X118275188Y-74121172D01*
X118056493Y-74239524D01*
X117860257Y-74392261D01*
X117691833Y-74575217D01*
X117555826Y-74783393D01*
X117455936Y-75011118D01*
X117394892Y-75252175D01*
X117394890Y-75252187D01*
X117374357Y-75499994D01*
X114804966Y-75499994D01*
X114785141Y-75273400D01*
X114785139Y-75273389D01*
X114726269Y-75053682D01*
X114726264Y-75053668D01*
X114630136Y-74847521D01*
X114630132Y-74847513D01*
X114579025Y-74774526D01*
X113900000Y-75453551D01*
X113900000Y-75447339D01*
X113872741Y-75345606D01*
X113820080Y-75254394D01*
X113745606Y-75179920D01*
X113654394Y-75127259D01*
X113552661Y-75100000D01*
X113546448Y-75100000D01*
X114225472Y-74420974D01*
X114152478Y-74369863D01*
X113946331Y-74273735D01*
X113946317Y-74273730D01*
X113726610Y-74214860D01*
X113726599Y-74214858D01*
X113500002Y-74195034D01*
X113499998Y-74195034D01*
X113273400Y-74214858D01*
X113273389Y-74214860D01*
X113053682Y-74273730D01*
X113053673Y-74273734D01*
X112847516Y-74369866D01*
X112847512Y-74369868D01*
X112774526Y-74420973D01*
X112774526Y-74420974D01*
X113453553Y-75100000D01*
X113447339Y-75100000D01*
X113345606Y-75127259D01*
X113254394Y-75179920D01*
X113179920Y-75254394D01*
X113127259Y-75345606D01*
X113100000Y-75447339D01*
X113100000Y-75453552D01*
X112420974Y-74774526D01*
X112420973Y-74774526D01*
X112369868Y-74847512D01*
X112369866Y-74847516D01*
X112273734Y-75053673D01*
X112273730Y-75053682D01*
X112214860Y-75273389D01*
X112214858Y-75273400D01*
X112195034Y-75499997D01*
X110005643Y-75499997D01*
X110005643Y-75499994D01*
X109985109Y-75252187D01*
X109985107Y-75252175D01*
X109924063Y-75011118D01*
X109824173Y-74783393D01*
X109688166Y-74575217D01*
X109639107Y-74521925D01*
X109519744Y-74392262D01*
X109323509Y-74239526D01*
X109323507Y-74239525D01*
X109323506Y-74239524D01*
X109104811Y-74121172D01*
X109104802Y-74121169D01*
X108869616Y-74040429D01*
X108624335Y-73999500D01*
X108375665Y-73999500D01*
X108130383Y-74040429D01*
X107895197Y-74121169D01*
X107895188Y-74121172D01*
X107676493Y-74239524D01*
X107480257Y-74392261D01*
X107311833Y-74575217D01*
X107175826Y-74783393D01*
X107075936Y-75011118D01*
X107014892Y-75252175D01*
X107014890Y-75252187D01*
X106994357Y-75499994D01*
X105419184Y-75499994D01*
X105324173Y-75283393D01*
X105188166Y-75075217D01*
X105166557Y-75051744D01*
X105019744Y-74892262D01*
X104823509Y-74739526D01*
X104823507Y-74739525D01*
X104823506Y-74739524D01*
X104604811Y-74621172D01*
X104604802Y-74621169D01*
X104369616Y-74540429D01*
X104124335Y-74499500D01*
X103875665Y-74499500D01*
X103630383Y-74540429D01*
X103395197Y-74621169D01*
X103395188Y-74621172D01*
X103176493Y-74739524D01*
X102980257Y-74892261D01*
X102811833Y-75075217D01*
X102675826Y-75283393D01*
X102575936Y-75511118D01*
X102514892Y-75752175D01*
X102514890Y-75752187D01*
X102494357Y-75999994D01*
X100505643Y-75999994D01*
X100487214Y-75777599D01*
X100501295Y-75709163D01*
X100523106Y-75679681D01*
X100660627Y-75542162D01*
X100753704Y-75402862D01*
X100793535Y-75306702D01*
X100817816Y-75248082D01*
X100850500Y-75083767D01*
X100850500Y-70920000D01*
X133918324Y-70920000D01*
X133937797Y-71167432D01*
X133995736Y-71408765D01*
X133995736Y-71408766D01*
X134090713Y-71638062D01*
X134090715Y-71638065D01*
X134220393Y-71849680D01*
X134220394Y-71849683D01*
X134220397Y-71849686D01*
X134381586Y-72038414D01*
X134527680Y-72163190D01*
X134570316Y-72199605D01*
X134570319Y-72199606D01*
X134781934Y-72329284D01*
X134781937Y-72329286D01*
X135011234Y-72424263D01*
X135218338Y-72473984D01*
X135252571Y-72482203D01*
X135500000Y-72501676D01*
X135747429Y-72482203D01*
X135988765Y-72424263D01*
X135988766Y-72424263D01*
X136218062Y-72329286D01*
X136218063Y-72329285D01*
X136218066Y-72329284D01*
X136429686Y-72199603D01*
X136618414Y-72038414D01*
X136779603Y-71849686D01*
X136909284Y-71638066D01*
X136909286Y-71638062D01*
X137004263Y-71408766D01*
X137004263Y-71408765D01*
X137039977Y-71260005D01*
X137062203Y-71167429D01*
X137081676Y-70920000D01*
X137062203Y-70672571D01*
X137004263Y-70431235D01*
X137004263Y-70431234D01*
X137004263Y-70431233D01*
X136909286Y-70201937D01*
X136909284Y-70201934D01*
X136779606Y-69990319D01*
X136779605Y-69990316D01*
X136703054Y-69900687D01*
X136618414Y-69801586D01*
X136493636Y-69695016D01*
X136429683Y-69640394D01*
X136429680Y-69640393D01*
X136218065Y-69510715D01*
X136218062Y-69510713D01*
X135988765Y-69415736D01*
X135747432Y-69357797D01*
X135500000Y-69338324D01*
X135252567Y-69357797D01*
X135011234Y-69415736D01*
X135011233Y-69415736D01*
X134781937Y-69510713D01*
X134781934Y-69510715D01*
X134570319Y-69640393D01*
X134570316Y-69640394D01*
X134381586Y-69801586D01*
X134220394Y-69990316D01*
X134220393Y-69990319D01*
X134090715Y-70201934D01*
X134090713Y-70201937D01*
X133995736Y-70431233D01*
X133995736Y-70431234D01*
X133937797Y-70672567D01*
X133918324Y-70920000D01*
X100850500Y-70920000D01*
X100850500Y-67997506D01*
X100870185Y-67930467D01*
X100922989Y-67884712D01*
X100992147Y-67874768D01*
X101055703Y-67903793D01*
X101058817Y-67906586D01*
X101064259Y-67911635D01*
X101287226Y-68063651D01*
X101530359Y-68180738D01*
X101788228Y-68260280D01*
X101788229Y-68260280D01*
X101788232Y-68260281D01*
X102055063Y-68300499D01*
X102055068Y-68300499D01*
X102055071Y-68300500D01*
X102055072Y-68300500D01*
X102324928Y-68300500D01*
X102324929Y-68300500D01*
X102343254Y-68297738D01*
X102591767Y-68260281D01*
X102591768Y-68260280D01*
X102591772Y-68260280D01*
X102849641Y-68180738D01*
X103092775Y-68063651D01*
X103315741Y-67911635D01*
X103470102Y-67768409D01*
X103513557Y-67728089D01*
X103513557Y-67728087D01*
X103513561Y-67728085D01*
X103681815Y-67517102D01*
X103816743Y-67283398D01*
X103915334Y-67032195D01*
X103975383Y-66769103D01*
X103993778Y-66523632D01*
X103995549Y-66500004D01*
X103995549Y-66499995D01*
X103975383Y-66230898D01*
X103975383Y-66230897D01*
X103915334Y-65967805D01*
X103816743Y-65716602D01*
X103681815Y-65482898D01*
X103570557Y-65343386D01*
X108009500Y-65343386D01*
X108009500Y-67656613D01*
X108015913Y-67727192D01*
X108015913Y-67727194D01*
X108015914Y-67727196D01*
X108066522Y-67889606D01*
X108091223Y-67930467D01*
X108154530Y-68035188D01*
X108274811Y-68155469D01*
X108274813Y-68155470D01*
X108274815Y-68155472D01*
X108420394Y-68243478D01*
X108582804Y-68294086D01*
X108653384Y-68300500D01*
X108653387Y-68300500D01*
X110966613Y-68300500D01*
X110966616Y-68300500D01*
X111037196Y-68294086D01*
X111199606Y-68243478D01*
X111345185Y-68155472D01*
X111465472Y-68035185D01*
X111486745Y-67999995D01*
X118295233Y-67999995D01*
X118295233Y-68000004D01*
X118314273Y-68254079D01*
X118370968Y-68502477D01*
X118370973Y-68502494D01*
X118464058Y-68739671D01*
X118464057Y-68739671D01*
X118591454Y-68960327D01*
X118591461Y-68960338D01*
X118633452Y-69012991D01*
X118633453Y-69012992D01*
X119435387Y-68211058D01*
X119440889Y-68231591D01*
X119519881Y-68368408D01*
X119631592Y-68480119D01*
X119768409Y-68559111D01*
X119788940Y-68564612D01*
X118986813Y-69366738D01*
X119147616Y-69476371D01*
X119147624Y-69476376D01*
X119377176Y-69586921D01*
X119377174Y-69586921D01*
X119620652Y-69662024D01*
X119620658Y-69662026D01*
X119872595Y-69699999D01*
X119872604Y-69700000D01*
X120127396Y-69700000D01*
X120127404Y-69699999D01*
X120379341Y-69662026D01*
X120379347Y-69662024D01*
X120622824Y-69586921D01*
X120852376Y-69476376D01*
X120852377Y-69476375D01*
X121013185Y-69366738D01*
X120211060Y-68564612D01*
X120231591Y-68559111D01*
X120368408Y-68480119D01*
X120480119Y-68368408D01*
X120559111Y-68231591D01*
X120564612Y-68211059D01*
X121366544Y-69012992D01*
X121366546Y-69012991D01*
X121408544Y-68960330D01*
X121535941Y-68739671D01*
X121629026Y-68502494D01*
X121629031Y-68502477D01*
X121685726Y-68254079D01*
X121704767Y-68000004D01*
X121704767Y-67999995D01*
X121685726Y-67745920D01*
X121629031Y-67497522D01*
X121629026Y-67497505D01*
X121535941Y-67260328D01*
X121535942Y-67260328D01*
X121408545Y-67039672D01*
X121366545Y-66987006D01*
X120564612Y-67788939D01*
X120559111Y-67768409D01*
X120480119Y-67631592D01*
X120368408Y-67519881D01*
X120231591Y-67440889D01*
X120211059Y-67435387D01*
X121013185Y-66633260D01*
X120852384Y-66523628D01*
X120852376Y-66523623D01*
X120622823Y-66413078D01*
X120622825Y-66413078D01*
X120379347Y-66337975D01*
X120379341Y-66337973D01*
X120127404Y-66300000D01*
X119872595Y-66300000D01*
X119620658Y-66337973D01*
X119620652Y-66337975D01*
X119377175Y-66413078D01*
X119147622Y-66523625D01*
X119147609Y-66523632D01*
X118986813Y-66633259D01*
X119788941Y-67435387D01*
X119768409Y-67440889D01*
X119631592Y-67519881D01*
X119519881Y-67631592D01*
X119440889Y-67768409D01*
X119435387Y-67788940D01*
X118633452Y-66987006D01*
X118591457Y-67039667D01*
X118464058Y-67260328D01*
X118370973Y-67497505D01*
X118370968Y-67497522D01*
X118314273Y-67745920D01*
X118295233Y-67999995D01*
X111486745Y-67999995D01*
X111553478Y-67889606D01*
X111604086Y-67727196D01*
X111610500Y-67656616D01*
X111610500Y-65343384D01*
X111604086Y-65272804D01*
X111553478Y-65110394D01*
X111465472Y-64964815D01*
X111465470Y-64964813D01*
X111465469Y-64964811D01*
X111345188Y-64844530D01*
X111341325Y-64842195D01*
X111199606Y-64756522D01*
X111037196Y-64705914D01*
X111037194Y-64705913D01*
X111037192Y-64705913D01*
X110987778Y-64701423D01*
X110966616Y-64699500D01*
X108653384Y-64699500D01*
X108634145Y-64701248D01*
X108582807Y-64705913D01*
X108420393Y-64756522D01*
X108274811Y-64844530D01*
X108154530Y-64964811D01*
X108066522Y-65110393D01*
X108015913Y-65272807D01*
X108010980Y-65327101D01*
X108009701Y-65341179D01*
X108009500Y-65343386D01*
X103570557Y-65343386D01*
X103513561Y-65271915D01*
X103513560Y-65271914D01*
X103513557Y-65271910D01*
X103315741Y-65088365D01*
X103259272Y-65049865D01*
X103092775Y-64936349D01*
X103092769Y-64936346D01*
X103092768Y-64936345D01*
X103092767Y-64936344D01*
X102849643Y-64819263D01*
X102849645Y-64819263D01*
X102591773Y-64739720D01*
X102591767Y-64739718D01*
X102324936Y-64699500D01*
X102324929Y-64699500D01*
X102055071Y-64699500D01*
X102055063Y-64699500D01*
X101788232Y-64739718D01*
X101788226Y-64739720D01*
X101530358Y-64819262D01*
X101287230Y-64936346D01*
X101064258Y-65088365D01*
X101058837Y-65093396D01*
X100996303Y-65124561D01*
X100926847Y-65116971D01*
X100872520Y-65073035D01*
X100850571Y-65006702D01*
X100850500Y-65002493D01*
X100850500Y-64500000D01*
X133918324Y-64500000D01*
X133937797Y-64747432D01*
X133995736Y-64988765D01*
X133995736Y-64988766D01*
X134090713Y-65218062D01*
X134090715Y-65218065D01*
X134220393Y-65429680D01*
X134220394Y-65429683D01*
X134220397Y-65429686D01*
X134381586Y-65618414D01*
X134527680Y-65743190D01*
X134570316Y-65779605D01*
X134570318Y-65779605D01*
X134621825Y-65811169D01*
X134781934Y-65909284D01*
X134781937Y-65909286D01*
X135011234Y-66004263D01*
X135100134Y-66025606D01*
X135252571Y-66062203D01*
X135500000Y-66081676D01*
X135747429Y-66062203D01*
X135988765Y-66004263D01*
X135988766Y-66004263D01*
X136218062Y-65909286D01*
X136218063Y-65909285D01*
X136218066Y-65909284D01*
X136429686Y-65779603D01*
X136618414Y-65618414D01*
X136779603Y-65429686D01*
X136909284Y-65218066D01*
X136953883Y-65110394D01*
X137004263Y-64988766D01*
X137004263Y-64988765D01*
X137038891Y-64844528D01*
X137062203Y-64747429D01*
X137081676Y-64500000D01*
X137062203Y-64252571D01*
X137053984Y-64218338D01*
X137004263Y-64011234D01*
X137004263Y-64011233D01*
X136909286Y-63781937D01*
X136909284Y-63781934D01*
X136779606Y-63570319D01*
X136779605Y-63570316D01*
X136637258Y-63403650D01*
X136618414Y-63381586D01*
X136493636Y-63275016D01*
X136429683Y-63220394D01*
X136429680Y-63220393D01*
X136218065Y-63090715D01*
X136218062Y-63090713D01*
X135988765Y-62995736D01*
X135747432Y-62937797D01*
X135500000Y-62918324D01*
X135252567Y-62937797D01*
X135011234Y-62995736D01*
X135011233Y-62995736D01*
X134781937Y-63090713D01*
X134781934Y-63090715D01*
X134570319Y-63220393D01*
X134570316Y-63220394D01*
X134381586Y-63381586D01*
X134220394Y-63570316D01*
X134220393Y-63570319D01*
X134090715Y-63781934D01*
X134090713Y-63781937D01*
X133995736Y-64011233D01*
X133995736Y-64011234D01*
X133937797Y-64252567D01*
X133918324Y-64500000D01*
X100850500Y-64500000D01*
X100850500Y-63403650D01*
X100870185Y-63336611D01*
X100886819Y-63315969D01*
X101365970Y-62836819D01*
X101427293Y-62803334D01*
X101453651Y-62800500D01*
X103156613Y-62800500D01*
X103156616Y-62800500D01*
X103227196Y-62794086D01*
X103389606Y-62743478D01*
X103535185Y-62655472D01*
X103655472Y-62535185D01*
X103743478Y-62389606D01*
X103794086Y-62227196D01*
X103800500Y-62156616D01*
X103800500Y-60999995D01*
X107814451Y-60999995D01*
X107814451Y-61000004D01*
X107834616Y-61269101D01*
X107875068Y-61446331D01*
X107894666Y-61532195D01*
X107993257Y-61783398D01*
X108128185Y-62017102D01*
X108218324Y-62130132D01*
X108296442Y-62228089D01*
X108470517Y-62389606D01*
X108494259Y-62411635D01*
X108717226Y-62563651D01*
X108960359Y-62680738D01*
X109218228Y-62760280D01*
X109218229Y-62760280D01*
X109218232Y-62760281D01*
X109485063Y-62800499D01*
X109485068Y-62800499D01*
X109485071Y-62800500D01*
X109485072Y-62800500D01*
X109754928Y-62800500D01*
X109754929Y-62800500D01*
X109754936Y-62800499D01*
X110021767Y-62760281D01*
X110021768Y-62760280D01*
X110021772Y-62760280D01*
X110279641Y-62680738D01*
X110522775Y-62563651D01*
X110745741Y-62411635D01*
X110943561Y-62228085D01*
X111111815Y-62017102D01*
X111246743Y-61783398D01*
X111345334Y-61532195D01*
X111405383Y-61269103D01*
X111421603Y-61052661D01*
X111425549Y-61000004D01*
X111425549Y-60999995D01*
X111405383Y-60730898D01*
X111398240Y-60699603D01*
X111345334Y-60467805D01*
X111246743Y-60216602D01*
X111111815Y-59982898D01*
X110943561Y-59771915D01*
X110943560Y-59771914D01*
X110943557Y-59771910D01*
X110745741Y-59588365D01*
X110522775Y-59436349D01*
X110522769Y-59436346D01*
X110522768Y-59436345D01*
X110522767Y-59436344D01*
X110488828Y-59420000D01*
X133918324Y-59420000D01*
X133937797Y-59667432D01*
X133995736Y-59908765D01*
X133995736Y-59908766D01*
X134090713Y-60138062D01*
X134090715Y-60138065D01*
X134220393Y-60349680D01*
X134220394Y-60349683D01*
X134220397Y-60349686D01*
X134381586Y-60538414D01*
X134512236Y-60650000D01*
X134570316Y-60699605D01*
X134570319Y-60699606D01*
X134781934Y-60829284D01*
X134781937Y-60829286D01*
X135011234Y-60924263D01*
X135218338Y-60973984D01*
X135252571Y-60982203D01*
X135500000Y-61001676D01*
X135747429Y-60982203D01*
X135988765Y-60924263D01*
X135988766Y-60924263D01*
X136218062Y-60829286D01*
X136218063Y-60829285D01*
X136218066Y-60829284D01*
X136429686Y-60699603D01*
X136618414Y-60538414D01*
X136779603Y-60349686D01*
X136909284Y-60138066D01*
X136909286Y-60138062D01*
X137004263Y-59908766D01*
X137004263Y-59908765D01*
X137029491Y-59803682D01*
X137062203Y-59667429D01*
X137081676Y-59420000D01*
X137062203Y-59172571D01*
X137041015Y-59084317D01*
X137004263Y-58931234D01*
X137004263Y-58931233D01*
X136909286Y-58701937D01*
X136909284Y-58701934D01*
X136779606Y-58490319D01*
X136779605Y-58490316D01*
X136731060Y-58433477D01*
X136618414Y-58301586D01*
X136493636Y-58195016D01*
X136429683Y-58140394D01*
X136429680Y-58140393D01*
X136218065Y-58010715D01*
X136218062Y-58010713D01*
X135988765Y-57915736D01*
X135747432Y-57857797D01*
X135500000Y-57838324D01*
X135252567Y-57857797D01*
X135011234Y-57915736D01*
X135011233Y-57915736D01*
X134781937Y-58010713D01*
X134781934Y-58010715D01*
X134570319Y-58140393D01*
X134570316Y-58140394D01*
X134381586Y-58301586D01*
X134220394Y-58490316D01*
X134220393Y-58490319D01*
X134090715Y-58701934D01*
X134090713Y-58701937D01*
X133995736Y-58931233D01*
X133995736Y-58931234D01*
X133937797Y-59172567D01*
X133918324Y-59420000D01*
X110488828Y-59420000D01*
X110279643Y-59319263D01*
X110279645Y-59319263D01*
X110021773Y-59239720D01*
X110021767Y-59239718D01*
X109754936Y-59199500D01*
X109754929Y-59199500D01*
X109485071Y-59199500D01*
X109485063Y-59199500D01*
X109218232Y-59239718D01*
X109218226Y-59239720D01*
X108960358Y-59319262D01*
X108717230Y-59436346D01*
X108494258Y-59588365D01*
X108296442Y-59771910D01*
X108128185Y-59982898D01*
X107993258Y-60216599D01*
X107993256Y-60216603D01*
X107894666Y-60467804D01*
X107894664Y-60467811D01*
X107834616Y-60730898D01*
X107814451Y-60999995D01*
X103800500Y-60999995D01*
X103800500Y-59843384D01*
X103794086Y-59772804D01*
X103743478Y-59610394D01*
X103655472Y-59464815D01*
X103655470Y-59464813D01*
X103655469Y-59464811D01*
X103535188Y-59344530D01*
X103483701Y-59313405D01*
X103389606Y-59256522D01*
X103227196Y-59205914D01*
X103227194Y-59205913D01*
X103227192Y-59205913D01*
X103177778Y-59201423D01*
X103156616Y-59199500D01*
X100843384Y-59199500D01*
X100824145Y-59201248D01*
X100772807Y-59205913D01*
X100610393Y-59256522D01*
X100464811Y-59344530D01*
X100344530Y-59464811D01*
X100256522Y-59610393D01*
X100205913Y-59772807D01*
X100199500Y-59843386D01*
X100199500Y-61546348D01*
X100179815Y-61613387D01*
X100163181Y-61634029D01*
X99339375Y-62457834D01*
X99339372Y-62457838D01*
X99246297Y-62597133D01*
X99246296Y-62597136D01*
X99211668Y-62680737D01*
X99211668Y-62680738D01*
X99182184Y-62751917D01*
X99182182Y-62751925D01*
X99149500Y-62916228D01*
X99149500Y-74375500D01*
X99129815Y-74442539D01*
X99077011Y-74488294D01*
X99025500Y-74499500D01*
X98875665Y-74499500D01*
X98630383Y-74540429D01*
X98395197Y-74621169D01*
X98395188Y-74621172D01*
X98176493Y-74739524D01*
X97980257Y-74892261D01*
X97811833Y-75075217D01*
X97675826Y-75283393D01*
X97575936Y-75511118D01*
X97514892Y-75752175D01*
X97514890Y-75752187D01*
X97494357Y-75999994D01*
X84302794Y-75999994D01*
X84965969Y-75336818D01*
X85027292Y-75303334D01*
X85053650Y-75300500D01*
X86156613Y-75300500D01*
X86156616Y-75300500D01*
X86227196Y-75294086D01*
X86389606Y-75243478D01*
X86535185Y-75155472D01*
X86655472Y-75035185D01*
X86743478Y-74889606D01*
X86794086Y-74727196D01*
X86800500Y-74656616D01*
X86800500Y-72943384D01*
X86794086Y-72872804D01*
X86743478Y-72710394D01*
X86655472Y-72564815D01*
X86655470Y-72564813D01*
X86655469Y-72564811D01*
X86535188Y-72444530D01*
X86528831Y-72440687D01*
X86481181Y-72411881D01*
X86433995Y-72360355D01*
X86422157Y-72291495D01*
X86449426Y-72227167D01*
X86454078Y-72221812D01*
X86488164Y-72184785D01*
X86624173Y-71976607D01*
X86724063Y-71748881D01*
X86785108Y-71507821D01*
X86793820Y-71402684D01*
X86805643Y-71260005D01*
X86805643Y-71259994D01*
X86785109Y-71012187D01*
X86785107Y-71012175D01*
X86724063Y-70771118D01*
X86624173Y-70543393D01*
X86488166Y-70335217D01*
X86401278Y-70240832D01*
X86319744Y-70152262D01*
X86236991Y-70087852D01*
X86196179Y-70031143D01*
X86192504Y-69961370D01*
X86227136Y-69900687D01*
X86236985Y-69892151D01*
X86319744Y-69827738D01*
X86488164Y-69644785D01*
X86624173Y-69436607D01*
X86724063Y-69208881D01*
X86776961Y-68999994D01*
X88184357Y-68999994D01*
X88184357Y-69000005D01*
X88204890Y-69247812D01*
X88204892Y-69247824D01*
X88265936Y-69488881D01*
X88365826Y-69716606D01*
X88501833Y-69924782D01*
X88523996Y-69948857D01*
X88670256Y-70107738D01*
X88866491Y-70260474D01*
X89085190Y-70378828D01*
X89320386Y-70459571D01*
X89565665Y-70500500D01*
X89814335Y-70500500D01*
X90059614Y-70459571D01*
X90294810Y-70378828D01*
X90513509Y-70260474D01*
X90709744Y-70107738D01*
X90878164Y-69924785D01*
X91014173Y-69716607D01*
X91114063Y-69488881D01*
X91175108Y-69247821D01*
X91185700Y-69120000D01*
X91195643Y-69000005D01*
X91195643Y-68999994D01*
X91175109Y-68752187D01*
X91175107Y-68752175D01*
X91114063Y-68511118D01*
X91014173Y-68283393D01*
X90878166Y-68075217D01*
X90856557Y-68051744D01*
X90709744Y-67892262D01*
X90513509Y-67739526D01*
X90513507Y-67739525D01*
X90513506Y-67739524D01*
X90294811Y-67621172D01*
X90294802Y-67621169D01*
X90059616Y-67540429D01*
X89814335Y-67499500D01*
X89565665Y-67499500D01*
X89320383Y-67540429D01*
X89085197Y-67621169D01*
X89085188Y-67621172D01*
X88866493Y-67739524D01*
X88670257Y-67892261D01*
X88501833Y-68075217D01*
X88365826Y-68283393D01*
X88265936Y-68511118D01*
X88204892Y-68752175D01*
X88204890Y-68752187D01*
X88184357Y-68999994D01*
X86776961Y-68999994D01*
X86785108Y-68967821D01*
X86792850Y-68874394D01*
X86805643Y-68720005D01*
X86805643Y-68719994D01*
X86785109Y-68472187D01*
X86785107Y-68472175D01*
X86724063Y-68231118D01*
X86624173Y-68003393D01*
X86488166Y-67795217D01*
X86442785Y-67745920D01*
X86319744Y-67612262D01*
X86123509Y-67459526D01*
X86123507Y-67459525D01*
X86123506Y-67459524D01*
X86083407Y-67437824D01*
X86083197Y-67437710D01*
X86033608Y-67388491D01*
X86018500Y-67320275D01*
X86042670Y-67254719D01*
X86071093Y-67227081D01*
X86138818Y-67179659D01*
X86299657Y-67018820D01*
X86430134Y-66832482D01*
X86526265Y-66626326D01*
X86526269Y-66626317D01*
X86578872Y-66430000D01*
X85615686Y-66430000D01*
X85620080Y-66425606D01*
X85672741Y-66334394D01*
X85700000Y-66232661D01*
X85700000Y-66127339D01*
X85672741Y-66025606D01*
X85620080Y-65934394D01*
X85615686Y-65930000D01*
X86578872Y-65930000D01*
X86578872Y-65929999D01*
X86526269Y-65733682D01*
X86526265Y-65733673D01*
X86430134Y-65527517D01*
X86299657Y-65341179D01*
X86138820Y-65180342D01*
X85952482Y-65049865D01*
X85746328Y-64953734D01*
X85550000Y-64901127D01*
X85550000Y-65864314D01*
X85545606Y-65859920D01*
X85454394Y-65807259D01*
X85352661Y-65780000D01*
X85247339Y-65780000D01*
X85145606Y-65807259D01*
X85054394Y-65859920D01*
X85050000Y-65864314D01*
X85050000Y-64901127D01*
X84853671Y-64953734D01*
X84647517Y-65049865D01*
X84461179Y-65180342D01*
X84300342Y-65341179D01*
X84169865Y-65527517D01*
X84073734Y-65733673D01*
X84073730Y-65733682D01*
X84021127Y-65929999D01*
X84021128Y-65930000D01*
X84984314Y-65930000D01*
X84979920Y-65934394D01*
X84927259Y-66025606D01*
X84900000Y-66127339D01*
X84900000Y-66232661D01*
X84927259Y-66334394D01*
X84979920Y-66425606D01*
X84984314Y-66430000D01*
X84021128Y-66430000D01*
X84073730Y-66626317D01*
X84073734Y-66626326D01*
X84169865Y-66832482D01*
X84300342Y-67018820D01*
X84461179Y-67179657D01*
X84528907Y-67227081D01*
X84572531Y-67281658D01*
X84579724Y-67351157D01*
X84548202Y-67413511D01*
X84516802Y-67437710D01*
X84476496Y-67459522D01*
X84476494Y-67459523D01*
X84280257Y-67612261D01*
X84111833Y-67795217D01*
X83975826Y-68003393D01*
X83875936Y-68231118D01*
X83814892Y-68472175D01*
X83814890Y-68472187D01*
X83794357Y-68719994D01*
X83794357Y-68720005D01*
X83814890Y-68967812D01*
X83814892Y-68967824D01*
X83875936Y-69208881D01*
X83975826Y-69436606D01*
X84111833Y-69644782D01*
X84127707Y-69662026D01*
X84280256Y-69827738D01*
X84363008Y-69892147D01*
X84403821Y-69948857D01*
X84407496Y-70018630D01*
X84372864Y-70079313D01*
X84363014Y-70087848D01*
X84304400Y-70133469D01*
X84280257Y-70152261D01*
X84111833Y-70335217D01*
X83975826Y-70543393D01*
X83875936Y-70771118D01*
X83814892Y-71012175D01*
X83814890Y-71012187D01*
X83794357Y-71259994D01*
X83794357Y-71260005D01*
X83814890Y-71507812D01*
X83814892Y-71507824D01*
X83875936Y-71748881D01*
X83975826Y-71976606D01*
X84111836Y-72184785D01*
X84145895Y-72221784D01*
X84176817Y-72284438D01*
X84168957Y-72353864D01*
X84124809Y-72408020D01*
X84118817Y-72411882D01*
X84064811Y-72444530D01*
X83944530Y-72564811D01*
X83856522Y-72710393D01*
X83805913Y-72872807D01*
X83799500Y-72943386D01*
X83799500Y-74046349D01*
X83779815Y-74113388D01*
X83763181Y-74134030D01*
X83174031Y-74723180D01*
X83112708Y-74756665D01*
X83086350Y-74759499D01*
X79074616Y-74759499D01*
X79007577Y-74739814D01*
X78961822Y-74687010D01*
X78951878Y-74617852D01*
X78970807Y-74567678D01*
X78988609Y-74540429D01*
X79004173Y-74516607D01*
X79104063Y-74288881D01*
X79165108Y-74047821D01*
X79169112Y-73999500D01*
X79185643Y-73800005D01*
X79185643Y-73799994D01*
X79165109Y-73552187D01*
X79165107Y-73552175D01*
X79104063Y-73311118D01*
X79004173Y-73083393D01*
X78868166Y-72875217D01*
X78846557Y-72851744D01*
X78699744Y-72692262D01*
X78616991Y-72627852D01*
X78576179Y-72571143D01*
X78572504Y-72501370D01*
X78607136Y-72440687D01*
X78616985Y-72432151D01*
X78699744Y-72367738D01*
X78868164Y-72184785D01*
X79004173Y-71976607D01*
X79104063Y-71748881D01*
X79165108Y-71507821D01*
X79173820Y-71402684D01*
X79185643Y-71260005D01*
X79185643Y-71259994D01*
X79165109Y-71012187D01*
X79165107Y-71012175D01*
X79104063Y-70771118D01*
X79004173Y-70543393D01*
X78868166Y-70335217D01*
X78781278Y-70240832D01*
X78699744Y-70152262D01*
X78503509Y-69999526D01*
X78503507Y-69999525D01*
X78503506Y-69999524D01*
X78463198Y-69977711D01*
X78413608Y-69928491D01*
X78398500Y-69860275D01*
X78422670Y-69794719D01*
X78451093Y-69767081D01*
X78518818Y-69719659D01*
X78679657Y-69558820D01*
X78810134Y-69372482D01*
X78906265Y-69166326D01*
X78906269Y-69166317D01*
X78958872Y-68970000D01*
X77995686Y-68970000D01*
X78000080Y-68965606D01*
X78052741Y-68874394D01*
X78080000Y-68772661D01*
X78080000Y-68667339D01*
X78052741Y-68565606D01*
X78000080Y-68474394D01*
X77995686Y-68470000D01*
X78958872Y-68470000D01*
X78958872Y-68469999D01*
X78906269Y-68273682D01*
X78906265Y-68273673D01*
X78810134Y-68067517D01*
X78679657Y-67881179D01*
X78518820Y-67720342D01*
X78332481Y-67589865D01*
X78332479Y-67589864D01*
X78273543Y-67562382D01*
X78221103Y-67516210D01*
X78201951Y-67449017D01*
X78222166Y-67382136D01*
X78273543Y-67337618D01*
X78332479Y-67310135D01*
X78332481Y-67310134D01*
X78518820Y-67179657D01*
X78679657Y-67018820D01*
X78810134Y-66832482D01*
X78906265Y-66626326D01*
X78906269Y-66626317D01*
X78958872Y-66430000D01*
X77995686Y-66430000D01*
X78000080Y-66425606D01*
X78052741Y-66334394D01*
X78080000Y-66232661D01*
X78080000Y-66127339D01*
X78052741Y-66025606D01*
X78000080Y-65934394D01*
X77995686Y-65930000D01*
X78958872Y-65930000D01*
X78958872Y-65929999D01*
X78906269Y-65733682D01*
X78906265Y-65733673D01*
X78810134Y-65527517D01*
X78679657Y-65341179D01*
X78518820Y-65180342D01*
X78332482Y-65049865D01*
X78126328Y-64953734D01*
X77930000Y-64901127D01*
X77930000Y-65864314D01*
X77925606Y-65859920D01*
X77834394Y-65807259D01*
X77732661Y-65780000D01*
X77627339Y-65780000D01*
X77525606Y-65807259D01*
X77434394Y-65859920D01*
X77430000Y-65864314D01*
X77430000Y-64901127D01*
X77233671Y-64953734D01*
X77027517Y-65049865D01*
X76841179Y-65180342D01*
X76680342Y-65341179D01*
X76549865Y-65527517D01*
X76453734Y-65733673D01*
X76453730Y-65733682D01*
X76401127Y-65929999D01*
X76401128Y-65930000D01*
X77364314Y-65930000D01*
X77359920Y-65934394D01*
X77307259Y-66025606D01*
X77280000Y-66127339D01*
X77280000Y-66232661D01*
X77307259Y-66334394D01*
X77359920Y-66425606D01*
X77364314Y-66430000D01*
X76401128Y-66430000D01*
X76453730Y-66626317D01*
X76453734Y-66626326D01*
X76549865Y-66832482D01*
X76680342Y-67018820D01*
X76841179Y-67179657D01*
X77027517Y-67310134D01*
X77086457Y-67337618D01*
X77138896Y-67383790D01*
X77158048Y-67450984D01*
X77137832Y-67517865D01*
X77086457Y-67562382D01*
X77027517Y-67589865D01*
X76841179Y-67720342D01*
X76680342Y-67881179D01*
X76549865Y-68067517D01*
X76453734Y-68273673D01*
X76453730Y-68273682D01*
X76401127Y-68469999D01*
X76401128Y-68470000D01*
X77364314Y-68470000D01*
X77359920Y-68474394D01*
X77307259Y-68565606D01*
X77280000Y-68667339D01*
X77280000Y-68772661D01*
X77307259Y-68874394D01*
X77359920Y-68965606D01*
X77364314Y-68970000D01*
X76401128Y-68970000D01*
X76453730Y-69166317D01*
X76453734Y-69166326D01*
X76549865Y-69372482D01*
X76680342Y-69558820D01*
X76841179Y-69719657D01*
X76908907Y-69767081D01*
X76952531Y-69821658D01*
X76959724Y-69891157D01*
X76928202Y-69953511D01*
X76896802Y-69977710D01*
X76856496Y-69999522D01*
X76856494Y-69999523D01*
X76660257Y-70152261D01*
X76491833Y-70335217D01*
X76355826Y-70543393D01*
X76255936Y-70771118D01*
X76194892Y-71012175D01*
X76194890Y-71012187D01*
X76174357Y-71259994D01*
X76174357Y-71260005D01*
X76194890Y-71507812D01*
X76194892Y-71507824D01*
X76255936Y-71748881D01*
X76355826Y-71976606D01*
X76491833Y-72184782D01*
X76491836Y-72184785D01*
X76660256Y-72367738D01*
X76743008Y-72432147D01*
X76783821Y-72488857D01*
X76787496Y-72558630D01*
X76752864Y-72619313D01*
X76743014Y-72627848D01*
X76684400Y-72673469D01*
X76660257Y-72692261D01*
X76491833Y-72875217D01*
X76355826Y-73083393D01*
X76255936Y-73311118D01*
X76194892Y-73552175D01*
X76194890Y-73552187D01*
X76174357Y-73799994D01*
X76174357Y-73800005D01*
X76194890Y-74047812D01*
X76194892Y-74047824D01*
X76255936Y-74288881D01*
X76355826Y-74516606D01*
X76389193Y-74567678D01*
X76409380Y-74634567D01*
X76390200Y-74701753D01*
X76337742Y-74747903D01*
X76285384Y-74759499D01*
X73615608Y-74759499D01*
X73548569Y-74739814D01*
X73502814Y-74687010D01*
X73492032Y-74645742D01*
X73485108Y-74562179D01*
X73470299Y-74503699D01*
X73424063Y-74321118D01*
X73324173Y-74093393D01*
X73188166Y-73885217D01*
X73117726Y-73808699D01*
X73019744Y-73702262D01*
X72823509Y-73549526D01*
X72823507Y-73549525D01*
X72823506Y-73549524D01*
X72604811Y-73431172D01*
X72604802Y-73431169D01*
X72369616Y-73350429D01*
X72124335Y-73309500D01*
X71875665Y-73309500D01*
X71630383Y-73350429D01*
X71395197Y-73431169D01*
X71395188Y-73431172D01*
X71176493Y-73549524D01*
X70980257Y-73702261D01*
X70811833Y-73885217D01*
X70675826Y-74093393D01*
X70575936Y-74321118D01*
X70514892Y-74562175D01*
X70514890Y-74562187D01*
X70494357Y-74809994D01*
X62950341Y-74809994D01*
X62903491Y-74624984D01*
X62811869Y-74416109D01*
X62731364Y-74292887D01*
X62177141Y-74847110D01*
X62148776Y-74778630D01*
X62080673Y-74676707D01*
X61993994Y-74590028D01*
X61892071Y-74521925D01*
X61823589Y-74493559D01*
X62379211Y-73937937D01*
X62379210Y-73937935D01*
X62352650Y-73917262D01*
X62352649Y-73917261D01*
X62152050Y-73808701D01*
X62152045Y-73808699D01*
X61936324Y-73734642D01*
X61711343Y-73697100D01*
X61483259Y-73697100D01*
X61258277Y-73734642D01*
X61042556Y-73808699D01*
X61042551Y-73808701D01*
X60841953Y-73917260D01*
X60841947Y-73917264D01*
X60815390Y-73937934D01*
X60815390Y-73937936D01*
X61371013Y-74493559D01*
X61302531Y-74521925D01*
X61200608Y-74590028D01*
X61113929Y-74676707D01*
X61045826Y-74778630D01*
X61017460Y-74847112D01*
X60463236Y-74292888D01*
X60382732Y-74416110D01*
X60382730Y-74416114D01*
X60291110Y-74624984D01*
X60235118Y-74846095D01*
X60216284Y-75073394D01*
X58200500Y-75073394D01*
X58200500Y-69993400D01*
X60015625Y-69993400D01*
X60035098Y-70240832D01*
X60093037Y-70482165D01*
X60093037Y-70482166D01*
X60188014Y-70711462D01*
X60188016Y-70711465D01*
X60317694Y-70923080D01*
X60317695Y-70923083D01*
X60317698Y-70923086D01*
X60478887Y-71111814D01*
X60624981Y-71236590D01*
X60667617Y-71273005D01*
X60667620Y-71273006D01*
X60879235Y-71402684D01*
X60879238Y-71402686D01*
X61108535Y-71497663D01*
X61150859Y-71507824D01*
X61349872Y-71555603D01*
X61597301Y-71575076D01*
X61844730Y-71555603D01*
X62086066Y-71497663D01*
X62086067Y-71497663D01*
X62315363Y-71402686D01*
X62315364Y-71402685D01*
X62315367Y-71402684D01*
X62526987Y-71273003D01*
X62715715Y-71111814D01*
X62876904Y-70923086D01*
X63006585Y-70711466D01*
X63022696Y-70672571D01*
X63101564Y-70482166D01*
X63101564Y-70482165D01*
X63113791Y-70431235D01*
X63159504Y-70240829D01*
X63178977Y-69993400D01*
X63159504Y-69745971D01*
X63148467Y-69699999D01*
X63101564Y-69504634D01*
X63101564Y-69504633D01*
X63006587Y-69275337D01*
X63006585Y-69275334D01*
X62989719Y-69247812D01*
X62876906Y-69063718D01*
X62876906Y-69063716D01*
X62822482Y-68999994D01*
X62715715Y-68874986D01*
X62534243Y-68719994D01*
X62526984Y-68713794D01*
X62526981Y-68713793D01*
X62315366Y-68584115D01*
X62315363Y-68584113D01*
X62086066Y-68489136D01*
X61844733Y-68431197D01*
X61597301Y-68411724D01*
X61349868Y-68431197D01*
X61108535Y-68489136D01*
X61108534Y-68489136D01*
X60879238Y-68584113D01*
X60879235Y-68584115D01*
X60667620Y-68713793D01*
X60667617Y-68713794D01*
X60478887Y-68874986D01*
X60317695Y-69063716D01*
X60317694Y-69063719D01*
X60188016Y-69275334D01*
X60188014Y-69275337D01*
X60093037Y-69504633D01*
X60093037Y-69504634D01*
X60035098Y-69745967D01*
X60015625Y-69993400D01*
X58200500Y-69993400D01*
X58200500Y-67189994D01*
X70494357Y-67189994D01*
X70494357Y-67190005D01*
X70514890Y-67437812D01*
X70514892Y-67437824D01*
X70575936Y-67678881D01*
X70675826Y-67906606D01*
X70811833Y-68114782D01*
X70811836Y-68114785D01*
X70980256Y-68297738D01*
X71176491Y-68450474D01*
X71176493Y-68450475D01*
X71377234Y-68559111D01*
X71395190Y-68568828D01*
X71630386Y-68649571D01*
X71875665Y-68690500D01*
X72124335Y-68690500D01*
X72369614Y-68649571D01*
X72604810Y-68568828D01*
X72823509Y-68450474D01*
X73019744Y-68297738D01*
X73188164Y-68114785D01*
X73324173Y-67906607D01*
X73424063Y-67678881D01*
X73485108Y-67437821D01*
X73485117Y-67437710D01*
X73505643Y-67190005D01*
X73505643Y-67189994D01*
X73485109Y-66942187D01*
X73485107Y-66942175D01*
X73424063Y-66701118D01*
X73324173Y-66473393D01*
X73188166Y-66265217D01*
X73061240Y-66127339D01*
X73019744Y-66082262D01*
X72823509Y-65929526D01*
X72823507Y-65929525D01*
X72823506Y-65929524D01*
X72604811Y-65811172D01*
X72604802Y-65811169D01*
X72369616Y-65730429D01*
X72124335Y-65689500D01*
X71875665Y-65689500D01*
X71630383Y-65730429D01*
X71395197Y-65811169D01*
X71395188Y-65811172D01*
X71176493Y-65929524D01*
X70980257Y-66082261D01*
X70811833Y-66265217D01*
X70675826Y-66473393D01*
X70575936Y-66701118D01*
X70514892Y-66942175D01*
X70514890Y-66942187D01*
X70494357Y-67189994D01*
X58200500Y-67189994D01*
X58200500Y-64309995D01*
X62694451Y-64309995D01*
X62694451Y-64310004D01*
X62714616Y-64579101D01*
X62774664Y-64842188D01*
X62774666Y-64842195D01*
X62871281Y-65088365D01*
X62873257Y-65093398D01*
X63008185Y-65327102D01*
X63132429Y-65482898D01*
X63176442Y-65538089D01*
X63339626Y-65689500D01*
X63374259Y-65721635D01*
X63597226Y-65873651D01*
X63840359Y-65990738D01*
X64098228Y-66070280D01*
X64098229Y-66070280D01*
X64098232Y-66070281D01*
X64365063Y-66110499D01*
X64365068Y-66110499D01*
X64365071Y-66110500D01*
X64365072Y-66110500D01*
X64634928Y-66110500D01*
X64634929Y-66110500D01*
X64634936Y-66110499D01*
X64901767Y-66070281D01*
X64901768Y-66070280D01*
X64901772Y-66070280D01*
X65159641Y-65990738D01*
X65402775Y-65873651D01*
X65625741Y-65721635D01*
X65823561Y-65538085D01*
X65991815Y-65327102D01*
X66126743Y-65093398D01*
X66128719Y-65088365D01*
X66167809Y-64988765D01*
X66225334Y-64842195D01*
X66285383Y-64579103D01*
X66305549Y-64310000D01*
X66301245Y-64252571D01*
X66285383Y-64040898D01*
X66278613Y-64011235D01*
X66225334Y-63777805D01*
X66126743Y-63526602D01*
X65991815Y-63292898D01*
X65823561Y-63081915D01*
X65823560Y-63081914D01*
X65823557Y-63081910D01*
X65625741Y-62898365D01*
X65402775Y-62746349D01*
X65402769Y-62746346D01*
X65402768Y-62746345D01*
X65402767Y-62746344D01*
X65159643Y-62629263D01*
X65159645Y-62629263D01*
X64901773Y-62549720D01*
X64901767Y-62549718D01*
X64634936Y-62509500D01*
X64634929Y-62509500D01*
X64365071Y-62509500D01*
X64365063Y-62509500D01*
X64098232Y-62549718D01*
X64098226Y-62549720D01*
X63840358Y-62629262D01*
X63597230Y-62746346D01*
X63374258Y-62898365D01*
X63176442Y-63081910D01*
X63008185Y-63292898D01*
X62873258Y-63526599D01*
X62873256Y-63526603D01*
X62774666Y-63777804D01*
X62774664Y-63777811D01*
X62714616Y-64040898D01*
X62694451Y-64309995D01*
X58200500Y-64309995D01*
X58200500Y-60249997D01*
X69695034Y-60249997D01*
X69695034Y-60250002D01*
X69714858Y-60476599D01*
X69714860Y-60476610D01*
X69773730Y-60696317D01*
X69773735Y-60696331D01*
X69869863Y-60902478D01*
X69920974Y-60975472D01*
X70600000Y-60296446D01*
X70600000Y-60302661D01*
X70627259Y-60404394D01*
X70679920Y-60495606D01*
X70754394Y-60570080D01*
X70845606Y-60622741D01*
X70947339Y-60650000D01*
X70953553Y-60650000D01*
X70274526Y-61329025D01*
X70347513Y-61380132D01*
X70347521Y-61380136D01*
X70553668Y-61476264D01*
X70553682Y-61476269D01*
X70773389Y-61535139D01*
X70773400Y-61535141D01*
X70999998Y-61554966D01*
X71000002Y-61554966D01*
X71226599Y-61535141D01*
X71226610Y-61535139D01*
X71446317Y-61476269D01*
X71446331Y-61476264D01*
X71652478Y-61380136D01*
X71725471Y-61329024D01*
X71396444Y-60999997D01*
X76695034Y-60999997D01*
X76695034Y-61000002D01*
X76714858Y-61226599D01*
X76714860Y-61226610D01*
X76773730Y-61446317D01*
X76773735Y-61446331D01*
X76869863Y-61652478D01*
X76920974Y-61725472D01*
X77600000Y-61046446D01*
X77600000Y-61052661D01*
X77627259Y-61154394D01*
X77679920Y-61245606D01*
X77754394Y-61320080D01*
X77845606Y-61372741D01*
X77947339Y-61400000D01*
X77953553Y-61400000D01*
X77274526Y-62079025D01*
X77347513Y-62130132D01*
X77347521Y-62130136D01*
X77553668Y-62226264D01*
X77553682Y-62226269D01*
X77773389Y-62285139D01*
X77773400Y-62285141D01*
X77999998Y-62304966D01*
X78000002Y-62304966D01*
X78226599Y-62285141D01*
X78226610Y-62285139D01*
X78446317Y-62226269D01*
X78446331Y-62226264D01*
X78652478Y-62130136D01*
X78725471Y-62079024D01*
X78046447Y-61400000D01*
X78052661Y-61400000D01*
X78154394Y-61372741D01*
X78245606Y-61320080D01*
X78320080Y-61245606D01*
X78372741Y-61154394D01*
X78400000Y-61052661D01*
X78400000Y-61046447D01*
X79079024Y-61725471D01*
X79130136Y-61652478D01*
X79226264Y-61446331D01*
X79226269Y-61446317D01*
X79285139Y-61226610D01*
X79285141Y-61226599D01*
X79304966Y-61000002D01*
X79304966Y-60999997D01*
X82195034Y-60999997D01*
X82195034Y-61000002D01*
X82214858Y-61226599D01*
X82214860Y-61226610D01*
X82273730Y-61446317D01*
X82273735Y-61446331D01*
X82369863Y-61652478D01*
X82420974Y-61725472D01*
X83100000Y-61046446D01*
X83100000Y-61052661D01*
X83127259Y-61154394D01*
X83179920Y-61245606D01*
X83254394Y-61320080D01*
X83345606Y-61372741D01*
X83447339Y-61400000D01*
X83453553Y-61400000D01*
X82774526Y-62079025D01*
X82847513Y-62130132D01*
X82847521Y-62130136D01*
X83053668Y-62226264D01*
X83053682Y-62226269D01*
X83273389Y-62285139D01*
X83273400Y-62285141D01*
X83499998Y-62304966D01*
X83500002Y-62304966D01*
X83726599Y-62285141D01*
X83726610Y-62285139D01*
X83946317Y-62226269D01*
X83946331Y-62226264D01*
X84152478Y-62130136D01*
X84225471Y-62079024D01*
X83546447Y-61400000D01*
X83552661Y-61400000D01*
X83654394Y-61372741D01*
X83745606Y-61320080D01*
X83820080Y-61245606D01*
X83872741Y-61154394D01*
X83900000Y-61052661D01*
X83900000Y-61046447D01*
X84579024Y-61725471D01*
X84630136Y-61652478D01*
X84726264Y-61446331D01*
X84726269Y-61446317D01*
X84785139Y-61226610D01*
X84785141Y-61226599D01*
X84804966Y-61000002D01*
X84804966Y-60999997D01*
X84785141Y-60773400D01*
X84785139Y-60773389D01*
X84726269Y-60553682D01*
X84726264Y-60553668D01*
X84630136Y-60347521D01*
X84630132Y-60347513D01*
X84579025Y-60274526D01*
X83900000Y-60953551D01*
X83900000Y-60947339D01*
X83872741Y-60845606D01*
X83820080Y-60754394D01*
X83745606Y-60679920D01*
X83654394Y-60627259D01*
X83552661Y-60600000D01*
X83546448Y-60600000D01*
X84225472Y-59920974D01*
X84152478Y-59869863D01*
X83946331Y-59773735D01*
X83946317Y-59773730D01*
X83726610Y-59714860D01*
X83726599Y-59714858D01*
X83500002Y-59695034D01*
X83499998Y-59695034D01*
X83273400Y-59714858D01*
X83273389Y-59714860D01*
X83053682Y-59773730D01*
X83053673Y-59773734D01*
X82847516Y-59869866D01*
X82847512Y-59869868D01*
X82774526Y-59920973D01*
X82774526Y-59920974D01*
X83453553Y-60600000D01*
X83447339Y-60600000D01*
X83345606Y-60627259D01*
X83254394Y-60679920D01*
X83179920Y-60754394D01*
X83127259Y-60845606D01*
X83100000Y-60947339D01*
X83100000Y-60953552D01*
X82420974Y-60274526D01*
X82420973Y-60274526D01*
X82369868Y-60347512D01*
X82369866Y-60347516D01*
X82273734Y-60553673D01*
X82273730Y-60553682D01*
X82214860Y-60773389D01*
X82214858Y-60773400D01*
X82195034Y-60999997D01*
X79304966Y-60999997D01*
X79285141Y-60773400D01*
X79285139Y-60773389D01*
X79226269Y-60553682D01*
X79226264Y-60553668D01*
X79130136Y-60347521D01*
X79130132Y-60347513D01*
X79079025Y-60274526D01*
X78400000Y-60953551D01*
X78400000Y-60947339D01*
X78372741Y-60845606D01*
X78320080Y-60754394D01*
X78245606Y-60679920D01*
X78154394Y-60627259D01*
X78052661Y-60600000D01*
X78046448Y-60600000D01*
X78725472Y-59920974D01*
X78652478Y-59869863D01*
X78446331Y-59773735D01*
X78446317Y-59773730D01*
X78226610Y-59714860D01*
X78226599Y-59714858D01*
X78000002Y-59695034D01*
X77999998Y-59695034D01*
X77773400Y-59714858D01*
X77773389Y-59714860D01*
X77553682Y-59773730D01*
X77553673Y-59773734D01*
X77347516Y-59869866D01*
X77347512Y-59869868D01*
X77274526Y-59920973D01*
X77274526Y-59920974D01*
X77953553Y-60600000D01*
X77947339Y-60600000D01*
X77845606Y-60627259D01*
X77754394Y-60679920D01*
X77679920Y-60754394D01*
X77627259Y-60845606D01*
X77600000Y-60947339D01*
X77600000Y-60953552D01*
X76920974Y-60274526D01*
X76920973Y-60274526D01*
X76869868Y-60347512D01*
X76869866Y-60347516D01*
X76773734Y-60553673D01*
X76773730Y-60553682D01*
X76714860Y-60773389D01*
X76714858Y-60773400D01*
X76695034Y-60999997D01*
X71396444Y-60999997D01*
X71046447Y-60650000D01*
X71052661Y-60650000D01*
X71154394Y-60622741D01*
X71245606Y-60570080D01*
X71320080Y-60495606D01*
X71372741Y-60404394D01*
X71400000Y-60302661D01*
X71400000Y-60296447D01*
X72079024Y-60975471D01*
X72130136Y-60902478D01*
X72226264Y-60696331D01*
X72226269Y-60696317D01*
X72285139Y-60476610D01*
X72285141Y-60476599D01*
X72304966Y-60250002D01*
X72304966Y-60249997D01*
X72285141Y-60023400D01*
X72285139Y-60023389D01*
X72226269Y-59803682D01*
X72226264Y-59803668D01*
X72130136Y-59597521D01*
X72130132Y-59597513D01*
X72079025Y-59524526D01*
X71400000Y-60203551D01*
X71400000Y-60197339D01*
X71372741Y-60095606D01*
X71320080Y-60004394D01*
X71245606Y-59929920D01*
X71154394Y-59877259D01*
X71052661Y-59850000D01*
X71046448Y-59850000D01*
X71725472Y-59170974D01*
X71652478Y-59119863D01*
X71446331Y-59023735D01*
X71446317Y-59023730D01*
X71226610Y-58964860D01*
X71226599Y-58964858D01*
X71000002Y-58945034D01*
X70999998Y-58945034D01*
X70773400Y-58964858D01*
X70773389Y-58964860D01*
X70553682Y-59023730D01*
X70553673Y-59023734D01*
X70347516Y-59119866D01*
X70347512Y-59119868D01*
X70274526Y-59170973D01*
X70274526Y-59170974D01*
X70953553Y-59850000D01*
X70947339Y-59850000D01*
X70845606Y-59877259D01*
X70754394Y-59929920D01*
X70679920Y-60004394D01*
X70627259Y-60095606D01*
X70600000Y-60197339D01*
X70600000Y-60203552D01*
X69920974Y-59524526D01*
X69920973Y-59524526D01*
X69869868Y-59597512D01*
X69869866Y-59597516D01*
X69773734Y-59803673D01*
X69773730Y-59803682D01*
X69714860Y-60023389D01*
X69714858Y-60023400D01*
X69695034Y-60249997D01*
X58200500Y-60249997D01*
X58200500Y-55533386D01*
X62699500Y-55533386D01*
X62699500Y-57846613D01*
X62705913Y-57917192D01*
X62705913Y-57917194D01*
X62705914Y-57917196D01*
X62756522Y-58079606D01*
X62835088Y-58209570D01*
X62844530Y-58225188D01*
X62964811Y-58345469D01*
X62964813Y-58345470D01*
X62964815Y-58345472D01*
X63110394Y-58433478D01*
X63272804Y-58484086D01*
X63343384Y-58490500D01*
X63343387Y-58490500D01*
X65656613Y-58490500D01*
X65656616Y-58490500D01*
X65727196Y-58484086D01*
X65889606Y-58433478D01*
X66035185Y-58345472D01*
X66155472Y-58225185D01*
X66243478Y-58079606D01*
X66294086Y-57917196D01*
X66300500Y-57846616D01*
X66300500Y-56749994D01*
X69494357Y-56749994D01*
X69494357Y-56750005D01*
X69514890Y-56997812D01*
X69514892Y-56997824D01*
X69575936Y-57238881D01*
X69675826Y-57466606D01*
X69811833Y-57674782D01*
X69811836Y-57674785D01*
X69980256Y-57857738D01*
X70176491Y-58010474D01*
X70395190Y-58128828D01*
X70630386Y-58209571D01*
X70875665Y-58250500D01*
X71124335Y-58250500D01*
X71369614Y-58209571D01*
X71604810Y-58128828D01*
X71823509Y-58010474D01*
X71836969Y-57999998D01*
X88494390Y-57999998D01*
X88494390Y-58000001D01*
X88514804Y-58285433D01*
X88575628Y-58565037D01*
X88675635Y-58833166D01*
X88812770Y-59084309D01*
X88812775Y-59084317D01*
X88984254Y-59313387D01*
X88984270Y-59313405D01*
X89186594Y-59515729D01*
X89186612Y-59515745D01*
X89415682Y-59687224D01*
X89415690Y-59687229D01*
X89666833Y-59824364D01*
X89666832Y-59824364D01*
X89666836Y-59824365D01*
X89666839Y-59824367D01*
X89934954Y-59924369D01*
X89934960Y-59924370D01*
X89934962Y-59924371D01*
X90214566Y-59985195D01*
X90214568Y-59985195D01*
X90214572Y-59985196D01*
X90468220Y-60003337D01*
X90499999Y-60005610D01*
X90500000Y-60005610D01*
X90500001Y-60005610D01*
X90528595Y-60003564D01*
X90785428Y-59985196D01*
X91039529Y-59929920D01*
X91065037Y-59924371D01*
X91065037Y-59924370D01*
X91065046Y-59924369D01*
X91333161Y-59824367D01*
X91584315Y-59687226D01*
X91813395Y-59515739D01*
X92015739Y-59313395D01*
X92187226Y-59084315D01*
X92324367Y-58833161D01*
X92424369Y-58565046D01*
X92440625Y-58490319D01*
X92485195Y-58285433D01*
X92485195Y-58285432D01*
X92485196Y-58285428D01*
X92505610Y-58000000D01*
X92505610Y-57999998D01*
X93494390Y-57999998D01*
X93494390Y-58000001D01*
X93514804Y-58285433D01*
X93575628Y-58565037D01*
X93675635Y-58833166D01*
X93812770Y-59084309D01*
X93812775Y-59084317D01*
X93984254Y-59313387D01*
X93984270Y-59313405D01*
X94186594Y-59515729D01*
X94186612Y-59515745D01*
X94415682Y-59687224D01*
X94415690Y-59687229D01*
X94666833Y-59824364D01*
X94666832Y-59824364D01*
X94666836Y-59824365D01*
X94666839Y-59824367D01*
X94934954Y-59924369D01*
X94934960Y-59924370D01*
X94934962Y-59924371D01*
X95214566Y-59985195D01*
X95214568Y-59985195D01*
X95214572Y-59985196D01*
X95468220Y-60003337D01*
X95499999Y-60005610D01*
X95500000Y-60005610D01*
X95500001Y-60005610D01*
X95528595Y-60003564D01*
X95785428Y-59985196D01*
X96039529Y-59929920D01*
X96065037Y-59924371D01*
X96065037Y-59924370D01*
X96065046Y-59924369D01*
X96333161Y-59824367D01*
X96584315Y-59687226D01*
X96813395Y-59515739D01*
X96864323Y-59464811D01*
X96937819Y-59391316D01*
X96999142Y-59357831D01*
X97068834Y-59362815D01*
X97124767Y-59404687D01*
X97149184Y-59470151D01*
X97149500Y-59478997D01*
X97149500Y-67400511D01*
X97129815Y-67467550D01*
X97077011Y-67513305D01*
X97045910Y-67522820D01*
X96940382Y-67540429D01*
X96705197Y-67621169D01*
X96705188Y-67621172D01*
X96486493Y-67739524D01*
X96290257Y-67892261D01*
X96121833Y-68075217D01*
X95985826Y-68283393D01*
X95885936Y-68511118D01*
X95824892Y-68752175D01*
X95824890Y-68752187D01*
X95804357Y-68999994D01*
X95804357Y-69000005D01*
X95824890Y-69247812D01*
X95824892Y-69247824D01*
X95885936Y-69488881D01*
X95985826Y-69716606D01*
X96121833Y-69924782D01*
X96143996Y-69948857D01*
X96290256Y-70107738D01*
X96486491Y-70260474D01*
X96705190Y-70378828D01*
X96940386Y-70459571D01*
X97185665Y-70500500D01*
X97434335Y-70500500D01*
X97679614Y-70459571D01*
X97914810Y-70378828D01*
X98133509Y-70260474D01*
X98329744Y-70107738D01*
X98498164Y-69924785D01*
X98634173Y-69716607D01*
X98734063Y-69488881D01*
X98795108Y-69247821D01*
X98805700Y-69120000D01*
X98815643Y-69000005D01*
X98815643Y-68999994D01*
X98795109Y-68752193D01*
X98795108Y-68752179D01*
X98783319Y-68705627D01*
X98785943Y-68635810D01*
X98788958Y-68627748D01*
X98817816Y-68558082D01*
X98850500Y-68393767D01*
X98850500Y-59093651D01*
X98870185Y-59026612D01*
X98886819Y-59005970D01*
X101555970Y-56336819D01*
X101617293Y-56303334D01*
X101643651Y-56300500D01*
X103346613Y-56300500D01*
X103346616Y-56300500D01*
X103417196Y-56294086D01*
X103579606Y-56243478D01*
X103725185Y-56155472D01*
X103845472Y-56035185D01*
X103933478Y-55889606D01*
X103984086Y-55727196D01*
X103990500Y-55656616D01*
X103990500Y-54499995D01*
X108004451Y-54499995D01*
X108004451Y-54500004D01*
X108024616Y-54769101D01*
X108084664Y-55032188D01*
X108084666Y-55032195D01*
X108183256Y-55283396D01*
X108183258Y-55283400D01*
X108211770Y-55332784D01*
X108318185Y-55517102D01*
X108417997Y-55642262D01*
X108486442Y-55728089D01*
X108591120Y-55825215D01*
X108684259Y-55911635D01*
X108907226Y-56063651D01*
X109150359Y-56180738D01*
X109408228Y-56260280D01*
X109408229Y-56260280D01*
X109408232Y-56260281D01*
X109675063Y-56300499D01*
X109675068Y-56300499D01*
X109675071Y-56300500D01*
X109675072Y-56300500D01*
X109944928Y-56300500D01*
X109944929Y-56300500D01*
X109944936Y-56300499D01*
X110211767Y-56260281D01*
X110211768Y-56260280D01*
X110211772Y-56260280D01*
X110469641Y-56180738D01*
X110687898Y-56075631D01*
X110712767Y-56063655D01*
X110712767Y-56063654D01*
X110712775Y-56063651D01*
X110935741Y-55911635D01*
X111133561Y-55728085D01*
X111301815Y-55517102D01*
X111436743Y-55283398D01*
X111535334Y-55032195D01*
X111595383Y-54769103D01*
X111607839Y-54602887D01*
X111615549Y-54500004D01*
X111615549Y-54499995D01*
X111595383Y-54230898D01*
X111535335Y-53967811D01*
X111535334Y-53967805D01*
X111436743Y-53716602D01*
X111301815Y-53482898D01*
X111133561Y-53271915D01*
X111133560Y-53271914D01*
X111133557Y-53271910D01*
X110935741Y-53088365D01*
X110806131Y-52999998D01*
X118094645Y-52999998D01*
X118094645Y-53000001D01*
X118114039Y-53271160D01*
X118114040Y-53271167D01*
X118132168Y-53354500D01*
X118171825Y-53536801D01*
X118238888Y-53716602D01*
X118266830Y-53791519D01*
X118397109Y-54030107D01*
X118397110Y-54030108D01*
X118397113Y-54030113D01*
X118560029Y-54247742D01*
X118560033Y-54247746D01*
X118560038Y-54247752D01*
X118752247Y-54439961D01*
X118752253Y-54439966D01*
X118752258Y-54439971D01*
X118969887Y-54602887D01*
X118969891Y-54602889D01*
X118969892Y-54602890D01*
X119208481Y-54733169D01*
X119208480Y-54733169D01*
X119208484Y-54733170D01*
X119208487Y-54733172D01*
X119463199Y-54828175D01*
X119728840Y-54885961D01*
X119980605Y-54903967D01*
X119999999Y-54905355D01*
X120000000Y-54905355D01*
X120000001Y-54905355D01*
X120018100Y-54904060D01*
X120271160Y-54885961D01*
X120536801Y-54828175D01*
X120791513Y-54733172D01*
X120791517Y-54733169D01*
X120791519Y-54733169D01*
X120996632Y-54621169D01*
X121030113Y-54602887D01*
X121247742Y-54439971D01*
X121439971Y-54247742D01*
X121602887Y-54030113D01*
X121733172Y-53791513D01*
X121828175Y-53536801D01*
X121885961Y-53271160D01*
X121905355Y-53000000D01*
X121885961Y-52728840D01*
X121828175Y-52463199D01*
X121733172Y-52208487D01*
X121733170Y-52208484D01*
X121733169Y-52208480D01*
X121602890Y-51969892D01*
X121602889Y-51969891D01*
X121602887Y-51969887D01*
X121545628Y-51893399D01*
X135645500Y-51893399D01*
X135645500Y-52106600D01*
X135678853Y-52317180D01*
X135678853Y-52317183D01*
X135744734Y-52519944D01*
X135744736Y-52519947D01*
X135841528Y-52709913D01*
X135966846Y-52882397D01*
X136117603Y-53033154D01*
X136290087Y-53158472D01*
X136480053Y-53255264D01*
X136480055Y-53255265D01*
X136669182Y-53316715D01*
X136682821Y-53321147D01*
X136893399Y-53354500D01*
X136893400Y-53354500D01*
X137106600Y-53354500D01*
X137106601Y-53354500D01*
X137317179Y-53321147D01*
X137317182Y-53321146D01*
X137317183Y-53321146D01*
X137519944Y-53255265D01*
X137519944Y-53255264D01*
X137519947Y-53255264D01*
X137709913Y-53158472D01*
X137882397Y-53033154D01*
X138033154Y-52882397D01*
X138158472Y-52709913D01*
X138255264Y-52519947D01*
X138273700Y-52463206D01*
X138321146Y-52317183D01*
X138321146Y-52317182D01*
X138321147Y-52317179D01*
X138354500Y-52106601D01*
X138354500Y-51893399D01*
X138321147Y-51682821D01*
X138321146Y-51682817D01*
X138321146Y-51682816D01*
X138255265Y-51480055D01*
X138255263Y-51480052D01*
X138213003Y-51397110D01*
X138158472Y-51290087D01*
X138033154Y-51117603D01*
X137882397Y-50966846D01*
X137709913Y-50841528D01*
X137519947Y-50744736D01*
X137519944Y-50744734D01*
X137317181Y-50678853D01*
X137176793Y-50656617D01*
X137106601Y-50645500D01*
X136893399Y-50645500D01*
X136823206Y-50656617D01*
X136682819Y-50678853D01*
X136682816Y-50678853D01*
X136480055Y-50744734D01*
X136480052Y-50744736D01*
X136290086Y-50841528D01*
X136117601Y-50966847D01*
X135966847Y-51117601D01*
X135841528Y-51290086D01*
X135744736Y-51480052D01*
X135744734Y-51480055D01*
X135678853Y-51682816D01*
X135678853Y-51682819D01*
X135645500Y-51893399D01*
X121545628Y-51893399D01*
X121439971Y-51752258D01*
X121439966Y-51752253D01*
X121439961Y-51752247D01*
X121247752Y-51560038D01*
X121247746Y-51560033D01*
X121247742Y-51560029D01*
X121030113Y-51397113D01*
X121030108Y-51397110D01*
X121030107Y-51397109D01*
X120791518Y-51266830D01*
X120791519Y-51266830D01*
X120741920Y-51248330D01*
X120536801Y-51171825D01*
X120536794Y-51171823D01*
X120536793Y-51171823D01*
X120271167Y-51114040D01*
X120271160Y-51114039D01*
X120000001Y-51094645D01*
X119999999Y-51094645D01*
X119728839Y-51114039D01*
X119728832Y-51114040D01*
X119463206Y-51171823D01*
X119463202Y-51171824D01*
X119463199Y-51171825D01*
X119335843Y-51219326D01*
X119208480Y-51266830D01*
X118969892Y-51397109D01*
X118969891Y-51397110D01*
X118752259Y-51560028D01*
X118752247Y-51560038D01*
X118560038Y-51752247D01*
X118560028Y-51752259D01*
X118397110Y-51969891D01*
X118397109Y-51969892D01*
X118266830Y-52208480D01*
X118226288Y-52317179D01*
X118171825Y-52463199D01*
X118171824Y-52463202D01*
X118171823Y-52463206D01*
X118114040Y-52728832D01*
X118114039Y-52728839D01*
X118094645Y-52999998D01*
X110806131Y-52999998D01*
X110712775Y-52936349D01*
X110712769Y-52936346D01*
X110712768Y-52936345D01*
X110712767Y-52936344D01*
X110469643Y-52819263D01*
X110469645Y-52819263D01*
X110211773Y-52739720D01*
X110211767Y-52739718D01*
X109944936Y-52699500D01*
X109944929Y-52699500D01*
X109675071Y-52699500D01*
X109675063Y-52699500D01*
X109408232Y-52739718D01*
X109408226Y-52739720D01*
X109150358Y-52819262D01*
X108907230Y-52936346D01*
X108684258Y-53088365D01*
X108486442Y-53271910D01*
X108318185Y-53482898D01*
X108183258Y-53716599D01*
X108183256Y-53716603D01*
X108084666Y-53967804D01*
X108084664Y-53967811D01*
X108024616Y-54230898D01*
X108004451Y-54499995D01*
X103990500Y-54499995D01*
X103990500Y-53343384D01*
X103984086Y-53272804D01*
X103933478Y-53110394D01*
X103845472Y-52964815D01*
X103845470Y-52964813D01*
X103845469Y-52964811D01*
X103725188Y-52844530D01*
X103579606Y-52756522D01*
X103525679Y-52739718D01*
X103417196Y-52705914D01*
X103417194Y-52705913D01*
X103417192Y-52705913D01*
X103367778Y-52701423D01*
X103346616Y-52699500D01*
X101033384Y-52699500D01*
X101014145Y-52701248D01*
X100962807Y-52705913D01*
X100800393Y-52756522D01*
X100654811Y-52844530D01*
X100534530Y-52964811D01*
X100446522Y-53110393D01*
X100395913Y-53272807D01*
X100389500Y-53343386D01*
X100389500Y-55046348D01*
X100369815Y-55113387D01*
X100353181Y-55134029D01*
X97696376Y-57790833D01*
X97635053Y-57824318D01*
X97565361Y-57819334D01*
X97509428Y-57777462D01*
X97487513Y-57718706D01*
X97485825Y-57718949D01*
X97485196Y-57714583D01*
X97485196Y-57714572D01*
X97431255Y-57466607D01*
X97424371Y-57434962D01*
X97424370Y-57434960D01*
X97424369Y-57434954D01*
X97324367Y-57166839D01*
X97292095Y-57107738D01*
X97187229Y-56915690D01*
X97187224Y-56915682D01*
X97015745Y-56686612D01*
X97015729Y-56686594D01*
X96813405Y-56484270D01*
X96813387Y-56484254D01*
X96584317Y-56312775D01*
X96584309Y-56312770D01*
X96333166Y-56175635D01*
X96333167Y-56175635D01*
X96225915Y-56135632D01*
X96065046Y-56075631D01*
X96065043Y-56075630D01*
X96065037Y-56075628D01*
X95785433Y-56014804D01*
X95500001Y-55994390D01*
X95499999Y-55994390D01*
X95214566Y-56014804D01*
X94934962Y-56075628D01*
X94666833Y-56175635D01*
X94415690Y-56312770D01*
X94415682Y-56312775D01*
X94186612Y-56484254D01*
X94186594Y-56484270D01*
X93984270Y-56686594D01*
X93984254Y-56686612D01*
X93812775Y-56915682D01*
X93812770Y-56915690D01*
X93675635Y-57166833D01*
X93575628Y-57434962D01*
X93514804Y-57714566D01*
X93494390Y-57999998D01*
X92505610Y-57999998D01*
X92485196Y-57714572D01*
X92485194Y-57714564D01*
X92424371Y-57434962D01*
X92424370Y-57434960D01*
X92424369Y-57434954D01*
X92324367Y-57166839D01*
X92292095Y-57107738D01*
X92187229Y-56915690D01*
X92187224Y-56915682D01*
X92015745Y-56686612D01*
X92015729Y-56686594D01*
X91813405Y-56484270D01*
X91813387Y-56484254D01*
X91584317Y-56312775D01*
X91584309Y-56312770D01*
X91333166Y-56175635D01*
X91333167Y-56175635D01*
X91225915Y-56135632D01*
X91065046Y-56075631D01*
X91065043Y-56075630D01*
X91065037Y-56075628D01*
X90785433Y-56014804D01*
X90500001Y-55994390D01*
X90499999Y-55994390D01*
X90214566Y-56014804D01*
X89934962Y-56075628D01*
X89666833Y-56175635D01*
X89415690Y-56312770D01*
X89415682Y-56312775D01*
X89186612Y-56484254D01*
X89186594Y-56484270D01*
X88984270Y-56686594D01*
X88984254Y-56686612D01*
X88812775Y-56915682D01*
X88812770Y-56915690D01*
X88675635Y-57166833D01*
X88575628Y-57434962D01*
X88514804Y-57714566D01*
X88494390Y-57999998D01*
X71836969Y-57999998D01*
X72019744Y-57857738D01*
X72188164Y-57674785D01*
X72324173Y-57466607D01*
X72424063Y-57238881D01*
X72485108Y-56997821D01*
X72491914Y-56915685D01*
X72505643Y-56750005D01*
X72505643Y-56749994D01*
X72485109Y-56502187D01*
X72485107Y-56502175D01*
X72424063Y-56261118D01*
X72324173Y-56033393D01*
X72302353Y-55999994D01*
X76494357Y-55999994D01*
X76494357Y-56000005D01*
X76514890Y-56247812D01*
X76514892Y-56247824D01*
X76575936Y-56488881D01*
X76675826Y-56716606D01*
X76811833Y-56924782D01*
X76811836Y-56924785D01*
X76980256Y-57107738D01*
X77176491Y-57260474D01*
X77395190Y-57378828D01*
X77630386Y-57459571D01*
X77875665Y-57500500D01*
X78124335Y-57500500D01*
X78369614Y-57459571D01*
X78604810Y-57378828D01*
X78823509Y-57260474D01*
X79019744Y-57107738D01*
X79188164Y-56924785D01*
X79324173Y-56716607D01*
X79424063Y-56488881D01*
X79485108Y-56247821D01*
X79490667Y-56180736D01*
X79505643Y-56000005D01*
X79505643Y-55999994D01*
X81994357Y-55999994D01*
X81994357Y-56000005D01*
X82014890Y-56247812D01*
X82014892Y-56247824D01*
X82075936Y-56488881D01*
X82175826Y-56716606D01*
X82311833Y-56924782D01*
X82311836Y-56924785D01*
X82480256Y-57107738D01*
X82676491Y-57260474D01*
X82895190Y-57378828D01*
X83130386Y-57459571D01*
X83375665Y-57500500D01*
X83624335Y-57500500D01*
X83869614Y-57459571D01*
X84104810Y-57378828D01*
X84323509Y-57260474D01*
X84519744Y-57107738D01*
X84688164Y-56924785D01*
X84824173Y-56716607D01*
X84924063Y-56488881D01*
X84985108Y-56247821D01*
X84990667Y-56180736D01*
X85005643Y-56000005D01*
X85005643Y-55999994D01*
X84985109Y-55752187D01*
X84985107Y-55752175D01*
X84924063Y-55511118D01*
X84824173Y-55283393D01*
X84688166Y-55075217D01*
X84648555Y-55032188D01*
X84519744Y-54892262D01*
X84323509Y-54739526D01*
X84323507Y-54739525D01*
X84323506Y-54739524D01*
X84104811Y-54621172D01*
X84104802Y-54621169D01*
X83869616Y-54540429D01*
X83624335Y-54499500D01*
X83375665Y-54499500D01*
X83130383Y-54540429D01*
X82895197Y-54621169D01*
X82895188Y-54621172D01*
X82676493Y-54739524D01*
X82480257Y-54892261D01*
X82311833Y-55075217D01*
X82175826Y-55283393D01*
X82075936Y-55511118D01*
X82014892Y-55752175D01*
X82014890Y-55752187D01*
X81994357Y-55999994D01*
X79505643Y-55999994D01*
X79485109Y-55752187D01*
X79485107Y-55752175D01*
X79424063Y-55511118D01*
X79324173Y-55283393D01*
X79188166Y-55075217D01*
X79148555Y-55032188D01*
X79019744Y-54892262D01*
X78823509Y-54739526D01*
X78823507Y-54739525D01*
X78823506Y-54739524D01*
X78604811Y-54621172D01*
X78604802Y-54621169D01*
X78369616Y-54540429D01*
X78124335Y-54499500D01*
X77875665Y-54499500D01*
X77630383Y-54540429D01*
X77395197Y-54621169D01*
X77395188Y-54621172D01*
X77176493Y-54739524D01*
X76980257Y-54892261D01*
X76811833Y-55075217D01*
X76675826Y-55283393D01*
X76575936Y-55511118D01*
X76514892Y-55752175D01*
X76514890Y-55752187D01*
X76494357Y-55999994D01*
X72302353Y-55999994D01*
X72188166Y-55825217D01*
X72120937Y-55752187D01*
X72019744Y-55642262D01*
X71823509Y-55489526D01*
X71823507Y-55489525D01*
X71823506Y-55489524D01*
X71604811Y-55371172D01*
X71604802Y-55371169D01*
X71369616Y-55290429D01*
X71124335Y-55249500D01*
X70875665Y-55249500D01*
X70630383Y-55290429D01*
X70395197Y-55371169D01*
X70395188Y-55371172D01*
X70176493Y-55489524D01*
X69980257Y-55642261D01*
X69811833Y-55825217D01*
X69675826Y-56033393D01*
X69575936Y-56261118D01*
X69514892Y-56502175D01*
X69514890Y-56502187D01*
X69494357Y-56749994D01*
X66300500Y-56749994D01*
X66300500Y-55533384D01*
X66294086Y-55462804D01*
X66243478Y-55300394D01*
X66155472Y-55154815D01*
X66155470Y-55154813D01*
X66155469Y-55154811D01*
X66035188Y-55034530D01*
X66031325Y-55032195D01*
X65889606Y-54946522D01*
X65727196Y-54895914D01*
X65727194Y-54895913D01*
X65727192Y-54895913D01*
X65677778Y-54891423D01*
X65656616Y-54889500D01*
X63343384Y-54889500D01*
X63324145Y-54891248D01*
X63272807Y-54895913D01*
X63110393Y-54946522D01*
X62964811Y-55034530D01*
X62844530Y-55154811D01*
X62756522Y-55300393D01*
X62705913Y-55462807D01*
X62699500Y-55533386D01*
X58200500Y-55533386D01*
X58200500Y-51893399D01*
X59645500Y-51893399D01*
X59645500Y-52106600D01*
X59678853Y-52317180D01*
X59678853Y-52317183D01*
X59744734Y-52519944D01*
X59744736Y-52519947D01*
X59841528Y-52709913D01*
X59966846Y-52882397D01*
X60117603Y-53033154D01*
X60290087Y-53158472D01*
X60480053Y-53255264D01*
X60480055Y-53255265D01*
X60669182Y-53316715D01*
X60682821Y-53321147D01*
X60893399Y-53354500D01*
X60893400Y-53354500D01*
X61106600Y-53354500D01*
X61106601Y-53354500D01*
X61317179Y-53321147D01*
X61317182Y-53321146D01*
X61317183Y-53321146D01*
X61519944Y-53255265D01*
X61519944Y-53255264D01*
X61519947Y-53255264D01*
X61709913Y-53158472D01*
X61882397Y-53033154D01*
X62033154Y-52882397D01*
X62158472Y-52709913D01*
X62255264Y-52519947D01*
X62273700Y-52463206D01*
X62321146Y-52317183D01*
X62321146Y-52317182D01*
X62321147Y-52317179D01*
X62354500Y-52106601D01*
X62354500Y-51893399D01*
X62321147Y-51682821D01*
X62321146Y-51682817D01*
X62321146Y-51682816D01*
X62255265Y-51480055D01*
X62255263Y-51480052D01*
X62213003Y-51397110D01*
X62158472Y-51290087D01*
X62033154Y-51117603D01*
X61882397Y-50966846D01*
X61709913Y-50841528D01*
X61519947Y-50744736D01*
X61519944Y-50744734D01*
X61317181Y-50678853D01*
X61176793Y-50656617D01*
X61106601Y-50645500D01*
X60893399Y-50645500D01*
X60823206Y-50656617D01*
X60682819Y-50678853D01*
X60682816Y-50678853D01*
X60480055Y-50744734D01*
X60480052Y-50744736D01*
X60290086Y-50841528D01*
X60117601Y-50966847D01*
X59966847Y-51117601D01*
X59841528Y-51290086D01*
X59744736Y-51480052D01*
X59744734Y-51480055D01*
X59678853Y-51682816D01*
X59678853Y-51682819D01*
X59645500Y-51893399D01*
X58200500Y-51893399D01*
X58200500Y-49324500D01*
X58220185Y-49257461D01*
X58272989Y-49211706D01*
X58324500Y-49200500D01*
X139675500Y-49200500D01*
X139742539Y-49220185D01*
G37*
%TD.AperFunction*%
%TD*%
D25*
X61000000Y-96000000D03*
X61000000Y-52000000D03*
X137000000Y-52000000D03*
X137000000Y-96000000D03*
X89800000Y-93800000D03*
X89800000Y-91260000D03*
X89800000Y-88720000D03*
X89800000Y-86180000D03*
X82180000Y-86180000D03*
X82180000Y-88720000D03*
X82180000Y-91260000D03*
X82180000Y-93800000D03*
X85300000Y-73800000D03*
X85300000Y-71260000D03*
X85300000Y-68720000D03*
X85300000Y-66180000D03*
X77680000Y-66180000D03*
X77680000Y-68720000D03*
X77680000Y-71260000D03*
X77680000Y-73800000D03*
X69000000Y-90960000D03*
X66460000Y-93500000D03*
X69000000Y-96040000D03*
X69000000Y-85500000D03*
X66460000Y-82960000D03*
X69000000Y-80420000D03*
X99500000Y-93810000D03*
X99500000Y-86190000D03*
X78690000Y-79500000D03*
X86310000Y-79500000D03*
X97310000Y-69000000D03*
X89690000Y-69000000D03*
X72000000Y-67190000D03*
X72000000Y-74810000D03*
X126500000Y-75500000D03*
X118880000Y-75500000D03*
X118500000Y-90540000D03*
X118500000Y-89270000D03*
X118500000Y-88000000D03*
X127000000Y-90540000D03*
X127000000Y-89270000D03*
X127000000Y-88000000D03*
X127000000Y-83770000D03*
X127000000Y-82500000D03*
X127000000Y-81230000D03*
X118500000Y-83540000D03*
X118500000Y-82270000D03*
X118500000Y-81000000D03*
X95500000Y-58000000D03*
X90500000Y-58000000D03*
X135500000Y-70920000D03*
X135500000Y-76000000D03*
X135500000Y-59420000D03*
X135500000Y-64500000D03*
X108000000Y-88235000D03*
X108000000Y-90775000D03*
X61597301Y-75073400D03*
X61597301Y-69993400D03*
X102190000Y-66500000D03*
X109810000Y-66500000D03*
X64500000Y-56690000D03*
X64500000Y-64310000D03*
X102000000Y-61000000D03*
X109620000Y-61000000D03*
X109810000Y-54500000D03*
X102190000Y-54500000D03*
X77500000Y-91500000D03*
X77500000Y-96500000D03*
X94500000Y-93000000D03*
X94500000Y-88000000D03*
X77500000Y-88500000D03*
X77500000Y-83500000D03*
X120000000Y-68000000D03*
X120000000Y-53000000D03*
X135500000Y-86500000D03*
X135500000Y-84000000D03*
X113500000Y-75500000D03*
X108500000Y-75500000D03*
X83500000Y-56000000D03*
X83500000Y-61000000D03*
X78000000Y-56000000D03*
X78000000Y-61000000D03*
X71000000Y-56750000D03*
X71000000Y-60250000D03*
X99000000Y-76000000D03*
X104000000Y-76000000D03*
M02*
